<?xml version="1.0" encoding="utf-8"?>
<!-- Generator: Adobe Illustrator 21.0.0, SVG Export Plug-In . SVG Version: 6.00 Build 0)  -->
<svg version="1.1" id="Warstwa_1" xmlns="http://www.w3.org/2000/svg" xmlns:xlink="http://www.w3.org/1999/xlink" x="0px" y="0px"
	 viewBox="0 0 707.1 200" style="enable-background:new 0 0 707.1 200;" xml:space="preserve">
<style type="text/css">
	.st0{fill:#37DCAA;}
	.st1{fill:#1EAD84;}
	.st2{fill:#0C7B54;}
	.st3{fill:#23AA7B;}
	.st4{fill:#0A5239;}
</style>
<g id="svgg">
	<path id="path0" class="st0" d="M120.7,55.4c0,1.4,1.1,1.8,2.4,0.9c0.9-0.9,0.3-2.3-1.1-2.3C121,54,120.7,54.4,120.7,55.4
		 M81.5,55.4c-0.3,0.6,0,0.9,1.3,0.9c0.9,0,1.6-0.3,1.6-0.9c0-0.4-0.5-0.9-1.3-0.9S81.7,55,81.5,55.4 M100.6,55.3
		c0,1.1,0.5,1.4,1.9,1.1c1.7-0.4,1.6-1.8-0.3-1.8C101.2,54.6,100.6,54.9,100.6,55.3 M111.3,55.4c0,0.4,0.6,0.9,1.3,0.9
		s1.3-0.4,1.3-0.9c0-0.4-0.6-0.9-1.3-0.9S111.3,55,111.3,55.4 M70.2,64c-0.3,0.3-0.5,1.3-0.5,2.4c0,1.7,0.2,1.8,0.6,1
		C71.1,66.4,70.9,63.3,70.2,64 M51.4,89.6c-0.5,1.1-1.1,1.4-2.5,1.4H47v41v41h6c11.7,0,13.1-1.7,12.3-14.2c-0.2-3.4,0-6.3,0.5-7.5
		c0.3-0.9,0.3-1.7-0.3-2.4c-0.6-0.9-0.6-2-0.3-4.4c0.3-2,0.3-3.8,0-4.7c-0.3-0.9-0.3-2.4,0.2-4.3c0.3-1.6,0.5-3.6,0.2-4.4
		c-0.6-2-0.6-11,0-14.5c0.3-1.6,0.2-3.1-0.2-3.8c-1.1-1.8,0-5.4,1.7-5.7c1.7-0.3,1.9-1.8,0.2-1.8c-1.7,0-2.5-2.7-1.9-5.7
		c0.6-3.1,0.2-6.3-1.1-6.3c-0.5,0-0.9-0.6-0.9-1.4c0-1.4-0.2-1.4-2.8-1.1c-2.7,0.4-2.8,0.3-2.8-1.1C57.7,87.4,52.4,87.4,51.4,89.6
		 M70.9,92.7c0,0.3,0.6,0.6,1.3,0.6s1.3-0.3,1.3-0.6s-0.6-0.6-1.3-0.6S70.9,92.4,70.9,92.7"/>
	<path id="path1" class="st1" d="M80.6,54.7c-0.5,0.4-0.8,1.1-0.8,1.7s-1.1,1.8-2.5,2.8c-1.4,1-2.5,2.3-2.5,3c0,0.9-0.3,1-1.9,0.9
		c-1.9-0.3-1.9-0.1-1.9,2c0,2.8,2.8,3.3,3.9,0.4c0.5-1.1,1.4-2,3.2-2.6c1.3-0.4,2.4-1.1,2.4-1.4s0.9-1.4,2-2.4
		c2.4-2.1,3.3-4.1,1.9-4.7C82.9,53.9,81.3,54,80.6,54.7 M90.8,55.9c-0.5,2.3-1.1,2.8-4.4,3.7c-1.7,0.4-2.4,1-2,1.6
		c0.2,0.4,0.3,1,0.3,1.1c0,0.1,0.9,0.3,2,0.3c4.6,0,9.8-7.8,5.7-8.4C91.6,54,91.1,54.3,90.8,55.9 M100.2,54.7
		c-0.2,0.4-0.3,1.4-0.5,2.4c-0.2,1.4-0.6,1.8-2.7,2.3c-3.5,0.9-3.6,2.7-0.2,3c2,0.1,2.5,0,3.2-1.3c0.5-0.9,1.6-1.8,2.5-2.3
		c2-1,3-3.6,1.7-4.3C102.9,53.7,100.6,53.9,100.2,54.7 M110.8,54.3c-0.5,0.1-0.6,0.9-0.3,1.4c0.5,1.4-1.4,3.3-3.9,3.8
		c-2.8,0.7-2.7,2.6,0.2,2.8c3,0.3,7.7-3.8,7.6-6.4C114.1,54.3,112.7,53.6,110.8,54.3 M84.2,55.4c0,0.6-0.6,0.9-1.6,0.9
		c-1.1,0-1.4-0.3-1.3-0.9c0.2-0.4,0.9-0.9,1.6-0.9C83.7,54.6,84.2,55,84.2,55.4 M103.7,55.4c0,0.9-2.2,1.6-2.8,1
		c-0.9-0.9-0.2-1.8,1.3-1.8C103.1,54.6,103.7,54.9,103.7,55.4 M113.8,55.4c0,0.4-0.6,0.9-1.3,0.9c-0.6,0-1.3-0.4-1.3-0.9
		c0-0.4,0.6-0.9,1.3-0.9C113.2,54.6,113.8,55,113.8,55.4 M119.9,56.7c-0.5,2.3-0.6,2.4-2.8,2.8c-3.2,0.6-3.5,0.7-2.7,2
		c0.9,1.6,4.7,1.6,5.4,0c0.2-0.6,0.8-1.1,1.3-1.1c0.5,0,1.3-0.9,1.9-2c0.9-2,1.9-2.6,2.5-1.4c0.3,0.6-0.6,3.1-2.2,5.8
		c-0.9,1.6-0.8,3.1,0.5,3.6c1.1,0.4,0.8,4-0.5,5.1c-0.9,0.9-0.6,3.1,0.5,4.1c0.9,0.9,0.8,3.8-0.5,5c-0.8,0.7-0.8,3.7,0,3.7
		c1.3,0,1.4,2.3,0.3,4.3c-0.9,2-0.9,2.1,0.2,4.4c1.1,2.3,1.1,2.3-0.3,4.6l-1.4,2.3l1.3,2c1.3,1.8,1.3,6,0,6c-1.1,0-1.1,1.7,0,3
		c1.4,1.7,1.6,2.7,0.2,5.3c-0.9,1.8-0.9,2,0.2,3.3c1.3,1.3,0.9,5-0.5,5c-0.9,0-0.8,2.8,0.3,3.8c1.3,1.1,1.3,3.1,0,4.6
		c-1.3,1.6-1.3,3.8,0.3,4.7c1.3,0.7,0.9,3.6-0.6,5c-0.9,0.9-0.8,3.6,0.3,4c1.3,0.4,1.3,3.3,0,4.7c-1.3,1.4-1.3,3.8,0,4.8
		c0.9,0.7,0.8,3.7-0.5,4.8c-0.9,0.9-0.6,3,0.3,3.7c1.3,1,1.3,2-0.3,3.4c-1.3,1.1-2,1.1-21.7,1.1H80.7l-1.9-1.4
		c-1.1-0.9-2.4-1.4-2.8-1.4c-1.6,0-1.3-2,0.6-3.1c2-1.3,2-5-0.2-5.3c-1.1-0.1-1.4,0.1-1.7,2.1c-0.3,2-0.6,2.4-2.4,2.7
		c-2.7,0.4-2.8,3.4-0.2,3.7c1.3,0.1,1.9,0.7,2.4,2c1.1,3,1.1,3,26.3,3h23.8l1.6-1.7c0.9-1,1.6-2,1.6-2.3s0.5-0.6,0.9-0.6
		s1.1-0.3,1.4-0.7c0.3-0.4,0.2-0.6-0.2-0.3c-1.1,0.7-3.3-1.3-3.3-3c0-3,1.3-5.1,2.8-5.1c0.8,0,1.6-0.3,1.6-0.6s-0.8-0.6-1.9-0.6
		c-2.7,0-3.5-2.7-1.7-6.5c0.8-1.7,0.8-2,0-2.6c-2-1.6-0.5-8,2-8c2.2,0,1.9-1-0.5-1.3c-3-0.3-2.8-7.8,0.3-7.8c0.5,0,0.2-0.3-0.8-0.7
		c-2.5-1.1-2-7.8,0.6-7.8c0.6,0,1.3-0.3,1.6-0.6c0.2-0.3-0.2-0.6-0.8-0.6c-3.8,0-4.4-5.1-0.9-6.4l1.7-0.6l-1.6-0.4
		c-2.2-0.6-3.2-3.7-1.7-6.7c0.8-2,0.8-2.4,0-3.3c-0.9-1.1-0.6-5.5,0.5-6.8c0.5-0.6,0.5-1.1-0.3-2c-1.7-2.3-0.8-7.3,1.4-7.4
		c0.6,0,0.6-0.3-0.5-0.7c-1.7-0.7-2.4-3.6-1.4-6.7c0.5-1.7,0.5-2.7,0-3.4c-1.6-2.6-0.2-7.4,2-7.5c1.1,0,1.1-0.1-0.5-0.7
		c-2.2-0.9-2.8-2.8-1.4-5.3c1.4-2.6,1.3-2.6-0.6-4.4c-0.9-0.9-1.7-1.8-1.7-2.1s-0.5-0.7-1.1-0.7c-0.6-0.1-0.9,0-0.8,0.1
		c0.5,0.4-0.9,1.8-1.9,1.8c-0.5,0-0.9-0.6-1.1-1.3C120.4,54.7,120.2,55,119.9,56.7 M75.4,69c0,2.8-0.6,3.8-2.7,3.8
		c-3,0-2.4,3.6,0.6,3.8c1.7,0.1,2,0.4,2,1.6c0,2-1.1,4.3-2,4.3c-1.9-0.3-2.4,0.1-2.4,1.4c0,1.3,0.3,1.4,2.2,1.4c2,0,2.2,0.1,2.2,1.7
		c0,2.6-1.1,4-2.8,4c-0.8,0-1.6,0.3-1.6,0.6s0.6,0.6,1.3,0.6s1.3,0.3,1.3,0.6s-0.6,0.6-1.3,0.6c-1.4,0-1.7,0.9-0.5,1.3
		c1.7,0.6,3.6-0.3,3.6-1.4c0-0.7,0.6-1.4,1.4-1.8c2.2-0.9,2.4-4.6,0.2-5.5c-2-0.9-2-2.3-0.2-3c2.4-0.9,2.5-6,0.2-6
		c-2,0-2.4-2.7-0.3-3.3c2.5-0.6,2.5-5.4,0.2-5.7C75.7,67.7,75.4,67.8,75.4,69 M49.7,88.6c-0.8,0.1-1.3,0.6-1.1,1
		c0.2,0.4-0.2,0.9-0.8,1c-0.6,0.1-0.2,0.3,0.9,0.1c1.6-0.1,2.2-0.4,2.7-1.4c0.3-0.7,0.3-1.3,0-1.1C51.3,88.3,50.5,88.4,49.7,88.6
		 M57.7,89.7c0,1.3,0.8,1.6,3.6,0.9c1.4-0.3,1.4-0.4,0.5-1.1c-0.9-0.7-1.3-0.7-1.9,0.1c-0.9,1.3-1.4,1.3-1.7,0
		C57.9,88.7,57.9,88.7,57.7,89.7 M63.4,91.9c0,0.9,0.3,1.4,0.9,1.4c0.9,0,1.9,3.3,1.3,4.8c-0.2,0.6-0.2,0.9,0.2,0.4
		c0.3-0.3,1.1-0.7,1.6-1c1.4-0.4,1.4-1.3-0.2-1.7c-0.9-0.3-1.3-0.7-1.3-2.1c0-1.6-1.1-3.4-2.2-3.4C63.5,90.4,63.4,91.1,63.4,91.9
		 M75.4,96.4c0,2.3-1.1,3.7-2.8,3.7c-1.3,0-1.6,0.3-1.6,1.4c0,1.4,1.1,2,3.2,2c0.9,0,1.3,0.4,1.3,1.7c0,1.8-1.4,3.4-3.2,3.4
		c-0.9,0-1.3,0.4-1.3,2c0,1.7,0.2,2,0.9,1.7c0.5-0.1,1.6-0.3,2.2-0.3c0.8,0,1.3-0.4,1.3-1.1c0-0.6,0.5-1.3,1.1-1.6
		c2.5-0.9,3-5.7,0.6-6c-1.7-0.3-2.2-2-0.6-2.4c2.5-0.7,2.8-6,0.5-6C75.7,95,75.4,95.3,75.4,96.4 M65.7,103.9c0.2,0.4,0.2,0.9,0.2,1
		c0,0.1,0.5,0.3,0.9,0.3s0.9-0.3,0.9-0.6c0-0.3-0.5-0.6-0.9-0.6c-0.5,0-0.9-0.1-1.1-0.4C65.6,103.4,65.6,103.5,65.7,103.9
		 M65.1,111.5c0.2,0.9,0.5,2.4,0.5,3.6c0,1.6,0.2,1.8,0.6,1.3c0.3-0.4,0.8-0.7,1.1-0.6c0.3,0.1,0.6-0.3,0.6-1.1
		c0-0.9-0.3-1.4-0.9-1.4c-0.5,0-1.3-0.7-1.6-1.6C64.8,110.3,64.6,110.3,65.1,111.5 M75.4,114.2c0,2-1.1,3.4-2.8,3.6
		c-2.4,0.4-1.7,3,0.8,3.3c1.3,0.1,2-0.1,2-0.6s0.8-1.3,1.6-2c1.1-1,1.6-1.8,1.6-3.6c0-2.1-0.2-2.3-1.6-2.3
		C75.7,112.6,75.4,112.9,75.4,114.2 M65.1,122.6c0.2,1.8,0.5,3.6,0.6,3.7c0.5,0.4,0.2-4.8-0.3-6C65,119.6,65,120.6,65.1,122.6
		 M75.4,122.7c0,2.1-0.6,2.8-2.5,3.1c-2.8,0.4-2.7,3.8,0.3,3.8c1.4,0,2.2-0.3,2.2-0.7c0-0.4,0.8-1.4,1.6-2.3c2-2,2-5-0.2-5.3
		C75.5,121.2,75.4,121.3,75.4,122.7 M75.4,131c0,2.8-0.6,3.8-2.5,3.8c-1.6,0-1.9,0.1-1.9,1.8c0,2.7,3.9,2.8,4.3,0.3
		c0.2-1.1,0.6-1.6,1.4-1.6c2.4,0,2.5-5.3,0.2-5.5C75.7,129.7,75.4,129.8,75.4,131 M65.7,132c0.3,1.8,2,2.8,2,1.1c0-0.6,0-1.3,0-1.6
		c0-0.3-0.5-0.6-1.1-0.9C65.7,130.4,65.6,130.5,65.7,132 M75,141.3c-0.3,2.3-0.6,2.6-2,2.7c-2.5,0.3-2.5,3.6,0,3.8
		c1.4,0.1,1.9-0.1,2.4-1.6c0.3-1,1.1-1.7,1.6-1.7c2,0,2-5.3-0.2-5.5C75.7,138.8,75.5,139.1,75,141.3 M65.3,139.8
		c0,0.7,0.9,1.6,1.7,1.7c1.3,0.3,0.9-1.4-0.5-1.7C65.9,139.6,65.3,139.6,65.3,139.8 M64.6,146.8c0,0.4,0.3,1.4,0.8,2
		s0.8,1.4,0.6,1.7c-0.2,0.4,0.2,0.9,0.6,1c0.8,0.3,0.9,0,0.8-1.1c0-0.9-0.5-1.6-0.9-1.7c-0.5-0.1-1.1-0.9-1.4-1.6
		C65,146.3,64.6,146.2,64.6,146.8 M75.4,148.6c0,2.6-0.8,3.7-2.4,4c-1.4,0.1-1.7,0.4-1.9,2.1c-0.2,2-0.2,2,2,1.8
		c1.9-0.1,2.2-0.4,2.2-1.6c0-0.9,0.6-1.6,1.6-2c2.2-0.9,2-4.6-0.2-5.3C75.5,147.5,75.4,147.6,75.4,148.6 M64.6,155.7
		c-0.2,1.1,1.3,3.6,2.2,3.8c0.5,0.1,0.8,0,0.8-0.6c0-0.4-0.5-0.9-0.9-0.9s-1.1-0.7-1.6-1.6C65,155.7,64.6,155.3,64.6,155.7
		 M65.3,167.1c0.3,2,0.3,2,0.6,0.6c0.2-0.9,0-1.8-0.3-2.1C65.1,165.1,65,165.8,65.3,167.1 M64.6,169.9c-0.2,1.7-5.2,3-11.5,3
		c-5.2,0-6.1,0.1-6.1,0.9s0.9,0.9,7.2,0.7c7.2-0.1,8.8,0.1,7.4,1.4c-0.5,0.4-0.8,1.4-0.8,2.3c0,1.4-4.4,6.1-5.8,6.1
		c-0.8,0-2.5,4.1-2,5.1c0.3,0.7,0.5,0.7,0.9-0.3c0.3-0.7,1.3-1.4,2.5-1.6c5-1,9.6-7.5,7.7-11.2c-1.1-2.1-0.9-3.1,0.3-4.6
		c0.5-0.6,0.8-1.3,0.6-1.7C64.8,169.4,64.8,169.4,64.6,169.9 M47,184.3c0,2.3,1.3,3.1,2.2,1.7c0.2-0.3,1.1-0.9,2-1.1
		c2.5-0.9,1.7-2.6-1.6-2.7L47,182V184.3"/>
	<path id="path2" class="st2" d="M142,14.2c-0.5,0.6-1.1,1.1-1.6,1.1c-2.7,0-3.6,2.6-3.6,9.4c0,5.7-0.2,6.7-1.1,7.1
		c-0.6,0.3-1.1,0.9-1.1,1.4c0,0.6,0.5,1,1.1,1.4c1.4,0.7,1.7,15.5,0.3,15.9c-0.9,0.3-1.1,3-0.2,3c0.3,0,0.6,0.3,0.6,0.6
		s-0.5,0.6-0.9,0.6c-0.6,0-0.9,0.6-0.9,1.4c0,0.7-0.2,1.7-0.3,2.3c-0.3,0.6,0.2,1.1,1.3,1.4c2.2,0.7,2.2,5.1,0,5.1
		c-1.6,0-1.7,2.8-0.3,5c1.6,2.3,1.6,3,0.3,3c-0.5,0-0.9,0.4-0.9,1s-0.2,1.6-0.3,2.3c-0.3,1,0,1.4,1.3,1.8c2,0.7,2.4,3.4,0.5,4.7
		c-1.9,1.3-2.4,3.7-0.8,4.8c1.6,1.1,1.7,3.6,0.3,3.6c-0.5,0-0.9,0.4-0.9,1c0,0.6-0.2,1.6-0.3,2.3c-0.3,1,0,1.3,1.1,1.4
		c2.2,0.3,2.4,3,0.3,4.7c-2,1.7-1.9,6.8,0.3,5.7c0.3-0.1,0.6,0.3,0.6,1.1c0,0.9-0.3,1.4-0.9,1.4c-1.6,0-1.3,5.4,0.3,5.8
		c1.7,0.4,1.6,2.6-0.3,4.1c-1.9,1.6-2,3.8-0.2,5c1.4,0.9,1.3,1-0.5,3.7c-1.4,2.1-1.3,4.6,0.3,4.6c0.6,0,1.4,0.4,1.6,0.9
		c0.6,1.3-0.3,3.7-1.4,3.7c-0.5,0-1.1,0.7-1.3,1.4c-0.5,1.6,0.6,4.3,1.6,4.3c0.9,0,0.8,1.6-0.3,1.8c-1.4,0.6-1.3,4.4,0.3,5.7
		c1.7,1.3,1.6,3.4-0.3,4.8c-0.9,0.7-1.6,1.8-1.6,2.7s0.6,1.7,1.6,2.3c2,1.1,2,2,0,4c-0.9,0.9-1.4,2-1.3,2.4s0.3,1.1,0.3,1.4
		s0.3,0.6,0.6,0.6s1.9,0.9,3.3,1.8c4.6,3.3,3.8,3.3,26.9,3.3c22.7,0,23.6-0.1,25.4-2.7c0.3-0.4,1.1-1,1.9-1.3
		c1.4-0.4,1.4-0.7,1.3-7.8c-0.2-8.5,0.2-10.4,1.3-10.4c0.5,0,0.9-0.6,0.9-1.4s-0.3-1.4-0.9-1.4c-0.5,0-1.1-0.6-1.3-1.4
		c-0.5-2,0.2-4.8,1.3-4.8c0.5,0,0.9-0.4,0.9-0.9s-0.3-0.9-0.9-0.9c-1.3,0-1.7-2.4-1.3-5.4c0.3-1.6,0.8-2.6,1.3-2.6
		c0.5,0,0.9-0.4,0.9-0.9s-0.5-0.9-0.9-0.9c-1.4,0-2.2-15.1-0.8-16.2c0.2-0.1,0.2-1.1-0.3-2.1c-0.8-2.4,0-6.7,1.1-6.7
		c0.5,0,0.9-0.4,0.9-0.9c0-0.4-0.3-0.9-0.9-0.9c-1.1,0-1.4-1.6-1.3-7.7c0.2-7.7,0.2-7.7,1.3-7.7c0.6,0,0.9-0.6,0.9-1.4
		c0-0.9-0.3-1.4-0.9-1.4c-0.5,0-1.1-0.6-1.3-1.4c-0.5-2,0.2-4.8,1.3-4.8c0.5,0,0.9-0.6,0.9-1.1c0-0.6-0.5-1.1-0.9-1.1
		c-1.1,0-1.1,0.1-1.3-7.4c-0.2-6.3,0.2-8,1.3-8c0.5,0,0.9-0.6,0.9-1.4s-0.3-1.4-0.9-1.4c-1.4,0-1.4-0.9-1.3-20.5
		c0.2-22.5,0.2-22-2.5-22.5c-1.1-0.4-2-0.9-2-1.3C189.4,12.5,143.4,12.2,142,14.2 M78.5,55.2c-0.3,0.6-1.3,1.1-2,1.1
		c-1.3,0-5.5,3.6-5.5,4.7s2.5,0.4,3.2-1c0.3-0.9,1.1-1.4,1.6-1.4c0.5,0,0.8-0.3,0.6-0.6s0.2-0.7,0.9-0.9c1.4-0.3,3.8-3,2.7-3
		C79.5,54,78.8,54.6,78.5,55.2 M86.1,55.3c0.8,1.8,3.3,2,4.3,0.1c0.5-0.9,0.5-1.4,0.2-1.4s-0.8,0.6-0.9,1.1
		c-0.2,0.6-0.5,1.1-0.8,1.1c-0.3,0-0.6-0.6-0.8-1.1c-0.2-0.6-0.8-1.1-1.3-1.1C85.8,54,85.6,54.3,86.1,55.3 M94.9,55.3
		c0.8,1.8,3.8,1.8,4.6,0c0.6-1.4-1.7-1.3-2.7,0c-0.2,0.3-0.6,0.1-0.8-0.4C95.8,54.4,95.4,54,95,54C94.6,54,94.6,54.4,94.9,55.3
		 M105.4,55.4c0.3,1.1,0.6,1.4,2.2,1.4c1.9,0,2.8-1,2.2-2.4c-0.2-0.4-0.5-0.3-0.8,0.4c-0.5,1.1-0.5,1.3-1.6,0.1
		C105.8,53.6,105.1,53.7,105.4,55.4 M114.9,55.3c0.9,2.6,5.4,1.7,4.4-0.7c-0.2-0.4-0.8-0.1-1.6,0.7c-0.8,0.7-1.4,1.1-1.4,1
		c0-0.3-0.2-0.7-0.2-1c0-0.4-0.5-0.7-0.8-0.9C114.6,54,114.6,54.3,114.9,55.3 M127.5,57.3c1.3,1.1,1.7,1.1,1.3-0.1
		c-0.2-0.4-0.8-0.9-1.3-0.9C126.5,56.3,126.5,56.4,127.5,57.3 M128.6,62c-0.5,3.1-0.3,3.7,1.6,4.1c1.1,0.3,1.3,0,1.3-1.8
		C131.1,58.6,129.4,57,128.6,62 M70.9,70.1c0,1.1,0.3,1.4,1.3,1.1c1.6-0.4,1.4-2-0.2-2.3C71.3,68.8,70.9,69.1,70.9,70.1 M130.6,69.8
		c-0.3,0.4-0.8,0.6-1.1,0.4c-0.6-0.4-1.3,1-1.3,2.8c0,1.3,2.2,3,3,2.4c0.2-0.1,0.2-1.7,0.2-3.3C131.1,70.2,131,69.4,130.6,69.8
		 M130.8,78.5c0,0.3-0.5,0.6-0.9,0.6c-2,0-2.2,3.6-0.2,4.7l1.6,0.9v-3.3c0-1.8-0.2-3.4-0.3-3.4C130.8,77.9,130.8,78.2,130.8,78.5
		 M70.9,79.3c0,0.4,0.6,0.9,1.3,0.9s1.3-0.4,1.3-0.9c0-0.4-0.6-0.9-1.3-0.9S70.9,78.9,70.9,79.3 M218.8,85.2
		c-0.9,0.9-1.7,1.8-1.7,2.1c0,0.4-0.9,1.6-2,2.6c-1.1,1.1-2.4,2.6-2.7,3.4c-0.3,0.9-0.9,1.8-1.6,2.4c-0.6,0.6-1.4,1.4-2,2
		c-0.6,0.6-1.3,1.6-1.4,2.4c-0.3,0.9-0.9,1.8-1.6,2.4c-0.6,0.6-1.6,1.4-2,2c-0.6,0.6-1.3,1.7-1.4,2.6s-0.8,1.7-1.3,2
		c-3.3,1.8-5.8,39.4-2.7,39.4c0.5,0,0.5,0.1-0.2,0.6c-1.3,0.7,0.8,2.8,2.5,2.8c0.8,0,1.1,0.4,1.1,1.4c0,1.4,0.9,3.7,1.9,4.3
		c0.3,0.1,0.6,1.1,0.8,2.3s0.8,2.3,1.3,2.6s0.9,1.3,0.9,2.1c0,0.9,0.5,1.6,0.9,1.7c0.5,0.1,1.3,1.4,1.6,2.8c0.5,1.6,1.1,2.6,1.6,2.6
		c0.5,0,0.9,0.6,0.9,1.4c0,1.4,2.5,2.1,3.5,0.9c0.3-0.4,7.1-0.6,18.3-0.6c12,0,18-0.1,18.3-0.6c0.3-0.4,0.8-0.4,1.4,0.1
		c0.8,0.6,9.1,0.7,43.9,0.4l42.8-0.3v-24.2c0-22.3-0.2-24.3-1.1-25.2c-0.6-0.6-1.1-1.3-1.1-1.6c0-1-9.1-9-10.4-9
		c-0.6,0-0.9-0.3-0.9-0.4c0-0.7-3-1.8-5.4-1.8c-1.3,0-2.2-0.3-2.2-0.6c0-1-2.4-1.4-10.1-1.8c-4.4-0.3-8.8-0.6-10.1-0.7
		c-1.3-0.1-2.4,0-2.5,0.3c-0.2,0.3-3.8,0.6-8,0.6c-4.3,0-7.7,0.3-7.7,0.6c0,0.3-0.5,0.4-0.9,0.4c-0.5,0-0.9,0.3-1.1,0.6
		c-0.2,0.3-1.4,0.6-2.8,0.6c-1.6,0-3.2,0.4-4.1,1.1c-0.8,0.6-1.7,1.1-2.2,1.1s-1.3,0.4-1.7,1.1c-0.5,0.6-1.6,1.4-2.5,1.8
		s-1.7,0.9-1.7,1.1s-0.6,0.6-1.3,0.9c-0.8,0.1-1.6,1.1-1.9,2c-0.3,0.9-1.1,2-1.9,2.3c-0.6,0.3-1.3,1-1.3,1.4s-0.6,1.3-1.3,2
		c-0.9,0.9-1.3,1.8-1.3,3.7c0,1.4-0.3,2.4-0.5,2.3c-0.8-0.4-0.5,2.4,0.3,3.1c0.9,0.9,2.2,1,8.5,1c3.9,0,5.7,0.3,6.5,0.9
		c0.5,0.4,1.6,0.9,2.4,0.9c3.5,0,6,0.3,5.8,0.7c-0.2,0.3-0.6,0.4-1.3,0.4c-0.6,0-0.9,0.3-0.9,0.7c0,0.6-1.1,0.9-3,1.1
		c-1.7,0.3-3.5,0.9-4.1,1.4c-0.6,0.6-1.4,1-1.9,0.9c-0.5-0.1-0.9,0.3-1.1,0.9c-0.2,0.7-0.8,1.1-1.7,1.1c-1.6,0-8.8,6.5-8.8,8
		c0,0.6-0.6,1.4-1.3,2c-0.9,0.9-1.3,1.7-1.3,4.4c0,1.8-0.2,3.3-0.5,3.3s-0.5,0.7-0.6,1.7c0,1,0.2,1.7,0.5,1.7s0.5,0.6,0.5,1.3
		c-0.2,1.4-2.2,1-2.4-0.4c-0.2-1.8-0.6-2.8-1.4-3.4c-0.9-0.6-1.4-2-1.6-4.1c0-0.4-0.5-0.7-0.9-0.7c-0.5,0-1.3-1-1.6-2.3
		c-0.5-1.3-1.1-2.3-1.4-2.3s-0.6-0.7-0.6-1.7s-0.5-2.1-1.3-2.7c-0.6-0.6-1.3-1.7-1.3-2.6c0-1-0.5-1.8-1.3-2.1
		c-0.8-0.4-1.3-1.1-1.3-2.3c0-0.9-0.6-2-1.3-2.6c-0.6-0.6-1.3-1.7-1.3-2.4c0-0.9-0.5-1.4-1.3-1.7c-0.9-0.1-1.3-0.7-1.3-1.8
		c0-0.9-0.6-2-1.3-2.6c-0.6-0.6-1.3-1.7-1.3-2.4c0-0.7-0.6-1.8-1.3-2.3c-1.7-1.3-2-7-0.3-7c0.5,0,0.9-0.3,0.9-0.6s0.6-1.1,1.3-1.7
		c0.6-0.6,1.3-1.4,1.4-1.8s0.8-1.3,1.6-2c0.8-0.7,1.4-1.7,1.4-2.1s0.3-1,0.8-1.3c0.9-0.6,4.3-4.8,4.3-5.5c0-0.3,0.6-0.9,1.3-1.3
		c0.6-0.4,1.3-1,1.3-1.6c0-0.4,0.5-1,0.9-1.1c0.5-0.1,1.1-1.1,1.3-2c0.3-1,0.9-1.8,1.7-2c0.8-0.1,1.1-0.6,0.8-1
		c-0.3-0.3,0.3-1.3,1.3-2c0.9-0.7,1.6-1.8,1.6-2.4s0.5-1.3,1.1-1.4c1.7-0.4,2.4-4.3,0.9-5.7c-0.9-1-2.4-1-16.2-1h-15.3L218.8,85.2
		 M485.8,84.9c-1.3,1.3-1.3,2-1.1,36.6c0,24.9-0.2,34.4-0.5,32.3c-0.3-1.7-1.1-3.1-1.6-3.3c-0.5-0.1-0.9-0.6-0.9-1
		c0-1.1-8-9-8.8-8.5c-0.3,0.1-1.1-0.4-1.9-1.1c-0.9-1-2-1.4-3.6-1.4c-1.3,0-2.2-0.3-2.2-0.6c0-0.7-3.6-2-4.4-1.6
		c-0.3,0.1-0.6,0.1-0.6-0.3c0-0.6,0.9-0.9,2-0.7c0.3,0,0.9-0.3,1.3-0.7c0.5-0.6,2-0.9,5.5-1c2.5,0,5-0.3,5.4-0.4s1.4-0.4,2.2-0.4
		c2.2-0.1,2-0.1,3.8-1.4c1.6-1.3,1.4-3.8-0.3-4.7c-0.5-0.3-0.9-1-0.9-1.6c0-0.6-0.6-1.6-1.3-2.1c-0.6-0.6-1.3-1.3-1.3-1.6
		c0-0.9-4.7-5.4-5.5-5.4c-0.5,0-1.4-0.6-2-1.4c-0.8-0.7-1.6-1.4-1.9-1.4s-1.3-0.6-2.2-1.1c-0.9-0.6-2.5-1.1-3.5-1.1
		c-1.1,0-2.2-0.4-2.7-1c-0.6-0.9-2-1-7.6-1.1c-3.8-0.1-7.6-0.3-8.3-0.6c-2.5-0.6-4.4-0.6-4.4-0.1c0,0.3-2.8,0.6-6.1,0.6
		c-4.9,0-10.9,0.9-8,1.1c1.6,0.1-1.6,1.1-3.5,1.1c-1.4,0-2.7,0.4-3.5,1.1c-0.6,0.6-1.7,1.1-2.4,1.1s-1.9,0.7-2.7,1.4
		c-0.8,0.9-1.7,1.4-2.2,1.4c-0.5,0-0.8,0.4-0.8,1c0,0.4-0.6,1-1.3,1.1c-0.8,0.1-1.4,0.9-1.6,1.4c-0.2,0.7-0.6,1.1-0.9,1.1
		c-0.3,0-0.8,0.6-1.1,1.3c-0.3,0.9-0.6-0.7-0.6-5.3c0-4.3-0.3-6.8-0.8-7.3c-1.3-1.1-15.3-0.9-16.4,0.3c-0.5,0.6-1.6,1.4-2.5,1.8
		c-0.9,0.4-1.7,1-1.7,1.3c0,0.3-0.3,0.4-0.8,0.4c-0.5,0-1.3,0.4-1.9,1c-1.1,0.9-1.1,0.9-1.1-0.3c0-2.1-1.4-4-3.3-4.7
		c-2.7-0.9-25.2-0.9-26.1,0.1c-0.5,0.4-0.8,0.4-0.8,0.3c0-0.3-0.5,0-0.9,0.4c-0.8,0.7-0.9,5.1-1.1,31.6l-0.2,30.7l2,0.7
		c1.6,0.6,29.3,1,34.5,0.7c0.5,0,0.6-4.6,0.6-12.4c-0.2-15.8,0.2-18.2,1.7-18.5c0.6-0.1,1.3-0.7,1.3-1.1c0-0.4,0.5-1,1.3-1.3
		c0.8-0.3,1.4-0.7,1.6-1.1c0.3-0.7,1.7-0.9,6.3-0.9h6v2.6c0,2.6,1.1,5.4,2,5.4c0.3,0,0.5,0.6,0.5,1.4c0,0.9,0.5,1.6,1.1,1.7
		c0.6,0.1,1.4,1.1,1.7,2.1c0.5,1.3,1.1,1.8,2,2c0.8,0.1,1.9,0.9,2.5,1.6c0.6,0.7,1.4,1.3,1.9,1.1c0.5-0.1,1.3,0,1.6,0.4
		c1.4,1.3,3.5,2,5.7,2.1c1.7,0,1.9,0.1,0.5,0.3c-0.9,0.1-2,0.6-2.5,1c-0.6,0.4-3.6,0.9-8.2,1c-3.9,0.1-7.7,0.4-8.2,0.6
		c-1.9,0.4-5,2.1-5.2,2.8c-0.3,2,0.2,4.1,1.1,4.7c0.5,0.3,0.9,1.1,0.9,1.8c0,2.3,2.4,3.7,4.9,3.1c3.8-0.9,74.2-0.6,75.1,0.1
		c0.9,0.9,3.2,0,3.2-1.4c0-0.6,0.5-1.4,0.9-1.8c0.5-0.6,1.3-2.1,1.6-3.4c0.5-2.4,0.5-2.3,0.6,1.7v4.3l16.4-0.1
		c9,0,17.5-0.3,18.6-0.4l2.2-0.4v-18.2v-18.1l2-1.7c1.4-1.3,2.5-1.7,4.3-1.7c4.1,0,3.9-0.9,3.9,19.3c0,10.1,0.2,18.6,0.5,19.1
		c1.6,2,9.9,2.4,36.5,2c1.6,0,1.1-50.1-0.5-51.6c-0.6-0.7-1.3-1.6-1.3-2.1c0-0.4-0.5-1.1-1.1-1.6c-0.6-0.4-1.4-1.4-1.9-2.3
		c-0.5-0.9-1.6-1.8-2.5-2.3c-0.9-0.4-2-1.3-2.5-1.7c-0.5-0.6-1.4-1-2-1s-1.3-0.3-1.3-0.6c0-0.9-3.6-1.6-9-1.8c-1.6-0.1-3-0.3-3-0.6
		c0-0.1-0.8-0.4-1.9-0.4s-1.9,0.1-1.9,0.4c0,0.4,0,0.4-5.4,0.6c-2.7,0.1-3.9,0.4-4.7,1.1c-0.6,0.6-1.6,1-2.4,1
		c-0.8,0-2.4,0.9-3.5,1.7l-2.2,1.7L522,99.8c-0.2-10.8-0.5-14.6-1.1-15.2C519.2,83.2,487.4,83.5,485.8,84.9 M70.9,88.4
		c0,1.3,0.2,1.4,1.3,0.9c1.4-0.7,1.3-1.8-0.3-2.1C71.3,87,70.9,87.3,70.9,88.4 M130.8,87.6c0,0.3-0.5,0.6-0.9,0.6
		c-2.2,0-1.9,4,0.3,5.1c1.3,0.6,1.3,0.4,1.3-2.8c0-1.8-0.2-3.4-0.3-3.4C131,87,130.8,87.3,130.8,87.6 M65.9,94.1
		c0,0.4,0.2,0.9,0.3,0.9s0.8,0.1,1.3,0.4c0.9,0.3,0.9,0.1,0.3-0.9C67,93.1,65.9,92.8,65.9,94.1 M70.9,97.3c0,1.4,0.2,1.6,1.3,1.4
		c0.6-0.1,1.3-0.6,1.3-1c0-0.4-0.6-1-1.3-1.4C71.1,95.6,70.9,95.7,70.9,97.3 M129.7,97.1c-1.7,1.3-1.6,3.3,0.3,4.4
		c1.3,0.7,1.3,0.7,1.4-2.4c0-1.7,0-3.1,0-3.1C131.1,96.1,130.5,96.5,129.7,97.1 M65.9,102.7c0,0.4,0.5,0.7,1.3,0.7
		c1.6-0.1,1.6-0.7,0.3-1.1C66.1,101.7,65.9,101.7,65.9,102.7 M70.9,106.1c0,1,0.3,1.3,1.3,1c0.6-0.1,1.3-0.6,1.3-1
		c0-0.4-0.6-0.9-1.3-1C71.3,104.8,70.9,105.1,70.9,106.1 M130.5,105.8c-0.2,0.3-0.6,0.4-0.9,0.3c-0.6-0.3-1.3,1-1.3,2.6
		c0,0.6,0.8,1.4,1.6,2l1.6,1v-3.3C131.4,105.2,131.3,104.7,130.5,105.8 M67,107.9c-1.4,0.3-1.6,4.1-0.2,4.1c0.5,0,0.9-0.4,0.8-1
		c0-0.6,0.2-1.6,0.5-2.3c0.3-0.7,0.3-1.3,0.3-1.3C68.3,107.6,67.6,107.8,67,107.9 M617.2,108.1c-0.5,0.3-4.4,0.6-8.5,0.6
		c-6.8,0-7.7,0.1-9.1,1.1c-0.8,0.7-2.4,1.1-3.6,1.1s-2.5,0.4-3.2,1.1c-0.6,0.6-1.6,1.1-2.2,1.1s-1.6,0.6-2.2,1.1s-1.4,1.1-1.7,1.1
		c-0.6,0-3.5,1.7-5.5,3.6c-0.6,0.6-1.1,1.4-1.1,2.1c0,0.6-0.6,1.3-1.3,1.4s-1.3,0.9-1.3,1.4c0,0.6-0.6,1.7-1.3,2.3
		c-0.6,0.6-1.3,1.8-1.3,2.7c0,0.9-0.5,2.1-0.9,3c-1.6,2.8,0.6,3.7,9.1,4c2.8,0,5,0.4,5,0.7s0.5,0.4,0.9,0.3c0.5-0.1,0.9-0.1,0.9,0.3
		c0,0.3,0.3,0.6,0.6,0.6c0.3,0,0.5-0.3,0.2-0.7c-0.3-0.6-0.3-0.6,0.5,0c0.5,0.4,2.2,0.7,3.9,0.9c1.6,0.1,3,0.1,3,0.3
		c0,1-2.8,2.6-4.6,2.6c-1.6,0-2.7,0.4-3.5,1.1c-0.6,0.7-1.9,1.3-2.8,1.3c-0.9,0-1.7,0.4-2,1.1c-0.2,0.6-0.6,1.1-0.9,1.1
		c-0.3,0-0.9,0.1-1.3,0.1s-0.9,0.1-1.6,0.1c-0.5,0-0.9,0.6-1.3,1.3c-0.2,0.6-0.8,1.1-1.3,1.1c-0.6,0-0.9,0.4-0.9,0.9
		c0,0.4-0.5,1.1-1.1,1.4c-0.6,0.3-1.6,1.6-1.9,2.8c-0.5,1.3-1.1,2.4-1.6,2.7c-1.3,0.4-1.3,18.2,0,19.3c0.9,0.9,1.9,1,1.3,0.3
		c-1.1-1.6,4.6-1.8,44.7-1.7h41l0.2-24.2c0.2-23.5,0.2-24.2-1.1-25.3c-0.6-0.7-1.3-1.6-1.3-2.1c0-0.4-0.6-1.1-1.3-1.6
		c-0.6-0.4-1.3-1-1.3-1.3c0-0.6-3.3-3.4-3.9-3.4c-0.3,0-0.9-0.6-1.4-1.3c-0.5-0.7-1.3-1.3-1.7-1.3s-1.3-0.4-1.7-0.9
		c-0.6-0.4-2.5-1-4.1-1.3c-1.7-0.1-3.2-0.6-3.5-0.7c-0.9-1.1-3.5-1.6-10.1-1.7c-3.9,0-7.7-0.3-8.3-0.6
		C619.5,107.4,618.4,107.4,617.2,108.1 M70.9,115.5c0,0.9,0.3,1,1.3,0.9c0.6-0.1,1.3-0.7,1.3-1.1s-0.6-0.9-1.3-0.9
		C71.4,114.3,70.9,114.8,70.9,115.5 M129.7,114.9c-2,0.7-1.7,3.6,0.3,3.8c1.3,0.1,1.4,0,1.4-2.1c0-1.3,0-2.3-0.2-2.3
		C131.1,114.3,130.5,114.6,129.7,114.9 M65.9,120.7c0,0.4,0.6,0.7,1.3,0.7c1.6,0,1.7-0.6,0.3-1.1C66.1,119.9,65.9,119.9,65.9,120.7
		 M130.2,122.7c-3,1-2.5,5.3,0.6,5.3c0.3,0,0.5-1.3,0.5-2.8s0-2.8-0.2-2.8C131.1,122.3,130.6,122.6,130.2,122.7 M67.8,123.9
		c0,0.4-0.5,0.7-0.9,0.7c-0.8,0-0.9,0.7-0.9,2.8c0,2.4,0.2,2.8,1.3,2.7c0.9,0,1.1-0.4,0.9-1.3c-0.5-1.6-0.5-1.6,0-2.7
		c0.3-0.6,0.3-1.4,0.2-2S68,123.4,67.8,123.9 M299,130.1c0.3,0.6,0.6,0.9,0.6,0.6c0.2-1.7,5.4,1.3,5.5,3.1l0.2,2.1h-6.1
		c-3.5,0-7.4,0.1-8.8,0.3c-3,0.3-3.3-0.3-1.4-2.1c0.6-0.7,1.3-1.6,1.3-1.8c0-0.4,1.3-0.9,2.8-1.1c1.6-0.1,3.2-0.7,3.6-1.1
		C297.8,128.8,298.2,129,299,130.1 M444.9,130c0.3,0.4,1.4,0.9,2.2,1c1.3,0.1,4.4,2.3,4.4,3c0,0.1-1.6,0.1-3.6,0
		c-2-0.1-5.2-0.1-7.2-0.1c-2.4,0-3.9-0.3-4.6-0.9c-0.5-0.4-1.3-0.9-1.7-0.9c-0.5,0-1.3-0.3-1.7-0.6c-0.8-0.6-0.8-0.6,0-0.3
		c0.6,0.1,1.4-0.1,2-0.9C436,128.8,443.6,128.5,444.9,130 M619.1,129.7c0,0.3,0.3,0.4,0.6,0.3c0.3-0.1,0.6-0.1,0.6,0.3
		c0,0.3,1.1,0.7,2.5,1c2.4,0.3,2.5,0.4,2.5,2.6v2.1h-6.5c-3.6,0-7.6,0.1-8.8,0.3c-2.7,0.3-3.5-1.4-1.1-2.6c0.6-0.3,1.3-1,1.3-1.4
		c0-0.4,1.1-0.9,2.5-1.1c1.4-0.1,3-0.7,3.5-1.3C617.5,129,619.1,128.8,619.1,129.7 M70.9,132c0,1.4,0.2,1.6,1.3,1.3
		c0.6-0.1,1.3-0.6,1.3-0.9s0-0.7,0-0.9c0-0.3-0.5-0.6-1.3-0.9C71.1,130.4,70.9,130.5,70.9,132 M129.7,132c-1.9,0.7-2,3.7-0.2,4.6
		c1.7,0.9,1.7,0.9,1.7-2.3c0-1.6,0-2.8-0.2-2.8C131.1,131.4,130.5,131.7,129.7,132 M65.9,134.8c0,0.3,0.5,0.6,0.9,0.6
		c0.5,0,1.1-0.3,1.3-0.6c0.2-0.3-0.2-0.6-0.9-0.6C66.5,134.2,65.9,134.5,65.9,134.8 M65.9,138.6c0,0.3,0.6,0.7,1.3,0.9
		c0.8,0.1,1.3,0,1.1-0.4C68,138.4,65.9,137.9,65.9,138.6 M70.9,141.3c0,1.3,0.2,1.4,1.3,0.7c1.4-0.9,1.4-1.7-0.2-2
		C71.3,139.9,70.9,140.2,70.9,141.3 M130.8,140.5c0,0.3-0.6,0.6-1.3,0.9c-1.7,0.4-1.7,3.6,0,4.4c1.7,0.9,1.7,0.9,1.7-2.6
		c0-1.7-0.2-3.1-0.2-3.1C131,139.9,130.8,140.2,130.8,140.5 M67,142.8c-1.6,0.9-1.6,4.8,0,5.3c0.9,0.3,1.1,0,0.9-1.1
		c-0.2-0.7-0.6-1.3-0.9-1.3c-0.3,0-0.2-0.4,0.5-1.1C68.9,143.1,68.6,142.1,67,142.8 M70.9,150.3c0,1,0.2,1.6,0.5,1.1
		c0.3-0.3,0.9-0.9,1.6-1c1.4-0.4,0.9-1.3-0.8-1.7C71.1,148.6,70.9,148.9,70.9,150.3 M130.8,149.6c0,0.3-0.6,0.6-1.3,0.9
		c-2.2,0.6-1.3,4.4,0.9,4.4c0.5,0,0.8-1,0.8-2.8c0-1.6-0.2-2.8-0.3-2.8S130.8,149.3,130.8,149.6 M67,152.3c-1.7,0.3-1.6,4.4,0.2,4.8
		c1.3,0.3,1.6-1.3,0.5-2.3c-0.2-0.1-0.2-0.7,0.3-1.1C68.7,152.7,68.4,152,67,152.3 M625.4,158.4c0,3.6-0.2,4.3-1.3,4.8
		c-0.6,0.3-1.3,1-1.3,1.4c0,0.4-0.3,0.9-0.8,0.9s-1.6,0.6-2.5,1.1c-3.3,2.4-9,1-9.3-2.4c-0.3-3.3,0-5.5,0.8-5.5
		c0.5,0,1.4-0.4,1.9-1.1c0.6-0.6,1.9-1.3,2.8-1.4s1.9-0.7,2-1.1c0.3-0.7,4.9-1.4,6.6-1C625,154.1,625.4,155.6,625.4,158.4
		 M305.3,157.8c0,2.6-0.3,3.7-0.9,4c-0.5,0.1-1.1,1.1-1.3,2c-0.2,1-0.6,1.7-0.8,1.8c-1.9,0.1-3,0.6-3.6,1.3c-0.9,1.3-6.6,1.3-6.6,0
		c0-0.4-0.5-0.9-0.9-0.9c-0.6,0-0.9-0.9-1.1-2.4c-0.3-3.4,0-5,1.1-5c0.5,0,1.1-0.4,1.6-1.1c0.5-0.7,1.6-1.3,3.5-1.4
		c1.6-0.3,3-0.7,3.3-1.1c0.2-0.6,1.3-0.9,3.2-0.9h2.8v3.7 M70.9,159.6c0,1.4,0,1.4,1.3,0.4c0.6-0.6,1.3-1.1,1.3-1.4
		s-0.6-0.4-1.3-0.4C71.3,158.1,70.9,158.6,70.9,159.6 M130,158.6c-2.2,0.6-2.2,5,0.2,5.4c0.9,0.3,1.1-0.1,1.1-2.8c0-1.7,0-3,0-3
		C131.1,158.3,130.6,158.4,130,158.6 M67,160.8c-0.9,0.1-1.1,0.9-1.1,3.1c0,2.6,0.2,2.8,0.9,2.1c0.8-0.6,0.9-0.4,0.9,0.9
		c0,0.9-0.3,1.4-0.9,1.4c-1.3,0-1.6,2.1-1.6,8.8c0,5.4,0,5.8-1.6,7.3c-0.9,0.9-1.4,1.8-1.3,2.1s0,0.9-0.5,1
		c-0.6,0.3-0.6,0.6-0.2,0.6s1.1-0.6,1.4-1.1c0.3-0.6,1.1-1.1,1.6-1.1c0.6,0,0.9-0.7,0.9-2.8c0-2,0.3-2.8,0.9-2.8
		c0.8,0,1.6-1.7,1.6-3.6c0-0.6-0.6-1.1-1.3-1.3c-0.9-0.3-1.3-0.9-1.3-2.8c0-1.8,0.3-2.7,1.3-3.1c1.4-0.7,1.7-4.4,0.5-5.5
		c-0.6-0.6-0.5-0.9,0-1.6C68.7,161.4,68.4,160.5,67,160.8 M435.1,162.1c1.6,0.7,4.6,1,10.9,1.1c2.2,0,3,0.3,3,0.9
		c0,0.4,0.6,0.9,1.3,0.9c0.6,0,1.3,0.3,1.3,0.6s-0.6,0.6-1.3,0.6c-0.6,0-1.3,0.4-1.3,0.9c0,1.3-12.8,1.3-14,0c-0.5-0.4-2-1-3.5-1.3
		c-1.4-0.1-2.5-0.6-2.5-0.9s-0.8-1.1-1.7-2l-1.7-1.6l1.6-0.3C429,160.5,433,161.1,435.1,162.1 M70.9,175.1c0,7.7,0.2,8.2,1.3,8.5
		c0.8,0.1,1.3,0.9,1.3,1.7c0.2,3.1-0.3,2.8,5.4,3c1.9,0,3.3,0.3,3.2,0.6c-0.5,0.6,1.1,1.1,3.2,1.1c0.9,0,1.6-0.3,1.6-0.9
		c0-0.4,0.5-1,1.3-1.1c1.7-0.4,4.4,0.3,4.4,1.1c0,0.4,0.5,0.9,1.3,0.9c1.7,0,3.3-0.6,2.8-1.1c-0.5-0.7,2.5-1.3,4.4-0.9
		c0.9,0.3,1.4,0.6,1.3,1.1c-0.2,0.6,0,0.7,0.8,0.7c1.4,0,4.6-1,3.6-1c-1.1-0.1,1.3-1.1,2.5-1.1c0.8,0,2,0.6,2.8,1.1
		c0.8,0.6,1.9,1,2.4,0.9c0.5-0.1,1.3-0.3,1.7-0.3c0.5,0,0.8-0.3,0.6-0.6c-0.6-1,3-1.3,3.8-0.4c0.6,0.9,3,1,3.8,0.1
		c0.3-0.3,0.9-0.4,1.6-0.4c1.7,0,5-4.1,5-6.3c0-1.1-0.3-1.7-0.9-1.7c-0.5,0-1.1-0.3-1.3-0.6c-0.5-0.7,0.3-2.3,1.3-2.3
		c0.9,0,1.6-2.4,1.1-4c-0.2-0.6-0.6-1.1-1.3-1.1c-1.4,0-1.1-2.7,0.3-3c0.8-0.1,1.3-0.7,1.3-1.6c0-1.6-0.6-1.1-4.9,2.7l-2.7,2.4
		h-22.4H78.8l-2.4-1.4c-1.3-0.7-2.4-2-2.5-2.7c-0.2-0.7-0.8-1.4-1.6-1.7l-1.4-0.4V175.1 M48.7,188.1c1.1,0.1,2,0.6,2,1
		c0,0.9,1.9,1.7,2.4,1.1c0.2-0.1,0-0.3-0.3-0.3c-0.3,0-0.8-0.6-0.9-1.1c-0.3-0.9-0.8-1.1-2.7-1C46.8,187.9,46.8,187.9,48.7,188.1
		 M56.5,188.1c-1.7,0.4-2.7,2.3-0.9,2c0.8-0.1,1.4-0.6,1.4-0.9c0-0.3,0.8-0.9,2-1c2-0.3,2-0.4,0.3-0.4
		C58.2,187.9,56.9,188,56.5,188.1"/>
	<path id="path3" class="st3" d="M79.5,55.4c-0.5,0.7-1.6,1.6-2.2,1.7c-0.8,0.1-1.1,0.6-0.9,0.9c0.2,0.3,0,0.6-0.6,0.6
		c-0.5,0-1.3,0.6-1.6,1.4s-1.1,1.4-1.9,1.4c-1.9,0-1.1,1.4,0.9,1.6c1.3,0.1,1.7,0,1.7-0.9c0-0.6,1.1-1.8,2.5-2.8
		c1.4-1,2.5-2.3,2.5-2.8s0.3-1.3,0.8-1.7c0.5-0.4,0.6-0.7,0.3-0.7S79.9,54.6,79.5,55.4 M84.6,54.4c1.3,0.4,0.2,2.7-2,4.6
		c-1.1,1-2,2.1-2,2.4c0,0.3-1.1,1-2.4,1.4c-1.6,0.6-2.7,1.4-3.2,2.6c-0.6,1.3-1.3,1.7-2.5,1.7c-1.9,0-2.2,1.4-0.3,1.8
		c1.4,0.3,1.7,2.1,0.3,2.1c-0.5,0-1.3,0.6-1.9,1.4c-1.1,1.6-1.4,3.4-0.3,2.8c0.3-0.1,0.6-0.9,0.6-1.4c0-0.9,0.5-1.1,1.9-1.1
		c1.9,0,2.5-1,2.5-3.8c0-1,0.3-1.3,1.4-1.1c2.4,0.3,2.4,5.1-0.2,5.7c-0.9,0.1-1.3,0.7-1.3,1.8c0,1.4-0.2,1.6-2.2,1.3
		c-1.7-0.1-2.2,0-2.2,0.9c0,0.7,0.5,1,1.3,1c0.6,0,1.3,0.4,1.3,0.9c0,0.4-0.6,0.9-1.3,0.9c-0.8,0-1.3,0.4-1.3,1.1
		c0,0.7,0.5,1.1,1.6,1.1c1.7,0,2.8-1.6,2.8-4.1c0-1.1,0.3-1.4,1.6-1.4c2.2,0,2,5.1-0.2,6c-1.9,0.7-1.7,2.3,0.2,3
		c2.2,0.9,2,4.6-0.2,5.5c-0.9,0.3-1.4,1-1.4,1.8c0,1.3-1.1,1.6-3.6,1.3c-1.3-0.1-0.9,1,0.5,1.8c1.6,0.9,1.6,2,0,2.3
		c-1.7,0.4-1.6,1.6,0.3,1.6c1.7,0,2.8-1.4,2.8-3.7c0-1.1,0.3-1.4,1.6-1.4c2.4,0,2,5.3-0.5,6c-1.6,0.4-1.3,2.1,0.6,2.4
		c2.4,0.3,1.9,5.1-0.6,6c-0.6,0.1-1.1,0.9-1.1,1.6c0,0.7-0.5,1.1-1.3,1.1c-1.9,0-3.2,0.6-3.2,1.4c0,0.4,0.6,0.9,1.3,0.9
		s1.3,0.3,1.3,0.9c0,0.4-0.6,0.9-1.3,1.1c-1.9,0.4-1.7,2.1,0.2,1.7c1.9-0.4,3-1.7,3-3.7c0-1.3,0.3-1.6,1.6-1.6
		c1.4,0,1.6,0.3,1.6,2.3c0,1.7-0.5,2.7-1.6,3.6c-0.8,0.7-1.6,1.7-1.6,2c0,0.4-0.8,0.6-2.2,0.4l-2.2-0.3l0.2,2.6
		c0.2,4,4.1,3.3,4.3-0.7c0-1.3,0.3-1.6,1.4-1.4c2.2,0.3,2.2,3.3,0.2,5.3c-0.9,0.9-1.6,1.8-1.6,2.3s-0.9,0.9-2.4,1l-2.4,0.1l1.7,0.7
		c1.9,0.7,1.9,2.1-0.2,2.6c-1.9,0.4-1.4,1.6,0.6,1.6c1.9,0,2.5-1,2.5-3.8c0-1,0.3-1.3,1.4-1.1c2.4,0.3,2.4,5.5-0.2,5.5
		c-0.8,0-1.3,0.4-1.4,1.6c-0.2,1.3-0.5,1.6-2,1.6c-0.9,0-1.9,0.3-2,0.7c-0.2,0.4,0.2,0.7,0.6,0.7c1.6,0,1.9,1.1,0.5,2.1
		c-2,1.3-1.7,2.3,0.5,2c1.7-0.3,1.9-0.6,2.2-2.8c0.3-2.1,0.6-2.6,1.7-2.4c2,0.3,2.2,5.5,0.2,5.5c-0.5,0-1.1,0.9-1.6,1.7
		c-0.6,1.6-0.9,1.7-2.5,1.6c-2.4-0.3-2.5,0.6-0.3,1.3c1.6,0.6,1.6,1.7,0,1.7c-0.6,0-1.6,1.1-1.6,2c0,1.6,3.8-0.7,4.1-2.4
		c0.2-1.1,0.5-2.3,0.5-2.4c0-0.1,0.8-0.1,1.6,0.1c2.2,0.7,2,4.3-0.2,5.1c-0.9,0.4-1.6,1.1-1.6,2c0,1-0.5,1.3-2,1.4
		c-2.2,0.1-3.3,1.6-1.3,1.6c1.6,0,1.7,0.6,0,1.8c-1.4,1.1-1.6,2.1-0.3,2.1c2,0,2.8-0.9,3.3-3c0.3-1.8,0.6-2.3,1.7-2.1
		c2.2,0.3,2.2,4.1,0.2,5.3c-1.7,1-2.2,3.1-0.6,3.1c0.6,0,1.9,0.6,2.8,1.4l1.9,1.4h20.5c19.5,0,20.5,0,21.7-1.1
		c1.6-1.4,1.6-2.4,0.3-3.4c-1.1-0.9-1.3-2.8-0.3-3.7c1.1-1.1,1.4-4,0.5-4.8c-1.3-0.9-1.3-3.4,0-4.8c1.3-1.4,1.3-4.3,0-4.7
		c-1.1-0.4-1.3-3.1-0.3-4c1.6-1.4,1.9-4.3,0.6-5c-1.4-0.9-1.6-3.1-0.3-4.7c1.3-1.4,1.3-3.4,0-4.6c-1.1-0.4-1.3-3.3-0.3-3.3
		c1.4,0,1.7-3.7,0.5-5c-1.3-1.1-1.3-1.4-0.2-3.3c1.3-2.6,1.3-3.6-0.2-5.3c-1.1-1.3-1.1-3,0-3c1.3,0,1.3-4.1,0-6l-1.3-2l1.4-2.3
		c1.4-2.3,1.4-2.3,0.3-4.6c-1.1-2.1-1.1-2.4-0.2-4.4c1.1-2,0.9-4.3-0.3-4.3c-0.8,0-0.8-3,0-3.7c1.1-1.1,1.4-4.1,0.5-5
		c-1.1-1-1.3-3.3-0.5-4.1c1.3-1.1,1.6-4.8,0.5-5.1c-1.1-0.4-1.3-2-0.5-3.6c1.7-2.8,2.7-5.3,2.2-6c-0.6-0.9,1.6,0.6,2.7,1.8
		c0.5,0.4,0.8,0.7,0.8,0.4c0.2-3.1-5-3.6-6.1-0.4c-0.3,1-1.1,1.7-1.6,1.7c-0.5,0-1.1,0.6-1.3,1.1c-0.6,1.6-4.4,1.6-5.4,0
		c-0.8-1.3-0.5-1.4,2.7-2c1.3-0.1,2.4-0.6,2.4-0.9c0-0.3,0.3-1.4,0.6-2.6c0.3-1.1,0.3-2.1,0-2.1s-0.6,0.6-0.8,1.3
		c-0.3,2-3.5,2.1-4.3,0.1s-1.1-1.8-0.8,0.4c0.3,2.7-4.4,6.8-7.6,6.5c-2.8-0.3-3-2.1-0.3-2.8c2.4-0.6,4.3-2.1,4.1-3.6
		c0-1.1,0-1.1-0.6-0.1c-0.9,1.6-4.3,1.3-4.4-0.3c-0.2-0.7-0.6-1.3-1.1-1.4c-0.8-0.1-0.8-0.1,0,0.3c1.3,0.9,0.3,3.4-1.6,4.3
		c-0.9,0.4-2,1.4-2.5,2.3c-0.8,1.4-1.3,1.6-3.3,1.4c-3.3-0.3-3.3-2.1,0.2-3c2.4-0.6,2.5-0.9,2.8-3c0.5-2.7,0.2-3-0.6-1
		c-0.5,1-1.1,1.4-2.2,1.4c-1.1,0-1.7-0.4-2.2-1.4c-0.8-1.8-1.1-1.8-0.8,0.3c0.6,3.8-8.2,9.2-9.6,6c-0.5-1.1-0.5-1.1,2.5-2.1
		c2.5-0.7,4.4-3.1,3.8-4.6c-0.2-0.4-0.5-0.1-0.8,0.6c-0.6,1.8-3.3,1.7-4.1-0.1c-0.3-0.9-0.9-1.4-1.4-1.4
		C84.2,54.2,84,54.2,84.6,54.4 M127.6,62.6c-1.1,2.3-0.5,4.3,1.7,5c1.4,0.6,1.6,0.6,0.5,0.7c-2.4,0.1-3.6,4.8-2,7.5
		c0.5,0.7,0.5,1.8,0,3.4c-0.9,3.1-0.3,5.8,1.4,6.7c0.9,0.4,1.1,0.6,0.5,0.7c-2.2,0.1-3.2,5.1-1.4,7.4c0.8,1,0.8,1.4,0.3,2
		c-1.3,1.3-1.6,5.7-0.5,6.8c0.8,1,0.8,1.4,0,3.3c-1.3,3-0.5,6.3,1.7,6.7l1.6,0.4l-1.7,0.6c-3.6,1.3-2.8,6.4,0.9,6.4
		c1.6,0,1.4-1-0.3-1.3c-2.2-0.3-2.4-3.1-0.2-3.8c2.2-0.7,2.2-3.1,0-4.3c-1.6-1-2-2.7-0.9-4.3c0.3-0.4,0.6-0.6,0.6-0.4
		c0,0.3,0.5,0.1,0.9-0.1c1.4-1.1,1.1-3.1-0.6-4.3c-0.9-0.6-1.6-1.4-1.6-2.3c0-0.9,0.6-1.7,1.6-2.3c0.9-0.6,1.6-1.4,1.6-2
		s-0.6-1.4-1.6-2c-2-1.3-2-4.8,0-4.8c1.7,0,1.9-3,0-4.3c-0.9-0.7-1.7-1.6-1.7-2.1c0-1.6,0.6-2.7,1.6-2.7c0.8,0,1.6-1.1,1.6-2.6
		c0-0.4-0.6-1-1.6-1.4c-1.1-0.4-1.6-1.1-1.6-2.3c0-1.4,1.3-4.1,1.3-2.8c0,0.3,0.5,0.1,0.9-0.1c1.6-1.1,1.1-3.4-0.8-4
		c-1.6-0.6-1.6-0.9-1.3-2.8C128.9,60.4,128.8,60.3,127.6,62.6 M70.9,86.2c0,0.4,0.6,0.9,1.3,1.1c0.6,0.1,1.3,0.6,1.3,0.9
		s-0.6,0.9-1.3,1.3c-1.7,0.9-1.6,1.7,0.3,1.7c1.7,0,2.8-1.4,2.8-4c0-1.6-0.2-1.7-2.2-1.7C71.7,85.3,70.9,85.6,70.9,86.2 M47,89.3
		c0,0.7,0.5,1.1,0.9,1.1c0.6,0,0.9-0.3,0.6-0.9c-0.2-0.6,0.2-0.9,1.1-1c0.9-0.1,0.8-0.3-0.6-0.3C47.3,88.2,47,88.4,47,89.3
		 M58.2,89.3c0.5,1.4,0.8,1.4,1.7,0.1c0.8-1,0.9-0.9,2.2,0.1l1.4,1.1l-1.3-1.3C60.9,87.7,57.7,87.6,58.2,89.3 M65.4,101
		c0,1.3,0.2,1.7,0.3,1c0.2-0.7,0.2-1.7,0-2.3C65.6,99.1,65.4,99.7,65.4,101 M69.7,102.7c0,2.3,0,2.3,0.6,0.6c0.3-1,0.3-1.8,0-2.3
		C69.8,100.7,69.7,101.2,69.7,102.7 M66.5,103.5c-0.8,0.4-0.8,0.6,0.2,0.6c0.6,0,1.3,0.3,1.4,0.7c0.2,0.4,0.3,0.3,0.3-0.3
		C68.4,103.2,67.6,102.9,66.5,103.5 M70.9,103.8c0,0.6,0.6,1.1,1.3,1.3s1.3,0.6,1.3,1c0,0.4-0.6,0.9-1.3,1c-1.6,0.4-1.6,1.6,0,1.6
		c1.7,0,3.2-1.6,3.2-3.4c0-1.3-0.3-1.7-1.3-1.7c-0.6,0-1.7-0.1-2.2-0.3C71.3,102.9,70.9,103.1,70.9,103.8 M65.4,109.9
		c-0.2,2,0.5,3.3,1.6,3.3c0.5,0,0.9,0.6,0.9,1.4c0,0.9-0.3,1.3-0.6,1.1c-0.3-0.1-0.8,0-0.9,0.3c-0.3,0.4,0,0.6,0.8,0.4
		c1.7-0.3,2-4.4,0.3-4.4c-0.9,0-1.3-0.4-1.6-1.8C65.6,108.6,65.4,108.6,65.4,109.9 M70.2,111.9c-0.2,0.1-0.5,0.9-0.3,1.6
		c0,1.1,0.2,1.1,0.6-0.1C70.9,111.9,70.8,111.2,70.2,111.9 M65.4,119.2c0,1.3,0.2,1.7,0.3,1c0.2-0.7,0.2-1.7,0-2.3
		C65.6,117.3,65.4,117.9,65.4,119.2 M129.7,121c-2.8,0.6-3.6,6.7-0.8,8c0.8,0.4,1.3,0.7,0.8,0.7c-3.2,0-3.3,7.7-0.2,7.8l2.2,0.1
		l-1.7-0.9c-2.4-1.1-2.5-4-0.2-4.8c1.3-0.4,1.6-1,1.6-2.1c0-1.3-0.3-1.7-1.6-2c-2.5-0.6-2.2-4.1,0.5-5.1c0.6-0.1,1.1-0.7,1.1-1.3
		c0-0.4,0-0.9-0.2-0.9C131.1,120.7,130.5,120.9,129.7,121 M66.4,121.6c-0.9,0.9-0.5,3,0.6,3c0.6,0,0.9-0.3,0.6-0.9
		c-0.2-0.6-0.2-0.7,0.3-0.6c0.5,0.3,0.6,0,0.5-0.6C68.1,121.4,67,120.9,66.4,121.6 M65.6,128.3c0,1.7,0.3,2.3,1.6,2.7
		c1.1,0.4,1.4,0.3,1.3-0.3c-0.2-0.4-0.8-0.6-1.3-0.6c-0.8,0.1-1.1-0.4-1.3-2l-0.3-2.1V128.3 M65.4,137.2c-0.2,1.7,0.2,2.3,1.1,2.4
		c1.3,0.3,1.7,2,0.5,1.7c-0.5-0.1-0.8,0.3-0.9,0.9c-0.2,0.9,0,1,1.1,0.4c1.7-0.9,1.7-2.8,0.2-3.3c-0.8-0.1-1.3-0.9-1.4-2.4l-0.3-2.1
		L65.4,137.2 M70.2,136.8c-0.3,0.3-0.5,1-0.5,1.6c0,0.9,0.2,1,0.6,0.6c0.3-0.3,0.6-1,0.5-1.6C70.8,136.8,70.5,136.7,70.2,136.8
		 M127.6,140.6c-0.9,2.4-0.8,5.4,0.2,6.1c0.8,0.6,0.8,1,0,2.6c-1.7,3.7-1.1,6.5,1.7,6.5c2.2,0,2.4-0.7,0.5-1.4
		c-1.9-0.7-2.4-3.6-0.6-4.1c2.5-0.9,2.8-3.7,0.5-4.7c-1.9-0.9-2.2-3.8-0.5-4.6c2.4-0.7,2.7-2.4,0.5-2.4
		C128.8,138.8,128.3,139.2,127.6,140.6 M65.4,146c0,1.3,0.3,2,1.4,2.7c0.9,0.6,1.6,0.7,1.6,0.3c0-0.3-0.6-0.7-1.3-1
		c-0.8-0.1-1.3-0.9-1.4-2.1l-0.3-1.8V146 M67.8,150.9c0,0.6-0.3,0.9-0.9,0.6c-0.5-0.1-0.9,0-0.9,0.3c0,1,1.9,0.7,2.4-0.3
		c0.2-0.4,0.2-1,0-1.3C68,150.2,67.8,150.4,67.8,150.9 M65.4,154.9c-0.2,2,0.5,3.3,1.6,3.3c0.5,0,0.9,0.4,0.9,0.9
		c0,0.6-0.3,0.7-0.9,0.6c-0.6-0.1-0.9,0-0.9,0.6c0,1.7,2.2,0.7,2.4-1c0.2-1.3-0.2-1.7-1.1-1.8c-0.8-0.1-1.4-0.9-1.6-2.1
		C65.4,153.4,65.4,153.4,65.4,154.9 M70.2,155c-0.3,0.3-0.5,1-0.5,1.6c0,0.9,0.2,1,0.6,0.6c0.3-0.3,0.6-1,0.5-1.6
		C70.8,155,70.5,154.9,70.2,155 M127.6,158.8c-1.4,3.6,0.3,7.7,2.7,6.4c0.3-0.1,0.5,0,0.2,0.3c-0.3,0.4-0.8,0.7-1.4,0.7
		c-0.5,0-0.9,0.3-0.9,0.6c0,0.3-0.8,1.3-1.6,2.3l-1.6,1.7h-23.8c-25.2,0-25.2,0-26.3-3c-0.5-1.4-1.1-2-2.4-2c-2-0.3-2.2,0.9-0.2,1.6
		c0.9,0.3,1.6,1,1.6,1.7c0,0.7,0.9,1.7,2.4,2.6l2.4,1.4h22.5h22.5l3.8-3.3c3.9-3.4,4.7-5.1,2.5-5.5c-2.4-0.6-2.5-4.8,0-5.4
		c1.7-0.4,1.6-1.6-0.3-1.6C128.8,157,128.3,157.4,127.6,158.8 M65.4,163.8c0,1.1,0.2,1.6,0.3,1c0.2-0.6,0.2-1.4,0-2
		C65.6,162.3,65.4,162.7,65.4,163.8 M66.7,166.2c-1.1,1-0.9,2.1,0.2,2.1c0.6,0,0.9-0.6,0.9-1.4C67.8,165.4,67.6,165.2,66.7,166.2
		 M64.2,171.8c-1.1,1.3-1.1,2.3-0.2,4.4c1.9,3.7-2.7,10.2-7.7,11.2c-1.1,0.3-2.2,0.9-2.5,1.6c-0.5,1-0.6,1-0.9,0.3
		c-0.5-1,1.3-5.1,2-5.1c1.4,0,5.8-4.7,5.8-6.1c0-0.9,0.3-1.8,0.8-2.3c1.1-1,0-1.6-2.5-1.4c-0.9,0-4.1,0.1-6.9,0.1l-5,0.1v3.7v3.7
		l2.7,0.1c4.4,0.3,3.6,2.6-1.6,4.3c-1.9,0.6-1.3,1.4,1.1,1.4c1.7,0,2.4,0.3,2.5,1.1c0.5,1.7,1.9,1.8,3,0.4c0.8-1,1.7-1.3,3.9-1.4
		c1.6-0.1,3.3-0.1,3.5-0.1c0.3,0,0.3-0.4,0.2-0.9s0.3-1.4,1.1-2.3c1.7-1.6,2.4-5.8,1.7-10.5C65.1,171.6,64.8,171.2,64.2,171.8"/>
	<path id="path4" class="st4" d="M193.6,12.3c-0.3,0.3-0.5,1-0.5,1.7c0,1.6-0.9,1.7-1.4,0.1c-0.3-0.9-0.8-1.1-2.2-1.1
		c-0.9,0-1.4,0.1-0.9,0.3c0.5,0.1,0.8,0.6,0.8,1c0,0.4,0.9,0.9,2.2,1.1c2.8,0.4,2.7,0,2.5,22.5c-0.2,19.8-0.2,20.6,1.3,20.6
		c0.5,0,0.9,0.6,0.9,1.4s-0.3,1.4-0.9,1.4c-1.3,0-1.4,1.7-1.3,8c0.2,7.5,0.2,7.4,1.3,7.4c0.5,0,0.9,0.6,0.9,1.1
		c0,0.6-0.3,1.1-0.9,1.1c-1.1,0-1.7,3-1.3,4.8c0.2,0.7,0.8,1.4,1.3,1.4s0.9,0.6,0.9,1.4s-0.3,1.4-0.9,1.4c-0.9,0-0.9,0-1.3,7.7
		c-0.2,6.1,0.2,7.7,1.3,7.7c0.5,0,0.9,0.4,0.9,0.9c0,0.4-0.3,0.9-0.9,0.9c-1.1,0-1.9,4.3-1.1,6.7c0.3,1,0.5,2,0.3,2.1
		c-1.3,1.1-0.5,16.2,0.8,16.2c0.5,0,0.9,0.4,0.9,0.9c0,0.4-0.3,0.9-0.9,0.9c-0.5,0-1.1,1-1.3,2.6c-0.5,3,0.2,5.4,1.3,5.4
		c0.5,0,0.9,0.4,0.9,0.9c0,0.4-0.3,0.9-0.9,0.9c-1.1,0-1.7,3-1.3,4.8c0.2,0.7,0.8,1.4,1.3,1.4s0.9,0.6,0.9,1.4
		c0,0.9-0.3,1.4-0.9,1.4c-1.3,0-1.4,2-1.3,10.4c0.2,7.1,0,7.3-1.3,7.8c-0.8,0.3-1.7,0.9-1.9,1.3c-1.9,2.6-2.8,2.7-25.4,2.7
		c-23,0-22.4,0.1-26.9-3.3c-1.4-1-2.8-1.8-3.3-1.8s-0.8-0.4-0.9-1c-0.2-0.6-0.3,2.7-0.3,7.3c0,8-0.5,9.7-2,9.7c-0.3,0-0.5-2-0.6-4.4
		c0-2.4-0.2-3.8-0.3-3.1s-0.6,1.3-1.1,1.3c-0.9,0-1.7,1.6-1.3,2.3c0.2,0.3,0.8,0.6,1.3,0.6c0.6,0,0.9,0.6,0.9,1.7
		c0,2.1-3.3,6.3-5,6.3c-0.6,0-1.3,0.1-1.6,0.4c-0.9,0.9-3.2,0.7-3.8-0.1c-0.8-1-4.4-0.6-3.8,0.4c0.2,0.3,0,0.6-0.6,0.6
		s-1.3,0.1-1.7,0.3c-0.5,0.1-1.6-0.3-2.4-0.9s-2-1.1-2.8-1.1c-1.4,0-3.6,1-2.5,1.1c0.9,0.1-2.2,1-3.6,1c-0.8,0-1.1-0.3-0.8-0.7
		c0.2-0.6-0.2-1-1.3-1.1c-1.7-0.4-4.9,0.1-4.4,0.9c0.3,0.6-1.1,1.1-2.8,1.1c-0.6,0-1.3-0.3-1.3-0.9c0-1-2.8-1.7-4.4-1.1
		c-0.6,0.1-1.3,0.7-1.3,1.1c0,0.4-0.6,0.9-1.6,0.9c-2,0-3.6-0.6-3.2-1.1c0.2-0.3-1.1-0.6-2.8-0.6c-2.7,0-3.2,0.1-3,1
		c0.2,1,1.9,1,24.1,1.1c20.3,0.1,23.9,0.3,24.4,1c0.8,1.3,5.2,1.1,6.1-0.3c0.9-1.3,3.6-2.1,3.6-1.3c0,0.3,0.5,1,0.9,1.4
		c1.4,1.3,3.5,0.1,3.5-1.7c0-1.7,2.2-2,2.7-0.3c0.3,1,0.9,1.1,4.9,1.1c3.5,0,4.4,0.1,3.5,0.6c-3,1.6-0.2,4.4,3.3,3.3
		c2.5-0.9,2.5-2.4,0.2-3.3c-1.4-0.4-1.3-0.6,2-0.6c2,0,3.3,0.1,2.7,0.3c-0.8,0.1-1.1,0.9-1.1,1.8c0,2.1,3.2,2.8,6.9,1.6
		c2-0.7,2.5-0.7,3.5,0c1.4,1,4.3,1,6.8,0c1.7-0.7,2.2-0.7,3.3,0c1.6,1,4.4,1,6.6-0.1c2.4-1.1,2.4-1.7,0.2-2.8l-1.7-0.9h3
		c2.5,0,3.2-0.3,3.3-1.1c0.2-0.7,0.8-1.1,1.7-1.1c1.1,0,1.1,0.1,0.3,0.3c-0.6,0.1-1.1,0.6-1.1,1c0,0.4-0.8,1-1.6,1.4
		c-0.9,0.4-1.6,1.1-1.6,1.7c0,2.3,4.7,3.1,6.8,1.3c0.6-0.6,1.9-1.4,2.7-2c3-1.7,2.5-5.5-0.8-5.5c-1.6,0-1.6-2.3,0-3.3
		c1.3-0.7,1.3-1.3,1.3-16.4V151l1.4,0.3c1.4,0.3,1.4,0.3,0.2-1c-1.1-1.1-1.1-1.3-0.3-1.8c0.6-0.4,0.6-0.6,0.2-0.6
		c-1.3,0-1.1-34.1,0.2-35.6c1.3-1.6,1.3-2.1-0.3-1.8c-1.3,0.3-1.3,0-1.3-45.2c0-44.8,0-45.5,1.3-44.9c1.7,0.9,3.3-0.6,2.7-2.7
		c-0.3-1.1-0.9-1.7-2.7-2c-1.9-0.4-2.4-0.7-2.5-2.3C195.4,12.3,194.4,11.5,193.6,12.3 M139,14.2c0,0.7-0.5,1.1-1.3,1.1
		c-0.8,0-1.3,0.4-1.3,1.1c0,0.6-0.6,1.1-1.3,1.4c-1.3,0.3-1.3,0.9-1.3,16.9c0,11.9-0.2,16.2-0.6,15.1c-0.8-2.1-2.5-2-3.8,0.3
		c-0.8,1.6-1.1,1.7-1.1,0.6c0-1.7-1.7-3.1-3-2.7c-7.6,2.3-8.8,5-2.5,5c3.5,0,3.6,0.1,3.5,1.3c-0.2,0.7,0,1.3,0.3,1.3
		s1.1,0.6,1.9,1.3l1.4,1.3l0.9-1.3c0.5-0.7,1.3-1.3,1.7-1.3c0.5,0,0.9-0.4,0.9-1s0.3,0,0.5,1.3c0.5,2.1,0.5,2.3,0.5,0.4
		c0-1.3,0.5-1.8,1.1-1.8c0.5,0,0.9-0.3,0.9-0.6c0-0.3-0.3-0.6-0.6-0.6c-0.9,0-0.8-2.7,0.2-3c1.4-0.4,1.1-15.2-0.3-15.9
		c-0.6-0.3-1.1-0.9-1.1-1.4c0-0.6,0.5-1,1.1-1.4c0.9-0.4,1.1-1.4,1.1-7.1c0-6.8,1.1-9.4,3.6-9.4c0.5,0,1.1-0.6,1.6-1.1
		c0.6-0.7,0.5-0.9-1.3-0.9C139.5,13.1,139,13.3,139,14.2 M198.5,26.3c-0.9,2.4-0.5,3.8,0.8,3.8c1.4,0,1.9-1,1.4-2.8
		C200.3,25.7,199,25.2,198.5,26.3 M198.5,35.4c-0.9,2.4-0.5,3.8,0.8,3.8c1.4,0,1.9-1,1.4-2.8C200.3,34.8,199,34.3,198.5,35.4
		 M130.2,40.2c-0.9,1.6-0.8,2.7,0.3,3.6c1.6,1.1,3.3-0.7,2.5-2.7C132.2,39.2,131.1,38.8,130.2,40.2 M198.5,44.5
		c-0.9,2.4-0.5,3.8,0.8,3.8c1.4,0,1.9-1,1.4-2.8C200.3,43.9,199,43.4,198.5,44.5 M79.1,50.9c-1.6,1.7,1.6,3.3,4.7,2.3
		c0.5-0.1,0.9-0.9,0.9-1.4C84.8,50,80.6,49.3,79.1,50.9 M198.4,53.7c-0.5,1.3,0.8,2.4,1.7,1.6c0.8-0.7,0.3-2.4-0.8-2.4
		C199.2,52.9,198.7,53.3,198.4,53.7 M76.5,54.4c-0.2,0.1-0.5,0.7-0.5,1.1c0,1.1,1.7,0.9,2.5-0.4C79.1,54,77.6,53.5,76.5,54.4
		 M87.8,55.2c0.2,0.6,0.5,1.1,0.8,1.1c0.3,0,0.6-0.6,0.8-1.1c0.3-0.9,0-1.1-0.8-1.1C87.8,54,87.5,54.3,87.8,55.2 M96,54.9
		c0.2,0.4,0.6,0.7,0.8,0.4c0.2-0.3,0.8-0.7,1.3-0.9c0.6-0.1,0.3-0.3-0.8-0.4C96,54,95.7,54.2,96,54.9 M106.7,54.6
		c0.5,0.3,1.1,0.9,1.3,1.1c0.3,0.4,0.6,0.3,0.8-0.6c0.3-1,0-1.1-1.3-1.1C106.4,54,106.2,54.2,106.7,54.6 M116,55
		c0.2,1.1,0.6,1.1,2-0.1c0.9-0.9,0.8-0.9-0.6-0.9C116.2,54,115.8,54.3,116,55 M129.7,58.9c0.6,0.1,1.3,0.7,1.4,1.3
		c0.2,0.7,0.3,0.7,0.2-0.1c0-0.7-0.6-1.1-1.4-1.3C128.9,58.7,128.9,58.7,129.7,58.9 M133.9,63c0,2.1,0.2,3.4,0.3,2.8
		c0.2-0.6,0.6-1,1.1-1c2,0,1.9-4.4-0.2-5.1C133.9,59.1,133.9,59.3,133.9,63 M69.2,68.2c0,1.4,0.2,3.1,0.3,3.8
		c0.6,2.1,1.4,0.9,1.4-2.3c0-2-0.2-2.7-0.6-2.1c-0.5,0.6-0.6,0.4-0.8-0.6C69.4,66.3,69.2,66.8,69.2,68.2 M134.1,71.9
		c0,2.1,0.2,3.3,0.3,2.4c0.2-0.9,0.6-1.6,1.1-1.6c1.3,0,1.1-0.7-0.3-3l-1.3-1.8L134.1,71.9 M70.5,76.5c-0.2,1.6-0.3,1.6-0.8,0.6
		c-0.5-0.9-0.6-0.6-0.6,1.3c0,2.6-0.2,2.7-1.9,1.8c-0.9-0.4-1.7-0.1-4.3,2.3c-3.9,3.7-3.9,3.7-0.3,6.4c1.6,1.3,5.8-1.8,5.8-4.3
		c0-0.6,0.3-1.1,0.8-1.1c0.9,0,0.2,4.6-1.1,5.7c-1.1,1.1-1.1,2,0,2.8c0.6,0.4,0.9,1.8,0.9,4.3s0.3,3.8,0.9,4.3
		c0.8,0.6,0.9,0.1,0.9-3.3c0-2.7-0.2-3.6-0.6-2.7c-0.3,0.9-0.6,0.9-0.6,0.3c0-0.4,0.3-1.1,0.6-1.4c0.5-0.4,0.6-4,0.5-9.7
		C70.6,78.9,70.5,75.5,70.5,76.5 M133.9,81.2c0,2.7,0.2,3.4,0.6,2.6c0.3-0.7,0.9-1.4,1.6-1.6c1.6-0.6,1.1-3.8-0.8-4.4
		C133.9,77.3,133.9,77.5,133.9,81.2 M217.4,84.5c-0.6,1.7,0.2,2,1.6,0.6s1.4-1.4,0.2-1.4C218.4,83.6,217.6,84,217.4,84.5
		 M251.9,84.6c1.4,1.4,0.8,5.4-0.8,5.7c-0.6,0.1-1.1,0.7-1.1,1.4c0,0.6-0.8,1.7-1.7,2.6c-0.9,0.7-1.4,1.6-1.3,1.7
		c0.2,0.1,0.5,0.1,0.5-0.3s0.5-0.7,0.9-0.7c0.5,0,1.1-0.4,1.4-1c0.5-1,1.4-2.3,3.5-4c1.1-1,1.6-5.8,0.5-5.8c-0.3,0-1.1-0.1-1.7-0.4
		C250.8,83.5,250.8,83.5,251.9,84.6 M484.4,84.5c-0.5,1.3,0.2,1.7,1.3,0.7c1.3-1.1,1.3-1.6,0-1.6C485.3,83.6,484.7,84,484.4,84.5
		 M519.5,84c0.5,0.1,1.3,0.7,1.7,1.3c0.8,0.9,0.8,0.9,0.6-0.1c-0.2-0.7-0.8-1.1-1.7-1.3C519.2,83.7,519,83.7,519.5,84 M134.1,90.3
		c0,2.1,0.2,3.1,0.3,2.3c0.2-0.9,0.6-1.6,1.1-1.6c1.4,0,1.1-2.4-0.3-3.6C133.9,86.4,133.9,86.4,134.1,90.3 M214.6,89
		c0,0.7,0.2,0.9,0.9,0.3c0.5-0.4,0.9-0.9,0.9-0.9c0-0.1-0.5-0.3-0.9-0.3S214.6,88.6,214.6,89 M212.5,90.9c-0.2,0.1-0.5,0.9-0.3,1.6
		c0,0.9,0.2,0.9,0.3,0.3c0.2-0.4,0.8-1.1,1.3-1.6c0.9-0.6,0.9-0.7,0-0.7C213.3,90.4,212.7,90.6,212.5,90.9 M484.2,120.3v29.9
		l-1.4-0.3c-1.3-0.3-1.3-0.3-0.3,0.4c0.6,0.4,1.4,2,1.7,3.7c0.5,1.8,0.6-8,0.6-30.3c0-18.2,0-33.1-0.3-33.1
		C484.4,90.4,484.2,103.8,484.2,120.3 M66.4,93.3c0.5,0.3,1.1,0.9,1.4,1.3c0.5,0.6,0.5,0.4,0.6-0.6c0-1-0.3-1.3-1.4-1.3
		S65.7,92.8,66.4,93.3 M133.9,98.7v3.1l1.6-1.4c2-1.7,1.9-4.4-0.2-4.7C134.1,95.6,133.9,95.7,133.9,98.7 M207.5,97.7
		c-0.2,0.1-0.5,0.9-0.3,1.6c0,0.9,0.2,0.9,0.3,0.3c0.2-0.4,0.8-1.1,1.3-1.6c0.9-0.6,0.9-0.7,0-0.7C208.3,97.3,207.7,97.4,207.5,97.7
		 M65.9,100.4c0,0.9,0.2,1.4,0.3,1.4s0.8,0.1,1.3,0.3c0.8,0.3,0.9,0,0.9-1.4c0-1.4-0.3-1.7-1.3-1.7C66.2,99,65.9,99.4,65.9,100.4
		 M244.2,99.7c0,0.6-0.5,1.3-1.1,1.6c-1.1,0.6-1.1,0.6,0,0.6c1.3,0,2-1.3,1.6-2.4C244.4,99,244.4,99,244.2,99.7 M70.3,103.7
		c0,1-0.2,1.1-0.6,0.4c-0.5-0.6-0.6,0-0.6,2.3c0,2,0.2,2.8,0.5,2.4c0.5-0.7,0.6-0.7,0.9,0c0.2,0.4,0.3-0.9,0.3-2.8s-0.2-3.6-0.3-3.6
		C70.3,102.4,70.3,102.9,70.3,103.7 M202.5,104.5c-0.2,0.1-0.5,0.9-0.3,1.6c0,0.9,0.2,0.9,0.3,0.3c0.2-0.4,0.8-1.1,1.3-1.6
		c0.9-0.6,0.9-0.7,0-0.7C203.2,104.1,202.6,104.2,202.5,104.5 M133.9,112.2v7.8l1.6-1.3c1.9-1.6,2-3.7,0.3-4.1
		c-1.6-0.4-1.9-5.8-0.3-5.8c0.6,0,0.9-0.6,0.9-1.4c0-0.9-0.3-1.3-0.6-1.1c-0.3,0.1-0.9-0.1-1.3-0.7
		C134.1,104.7,133.9,106.5,133.9,112.2 M238.4,107.2c-0.9,1.1-0.9,1.4-0.2,1.4c1.1,0,1.9-1.3,1.4-2.3
		C239.6,106.1,239,106.5,238.4,107.2 M294.1,106.8c-3.6,0.4-4.1,1.8-0.6,1.8c1.6,0,2.8-0.3,2.8-0.6c0-0.4,0.6-0.4,7.1,0.3
		c3,0.3,4.1-0.4,1.9-1.1C304.1,106.8,296.6,106.4,294.1,106.8 M435.9,106.9c-3.6,0.9-3.9,1.7-0.5,1.7c1.6,0,3-0.3,3-0.6
		c0-0.3,0.9-0.4,2-0.3c6.8,0.9,8.3,0.9,7.4,0C446.6,106.8,438.9,106.2,435.9,106.9 M538.9,106.8c-1.6,0.4-1.4,1.8,0.2,1.7
		c0.6,0,1.3-0.3,1.3-0.4c0-0.1,0.8-0.3,1.9-0.3s1.9,0.1,1.9,0.3s0.6,0.4,1.3,0.4c1.7,0.1,1.6-1.3-0.2-1.7
		C543.6,106.4,540.6,106.4,538.9,106.8 M614.2,106.8c-3.9,0.6-4.1,2.1-0.2,1.7c4.3-0.4,5.7-0.4,10.1,0c3.2,0.3,3.3,0.3,2.5-0.6
		C625.5,106.9,618.1,106.2,614.2,106.8 M394.1,107.8c-0.8,0.7-0.3,0.9,2.8,0.9c2.5,0,3.5-0.1,3.3-0.7
		C399.8,106.8,395.1,106.6,394.1,107.8 M67.6,109.8c-0.2,0.6,0,1.4,0.2,1.8c0.3,0.6,0.5,0.1,0.6-1.1
		C68.4,108.4,68.1,108.1,67.6,109.8 M277.7,109.5c-0.2,0.4-0.2,1,0.2,1.3c0.3,0.3,0.6,0.1,0.8-0.3c0.2-0.4,0.6-0.7,1.1-0.7
		s0.9-0.3,0.9-0.6C280.7,108.4,278.2,108.5,277.7,109.5 M317.6,109.3c0.6,0.3,1.4,0.9,1.7,1.3c0.6,0.9,1.4,0,0.9-1
		c-0.2-0.6-1.1-0.9-2-0.9C316.5,108.6,316.5,108.8,317.6,109.3 M346.4,109.3c-0.5,0.4-0.8,1.3-0.6,2.1c0,1.1,0.2,1.3,0.3,0.3
		c0.3-1.3,1.7-2.7,2.2-2.3c0.2,0.1,0.5,0,0.8-0.3C349.6,108.4,347.4,108.5,346.4,109.3 M375.2,109.2c0.9,0.3,1.9,1.1,2.4,1.8
		c0.6,1.1,0.6,1.1,0.6-0.4c-0.2-1.6-0.3-1.7-2.4-1.8C373.8,108.6,373.7,108.6,375.2,109.2 M402.8,109.3c0.5,0.4,0.8,3,0.8,7.3
		c0,4.6,0.2,6.1,0.6,5.3c0.3-0.7,0.8-1.3,1.1-1.3s0.3-2.1,0.2-4.7c-0.3-4.4-1.4-7.3-2.8-7.3C402.3,108.6,402.5,108.9,402.8,109.3
		 M421.9,109.5c-0.5,0.4-0.6,1-0.5,1.1c0.5,0.4,3-0.4,2.7-0.9c-0.2-0.3,0.2-0.6,0.8-0.7c0.8-0.1,0.5-0.3-0.5-0.3
		C423.4,108.6,422.3,109.1,421.9,109.5 M457.6,109.2c0.8,0.3,1.4,0.7,1.4,1.1c0,0.3,0.3,0.6,0.6,0.6c0.3,0,0.3-0.4-0.2-1.1
		c-0.5-0.6-1.4-1.1-2-1.1C456.4,108.6,456.4,108.8,457.6,109.2 M553.9,109.2c0.9,0.3,2,0.9,2.4,1.3c0.3,0.4,0.6,0.6,0.9,0.3
		c0.8-0.7-1.3-2.1-3.2-2.1h-2L553.9,109.2 M597.8,109.5c-0.6,1.4,0.2,1.6,1.7,0.3l1.4-1.1h-1.4C598.9,108.6,598.1,109.1,597.8,109.5
		 M637.6,109.3c0.6,0.3,1.4,0.9,1.7,1.3c0.6,0.9,1.4,0,0.9-1c-0.2-0.6-1.1-0.9-2-0.9C636.5,108.6,636.5,108.8,637.6,109.3
		 M270.7,111.8c-1.3,1.3-0.3,1.6,1.3,0.3c1.1-0.9,1.3-1.1,0.5-1.1C271.9,110.9,271.1,111.3,270.7,111.8 M325.2,111.6
		c0.6,0.3,1.4,0.9,1.7,1.3c0.6,0.9,1.4,0,0.9-1c-0.2-0.6-1.1-0.9-2-0.9C324.1,110.9,324.1,111.1,325.2,111.6 M381.1,111.8
		c-0.6,1.4,0.2,1.6,1.7,0.3l1.4-1.1h-1.4C382.2,110.9,381.4,111.3,381.1,111.8 M464.9,112c1.6,1.1,2.2,1.1,1.6-0.1
		c-0.2-0.4-0.9-0.9-1.7-0.9C463.3,110.9,463.3,110.9,464.9,112 M590.9,111.6c-0.5,0.4-0.8,0.9-0.8,1.1c0,0.9,1.6,0.4,2.7-0.7
		C594,110.8,592.3,110.3,590.9,111.6 M644.9,111.3c0.5,0.1,1.4,0.7,2,1.3c1.1,0.9,1.1,0.9,0.9-0.3c-0.2-0.9-0.8-1.1-2-1.3
		C644.7,111.1,644.4,111.1,644.9,111.3 M69.2,121.7c-0.2,10.2,0.3,15.5,1.1,15.1c0.3-0.1,0.6-5.5,0.5-12.4c0-6.7-0.3-11.5-0.5-11
		c-0.5,1.1-0.5,1.1-0.8,0C69.5,112.9,69.4,116.6,69.2,121.7 M233,114.2c-0.9,0.9-1.1,1.3-0.5,1.3c1.1,0,2.5-1.4,2.2-2.1
		C234.6,113,233.8,113.3,233,114.2 M411.3,114.3c-0.2,0.6-0.8,1.1-1.6,1.1c-0.8,0-1.1,0.4-1.1,1.3c0,1,0.2,1,0.3,0.3
		c0.2-0.6,0.6-1,0.9-1c0.3,0,1.3-0.6,2.2-1.4c1.1-1.1,1.3-1.4,0.5-1.4C412.1,113.2,411.5,113.8,411.3,114.3 M563.1,114.6
		c0.8,0.7,1.6,1.1,1.7,0.9c0.5-1.1-0.5-2.3-1.9-2.3C561.6,113.2,561.6,113.2,563.1,114.6 M345.9,141.1c0,14.8,0.2,20.9,0.2,13.5
		c0.2-7.4,0.2-19.6,0-27S345.9,126.3,345.9,141.1 M262.6,116.6c-0.2,0.6-0.8,1.3-1.6,1.4c-0.6,0.1-1.3,0.7-1.3,1.4
		c0,0.7-0.3,1.1-0.9,1.1c-0.5,0-0.9,0.6-1.3,1.1c-0.5,1.8,1.9,0.3,2.7-1.7c0.3-1,0.9-1.7,1.3-1.7s0.9-0.3,1.4-0.7s1.4-1,2-1.4
		c1.1-0.6,1.1-0.7-0.5-0.7C263.6,115.5,262.9,115.7,262.6,116.6 M471,115.9c0.5,0.1,2,1.4,3.3,2.7c1.3,1.3,2.4,2,2.4,1.7
		c0-1.1-4.1-4.8-5.4-4.7C470.4,115.6,470.4,115.6,471,115.9 M583,116.5c-0.5,0.6-1.3,1.1-1.9,1.4c-0.6,0.1-1.1,0.7-1.1,1.3
		c0,0.7,0.2,0.7,1.1-0.1c0.6-0.6,2-1.6,3-2.3c1.3-0.9,1.6-1.3,0.8-1.3C584.2,115.5,583.5,115.9,583,116.5 M652.9,116.5
		c0.6,1.4,2.7,2.1,2.2,0.9c-0.2-0.6-0.8-1.1-1.4-1.3C652.9,115.6,652.6,115.9,652.9,116.5 M65.9,118.6c0,0.9,0.2,1.4,0.3,1.4
		s0.8,0.1,1.3,0.3c0.8,0.3,0.9,0,0.9-1.4c0-1.4-0.3-1.7-1.3-1.7C66.2,117.2,65.9,117.6,65.9,118.6 M229.1,119.3
		c0,0.4-0.5,0.7-0.9,0.7c-0.5,0-0.9,0.4-0.9,1c0,0.9,0.2,0.9,1.4-0.3c0.8-0.7,1.3-1.4,0.9-1.7C229.2,118.9,229.1,119,229.1,119.3
		 M567.4,120.3c0,0.1,0.6,0.9,1.3,1.6l1.3,1.3l-0.2-1.4C569.6,120.6,567.4,119.2,567.4,120.3 M578.1,121.9c-0.6,1-0.6,1.1,0.3,0.9
		c0.6-0.1,1.3-0.4,1.3-0.4s0.3-0.4,0.3-0.9C580,120.2,578.9,120.4,578.1,121.9 M338.5,123.1c0.2,0.4,0.6,0.9,0.9,0.9
		c0.3,0,0.6,0.7,0.8,1.6c0.3,1.6,0.3,1.6,0.3-0.1c0.2-1.6-0.8-3.1-1.9-3.1C338.4,122.3,338.2,122.7,338.5,123.1 M658.1,122.6
		c0,0.1,0.6,0.9,1.3,1.6l1.3,1.3l-0.2-1.4C660.3,122.9,658.1,121.4,658.1,122.6 M133.9,125.8c0,2.3,0.2,2.7,0.6,1.7
		c0.3-0.7,0.8-1.4,1.3-1.6c1.1-0.6,0.8-1.7-0.6-2.4C133.9,122.9,133.9,123,133.9,125.8 M227,125.1c0.3,1.3,1.9,2.6,2.5,2.1
		c0.6-0.6-0.3-2-1.6-2.6C226.9,124.1,226.7,124.1,227,125.1 M255.1,125.4c-0.5,1.3,0,1.4,1.3,0.1c0.9-0.9,0.9-1,0.2-1
		C256,124.6,255.4,125,255.1,125.4 M479.2,125.4c0,0.4,0.3,1.1,0.8,1.3c0.5,0.3,1.1,0.9,1.3,1.3s0.3,0,0.3-1.1
		C481.4,124.8,479.2,123.4,479.2,125.4 M575.4,125c-0.2,0.1-0.5,0.9-0.5,1.6c0,1.1,0,1.1,1.3-0.1C577.8,124.8,577,123.4,575.4,125
		 M70.2,128.7c-0.2,0.7-0.3,0.3-0.3-1c0-1.3,0.2-1.8,0.3-1.3C70.3,127,70.3,128,70.2,128.7 M67.6,126.7c-0.2,0.3,0,1,0.2,1.6
		c0.5,1,0.5,1,0.5-0.4C68.4,126.3,68.1,125.8,67.6,126.7 M253.5,130c-2.2,2-1.1,6,1.7,6c1.3,0,1.3,0,0-0.9c-1.3-0.9-1.4-1.4-0.6-3.3
		C255.4,130,254.8,128.7,253.5,130 M297.1,129.7c0,0.3-0.9,0.9-2,1.1c-1.7,0.4-1.3,0.6,2.7,0.6c3,0,4.3-0.1,3.5-0.4
		c-0.6-0.3-1.4-0.4-1.7-0.3c-0.2,0.1-0.6-0.1-0.8-0.6C298.4,129,297.1,128.8,297.1,129.7 M434.6,130.3c-0.6,0.6-1.4,1-2,0.9
		c-0.9-0.3-0.9-0.1,0,0.3c0.5,0.3,1.3,0.6,1.7,0.6s1.3,0.4,1.7,0.9c1.3,1.1,2,1.1,2,0c0-0.4-0.5-0.9-1.3-1.1
		c-0.9-0.1-1.1-0.6-0.9-1.4C436.5,128.8,436,128.8,434.6,130.3 M444.1,130c0.2,0.9,0.8,1.1,2,1.3c1.1,0,1.4,0,0.6-0.1
		c-0.6-0.1-1.6-0.7-2-1.3C443.9,129,443.8,129,444.1,130 M616.4,130c-0.5,0.4-1.4,0.9-2,1.1c-0.6,0.1,0.9,0.3,3.5,0.3
		c2.5,0,4.3-0.1,3.6-0.3c-0.6-0.1-1.1-0.6-1.1-0.9s-0.3-0.4-0.6-0.1c-0.3,0.3-0.6,0.1-0.6-0.3C619.1,128.8,617.5,129,616.4,130
		 M229.7,130.1c0,0.3,0.6,1,1.4,1.6c1.3,1,1.4,1,0.9,0c-0.2-0.6-0.5-1.3-0.5-1.6c0-0.3-0.5-0.6-0.9-0.6S229.7,130,229.7,130.1
		 M572.8,131.8c-0.5,2.4,0.3,3.8,2.4,4.1c1.4,0.1,1.4,0.1-0.3-1c-1.1-0.9-1.6-1.4-1.1-1.8c1.3-1.4,1.4-3.3,0.5-3.3
		C573.5,129.7,572.9,130.4,572.8,131.8 M481.1,130.5c0,0.9-3.3,2.4-4.9,2.3c-0.8,0-1.6,0.1-1.7,0.4c-0.3,0.6,3.2,0.6,5.2,0.1
		c1.3-0.3,2.5-2.4,1.7-3C481.2,130.3,481.1,130.3,481.1,130.5 M303.4,132.2c0,0.4,0.5,0.9,0.9,0.9c0.5,0,0.9-0.3,0.8-0.7
		C304.8,131.4,303.4,131.2,303.4,132.2 M623.6,132.1c0.3,1,1.7,1.3,1.7,0.3c0-0.4-0.5-0.9-0.9-0.9
		C623.8,131.4,623.5,131.7,623.6,132.1 M133.9,134.9c0,1.7,0.2,2.7,0.3,2.3c0.2-0.4,0.8-0.7,1.3-0.7c0.9,0,1.9-2.4,1.3-3.7
		C135.8,130.5,133.9,132,133.9,134.9 M449,132.4c0,0.7,0.9,1.6,1.7,1.7c0.6,0.1,0.6-0.1,0.2-1C450.2,132,449,131.5,449,132.4
		 M288.8,134.2c-1.4,1.6-1.4,2.3,0.3,2.3c0.8,0,1.1-0.1,0.6-0.3c-0.6-0.3-0.6-0.4-0.2-1.1c0.3-0.4,0.6-1,0.5-1.4
		C290,133.4,289.4,133.5,288.8,134.2 M526.9,133.5c0.8,0.1,2,0.1,2.8,0c0.8-0.1,0.2-0.3-1.4-0.3
		C526.8,133.2,526.1,133.4,526.9,133.5 M608.8,133.7c-1.7,0.9-1.4,2.8,0.3,2.7c0.8,0,1.1-0.1,0.6-0.3c-0.6-0.3-0.6-0.4-0.2-1.1
		C610.7,134,610.1,133.1,608.8,133.7 M232.2,134.8c0,0.6,0.6,1.1,1.3,1.4c1.6,0.4,1.6-0.3,0.3-1.6
		C232.5,133.4,232.2,133.4,232.2,134.8 M463.6,134.5c-0.2,0.4-0.6,0.9-1.1,0.9c-1.4-0.1-2.4,0-2.4,0.6c0,0.3,0.5,0.4,0.9,0.3
		c0.9-0.3,3.6,0.7,4.3,1.7c0.6,0.9,1.4,0,0.9-1c-0.2-0.4-0.9-0.9-1.7-0.9c-1.4,0-1.4,0-0.3-1.1c0.6-0.7,0.8-1.1,0.3-1.1
		C464.4,133.7,463.9,134.1,463.6,134.5 M67,135.2c-1.6,0.4-1.4,2.8,0.2,3.1c1.1,0.3,1.3,0,1.3-1.7c0-1.1,0-1.8-0.2-1.8
		C68.1,134.9,67.6,135.1,67,135.2 M569.9,146.2c0,7.5,0.2,11.4,0.6,11.1c0.3-0.3,0.6-4.6,0.6-11.1s-0.3-10.8-0.6-11.1
		C570.1,134.8,569.9,138.6,569.9,146.2 M265.6,136.5c0,0.3,0.5,0.9,1.3,1.1c1.4,0.7,8.3,0.9,7.1,0.1c-0.5-0.3-1.4-0.4-2-0.3
		c-0.6,0.1-1.6-0.1-2.2-0.6C268.6,135.8,265.6,135.7,265.6,136.5 M585.7,136.8c0,1,2,1.4,6.5,1.4c3.3,0,3.5,0.1,3.3,1.1
		c-0.5,1.4,0.3,1.4,1.7-0.1c0.6-0.7,1.1-1.3,1.1-1.3s-1.3-0.1-3-0.3c-1.6-0.1-3.5-0.4-3.9-0.9c-0.8-0.6-0.8-0.6-0.5,0
		c0.3,0.4,0.2,0.7-0.2,0.7s-0.6-0.3-0.6-0.6c0-0.3-0.5-0.4-0.9-0.3c-0.5,0.1-0.9,0.1-0.9-0.1s-0.6-0.6-1.3-0.6
		C586.3,136.1,585.7,136.4,585.7,136.8 M275.2,139.2c0,0.9,0,1,0.2,0.6c0.2-0.6,0.6-1,1.1-1c1.4,0,1.6-0.9,0-1
		C275.7,137.8,275.4,138.1,275.2,139.2 M234.7,138.6c0,0.3,0.6,1,1.3,1.6c1.4,1.3,1.7,0.3,0.3-1.1
		C235.2,138.1,234.7,137.9,234.7,138.6 M388.3,139.4c-1.1,1.1-1.1,1.1,0.6,1c1.1-0.1,1.9-0.6,1.9-1.1
		C391.2,137.8,389.6,137.9,388.3,139.4 M69.8,139.5c-0.8,0.9-0.9,11.4-0.2,14.4c0.8,3.3,1.3,0.1,1.1-7.5
		C70.6,140.2,70.5,138.9,69.8,139.5 M133.9,148.2v7.7l1.6-1.3c1.9-1.4,2-3.6,0.3-4.8c-1.6-1.1-1.7-5.1-0.3-5.7
		c1.3-0.4,1.3-1.1-0.3-2.4l-1.3-1.1V148.2 M267.7,141.5c-0.2,0.6-0.5,1.3-0.8,1.6c-0.2,0.3,0.3,0,1.3-0.7c0.8-0.7,2-1.3,2.8-1.6
		c0.8-0.1,0.5-0.3-0.8-0.3C268.8,140.5,268,140.8,267.7,141.5 M475.9,142.9c1.4,1.3,3.3,3.1,4.1,4.1c1.4,1.6,1.6,1.6,1.6,0.4
		c0-0.7-0.6-1.6-1.3-2c-0.6-0.4-1.3-1-1.3-1.4c0-0.4-0.5-0.9-1.1-1.1c-0.6-0.1-1.4-0.9-1.9-1.4c-0.5-0.6-1.3-1-1.7-1
		C473.7,140.5,474.3,141.3,475.9,142.9 M587.7,141.5c-0.2,0.6-0.5,1.1-0.6,1.4c-0.5,0.7,2-0.3,3.2-1.4c1.1-1,1.1-1-0.5-1
		C588.8,140.5,588,140.9,587.7,141.5 M237.3,143.6c0,0.4,0.6,1.1,1.3,1.4c1.4,0.7,1.7-0.4,0.5-1.6
		C238.1,142.5,237.3,142.6,237.3,143.6 M264.2,143.3c-0.6,0.3-1.1,0.9-1.1,1.1c0,0.9,1.9,0.6,2.4-0.3
		C265.9,143.1,265.5,142.8,264.2,143.3 M584.1,143.9c-0.6,0.6-0.9,1.3-0.8,1.4c0.5,0.4,2.4-1.3,2.4-2
		C585.7,142.5,585.4,142.6,584.1,143.9 M67.2,144.8c-0.5,0.6-0.5,0.9-0.2,0.9s0.8,0.6,0.9,1.3c0.2,0.9,0.3,0.4,0.3-0.9
		C68.4,143.6,68.3,143.5,67.2,144.8 M70.2,146.9c-0.2,0.7-0.3,0.3-0.3-1c0-1.3,0.2-1.8,0.3-1.3C70.3,145.2,70.3,146.2,70.2,146.9
		 M401.1,145.2c0,0.9,0.3,1.7,0.9,1.8c1.1,0.4,2-0.3,1.1-0.9c-0.3-0.3-0.9-0.9-1.4-1.6C401.2,143.8,401.1,143.8,401.1,145.2
		 M260.1,146.2c-0.2,0.6-0.8,1.1-1.3,1.1c-0.5,0-1.1,0.4-1.3,1.1c-0.2,0.6-0.8,1.3-1.6,1.4c-0.6,0.1-1.3,0.7-1.3,1.3
		c0,0.9,0.5,0.7,1.9-0.9c1.1-1.1,2.8-2.7,3.8-3.6c1.4-1.1,1.6-1.6,0.8-1.6C260.9,145,260.3,145.6,260.1,146.2 M580.2,146.2
		c-0.2,0.6-0.8,1.1-1.3,1.1s-1.1,0.4-1.3,1.1c-0.2,0.6-0.8,1.3-1.6,1.4c-0.8,0.1-1.3,0.7-1.1,1.6c0,1.3,0,1.3,0.6,0.1
		c0.3-0.7,0.9-1.4,1.6-1.6c0.5-0.1,0.9-0.7,0.9-1.3c0-0.4,0.5-0.9,0.9-0.9c0.6,0,1.1-0.6,1.3-1.1c0.2-0.6,0.8-1.3,1.4-1.4
		c0.8-0.1,0.8-0.3-0.2-0.3C580.9,145,580.3,145.5,580.2,146.2 M239.8,148c0,0.4,0.6,1.1,1.3,1.7c1.4,1.1,1.9-0.4,0.5-1.7
		C240.6,147.2,239.8,147.2,239.8,148 M383.1,161c0,6.7,0.2,9.5,0.2,6.1c0.2-3.4,0.2-8.8,0-12.2C383.1,151.4,383.1,154.3,383.1,161
		 M404.2,150.2c0.3,0.6,0.9,1.1,1.3,1.1c0.9,0,0.6-1.6-0.3-2C403.6,148.9,403.4,148.9,404.2,150.2 M200.3,152.6
		c0.3,1,1.7,1.3,1.7,0.3c0-0.4-0.5-0.9-0.9-0.9C200.4,151.9,200.1,152.2,200.3,152.6 M406.3,152.7c0.2,0.7,0.8,1.3,1.6,1.3
		c0.8,0.1,1.4,0.6,1.4,1s0.6,0.9,1.3,1c1.3,0.3,1.3,0.3,0.5-1c-0.5-0.7-1.4-1.3-2-1.4c-0.6-0.1-1.6-0.6-2-1.1
		C406.1,151.7,406,151.7,406.3,152.7 M242.3,153.2c0,0.6,0.3,1,0.6,1s0.9,1,1.4,2.3c0.5,1.3,1.1,2.3,1.6,2.3c0.5,0,0.9,0.4,1.1,1
		c0.3,1,0.3,1,0.3,0c0-0.6-0.5-1.6-1.3-2.1c-0.6-0.6-1.3-1.6-1.3-2.1s-0.6-1.6-1.3-2.1C242.5,152.3,242.3,152.3,242.3,153.2
		 M299.5,155c-0.2,0.4-0.9,1-1.9,1.1c-1.3,0.3-1.3,0.3,0.3,0.3c1.6,0,3-1.1,2.2-2C300,154.3,299.6,154.4,299.5,155 M572.8,154.7
		c-0.2,0.3-0.3,0.7-0.2,0.9c0.5,0.4,1.7-0.3,1.7-1C574.3,154,573.2,154,572.8,154.7 M618,154.9c-0.3,0.4-0.9,1-1.4,1.1
		c-0.5,0.1,0,0.3,1.3,0.3c1.6-0.1,2.2-0.4,2.4-1.1C620.5,154,618.7,153.7,618,154.9 M202,156.6c0,0.9,0.3,1.7,0.9,1.8
		c1.1,0.4,2-0.3,1.1-0.9c-0.3-0.3-0.9-0.9-1.4-1.6C202.1,155.1,202,155.1,202,156.6 M413.7,157.1c0.3,0.9,1.1,1.3,2.4,1.4
		c1.7,0.1,1.7,0.1,0.5-0.6c-0.8-0.3-1.4-0.9-1.4-1c0-0.3-0.5-0.6-0.9-0.7C413.4,156,413.2,156.1,413.7,157.1 M292.7,157.6
		c-0.5,0.9-0.5,1.1,0.2,1.1c0.9,0,2.4-1.1,2.4-1.8C295.2,156,293.3,156.4,292.7,157.6 M613.1,157.6c-0.6,0.6-1.6,1.1-2,1.1
		s-0.8,0.4-0.8,0.9c0,1,4.1-1.1,4.7-2.4C615.4,156,614.3,156.3,613.1,157.6 M69.7,157.7c-0.8,0.9-0.8,2.7,0.3,7.3
		c0.3,1,0.2,1.1-0.3,0.6c-0.8-1-0.6,14.1,0.2,15.4c0.9,1.4,1.3-2.7,0.9-13.9C70.6,158.3,70.5,157,69.7,157.7 M133.9,161.8v3.1
		l1.6-1.6c0.8-0.9,1.6-1.8,1.6-2.3c0-0.4-0.8-1.1-1.6-1.7l-1.6-1V161.8 M417.1,159.6c-1.4,1.3-0.6,1.8,0.8,0.7
		c0.6-0.4,1.9-1,2.7-1.1c1.4-0.3,1.3-0.3-0.5-0.3C419,158.7,417.8,159.1,417.1,159.6 M250.8,161.3c-0.6,1-1.3,1.8-1.4,2
		c-0.2,0.1-0.5-0.1-0.8-0.6c-0.3-0.4-0.8-0.6-0.9-0.4c-0.2,0.1,0,0.7,0.6,1.1c0.6,0.4,1.3,1.3,1.4,2.1c0.5,2.3,2.5,3.8,2.7,2
		c0-0.7-0.2-1.4-0.5-1.4c-0.6,0-0.5-3,0.3-3.4c0.3-0.1,0.5-1,0.3-1.7C252.1,159.6,252.1,159.6,250.8,161.3 M204.5,161.8
		c0,0.4,0.5,1,0.9,1.1c1.4,0.4,1.6,0,0.2-1.1C204.7,161.1,204.5,161.1,204.5,161.8 M303.3,161.4c-0.2,0.1-0.5,0.9-0.3,1.6
		c0,0.9,0.2,0.9,0.3,0.3c0.2-0.4,0.8-1.1,1.3-1.6c0.9-0.6,0.9-0.7,0-0.7C304.1,161,303.4,161.1,303.3,161.4 M397,161.8
		c-0.5,0.4-0.9,1.4-0.9,2.1c0,0.7,0.2,0.9,0.3,0.6c0.5-1,3.9-2.6,6.1-2.8c3.2-0.4,2.7-0.7-1.1-0.7C399.2,161,397.6,161.3,397,161.8
		 M425.6,161.3c0,0.1,0.6,1,1.6,1.7c0.8,0.9,1.7,1.8,1.7,2.1c0.2,0.4,0.5,0.4,0.8,0.1c0.3-0.3,0.2-0.6-0.2-0.7
		c-0.5-0.1-0.8-0.7-0.8-1.3c0-1.1-1.1-2.3-2.4-2.3C426,161,425.6,161.1,425.6,161.3 M431.9,161.8c0,0.9,1.9,1.4,4.4,1.4
		c1.3,0,1.1-0.1-1.1-1.1C431.9,160.7,431.9,160.8,431.9,161.8 M623.3,161.4c-1.1,1-0.5,2.6,0.8,1.8c1.4-0.7,1.7-2.3,0.5-2.3
		C624.1,161,623.5,161.1,623.3,161.4 M571,162c-0.8,0.7-0.5,5.1,0.5,6.3c0.8,1,0.9,0.7,0.9-2.7C572.4,161.8,572.1,161,571,162
		 M67.5,162.7c-0.2,0.3-0.2,0.9,0.3,1.3c0.5,0.4,0.6,0.3,0.6-0.6C68.4,162,68.1,161.8,67.5,162.7 M446.9,164.1
		c0.2,0.4,0.6,0.9,1.1,0.9c0.3,0,0.2,0.4-0.3,1c-1.4,1.4-1.3,1.8,0.2,1.8c0.6,0,1.3-0.4,1.3-0.9c0-0.4,0.6-0.9,1.3-0.9
		s1.3-0.3,1.3-0.6s-0.6-0.6-1.3-0.6s-1.3-0.4-1.3-0.9c0-0.4-0.6-0.9-1.3-0.9C446.9,163.2,446.6,163.5,446.9,164.1 M291,166
		c0.6,0.1,1.3,0.7,1.4,1.3c0.2,0.7,0.3,0.6,0.3-0.3c0-1-0.3-1.3-1.4-1.3C290.3,165.7,290.2,165.7,291,166 M297.9,166.4
		c-0.5,1.3,0,1.4,1.3,0.1c0.9-0.9,0.9-1,0.2-1C298.9,165.5,298.2,166,297.9,166.4 M432.9,166c0.6,0.1,1.6,0.7,2,1.1
		c1.1,1,1.9,0.6,0.8-0.7c-0.5-0.4-1.6-0.9-2.5-0.9C432.1,165.7,431.9,165.7,432.9,166 M484.1,167.7c-0.2,1.4-0.9,3-1.6,3.7
		c-1.1,1.1-1.1,1.1,0.3,0.9l1.4-0.3v8.2v8.2h18.9H522v-7.7v-7.7l-2,0.4c-1.1,0.1-9.5,0.4-18.6,0.6l-16.5-0.3l-0.2-4.3
		C484.5,165.7,484.5,165.5,484.1,167.7 M610.7,166.1c0.5,0.3,1.1,0.9,1.4,1.3c0.5,0.6,0.5,0.4,0.6-0.6c0-1-0.3-1.3-1.4-1.3
		C610.2,165.5,610.1,165.7,610.7,166.1 M618,166.4c-0.6,1.3,0,1.4,1.6,0.1c1.4-1.1,1.4-1.1,0.2-1.1C619.1,165.5,618.3,166,618,166.4
		 M207.2,166.7c0.2,0.4,0.6,0.9,1.1,1c0.5,0.1,0.6-0.1,0.5-0.6c-0.2-0.4-0.6-0.9-1.1-1C207.2,166.1,207,166.2,207.2,166.7
		 M396.2,168.1c0.2,1.3,0.5,1.7,1.4,1.8c1.1,0.1,1.1,0.1,0.2-0.6c-0.6-0.4-1.3-1.3-1.4-1.8C396.2,166.8,396.2,167.1,396.2,168.1
		 M67,169.5c-1.6,0.7-1.6,5.4,0,5.8c1.4,0.6,1.6,0.3,1.4-3.3C68.1,169.4,68,169.1,67,169.5 M130,169.4c-1.4,0.3-1.6,3-0.2,3
		c0.5,0,1.1,0.4,1.3,1c0.2,0.6,0.3-0.3,0.3-1.7s0-2.7-0.2-2.7C131.1,169.1,130.6,169.2,130,169.4 M209.5,171.1c0,1,0.3,1.3,1.4,1.3
		c0.9,0,1.1-0.1,0.3-0.3c-0.6-0.1-1.3-0.7-1.4-1.3C209.7,170.1,209.7,170.2,209.5,171.1 M532.3,179.5l0.2,8.5l19.1,0.1
		c22.7,0.1,20.9,0.7,20.9-6.7c0-4.7,0-5,1.3-4.7c0.9,0.1,1.3,0.7,1.3,1.8c0,0.9,0.5,2,1.1,2.4c0.6,0.4,1.3,1.1,1.6,1.7
		c0.2,0.6,0.8,1,1.3,1s1.1,0.6,1.3,1.1c0.3,0.9,0.8,1.1,2.5,1.1c1.9,0,2.2,0.1,2.2,1.1c0,1,0.5,1.1,2.7,1.1c1.9,0,3,0.3,3.9,1.1
		c1.1,1,1.9,1.1,10.9,1.1c9.1,0,9.8,0,10.1-1.1c0.3-1,0.8-1.1,3.8-1.1c3,0,3.5-0.1,3.8-1.1c0.3-0.9,0.8-1.1,2.5-1.1
		c1.6,0,2.2-0.3,2.5-1.1c0.5-1.4,2.7,0.4,2.7,2.3c0,1.1,0.5,1.1,17.6,1.1H663v-7.4c0-7.4-0.9-10.4-2.5-8.1c-0.3,0.6-9,0.7-41.4,0.7
		c-40.2,0-45.7,0.1-44.6,1.7c0.6,0.9-0.3,0.6-1.4-0.3c-0.5-0.4-0.8-1.1-0.6-1.6c0.3-0.9-2.2-1.1-2.7-0.3c-0.3,0.3-6.8,0.6-17.2,0.6
		c-16.7,0-18.6-0.1-20.2-2C532.3,171.2,532.1,174.8,532.3,179.5 M252.1,172.9c-0.3,0.4-6.3,0.6-18.3,0.6c-11.2,0-18,0.1-18.3,0.6
		c-0.2,0.3-1.1,0.6-1.9,0.6c-2,0-2.4,3.8-0.3,4.4c0.9,0.3,1.3,0.7,1.3,2.3c0,1.4,0.3,2,1.3,2.3c0.9,0.1,1.3,0.9,1.4,2.4l0.2,2.1
		l21.1,0.1c20.5,0.1,21.1,0.1,21.9-1c1.3-1.6,4.6-1.6,4.6,0c0,1,0.5,1.1,2.5,1.1c1.7,0,3,0.4,3.8,1.1c1.1,1,2,1.1,10.9,1.1
		s9.8-0.1,11-1.1c0.9-0.7,2.2-1.1,3.9-1.1c2,0,2.7-0.3,3-1.1c0.3-0.9,0.8-1.1,2.5-1.1c1.6,0,2.2-0.3,2.5-1.1
		c0.8-2.4,2.7-1.8,2.7,0.9v2.6h17.3c20.2,0,22.5-0.6,18.9-4.8c-0.6-0.7-0.9-2.4-0.9-4.4c0-2.7-0.3-3.4-1.3-4c-0.6-0.4-1.3-1-1.3-1.3
		c0-0.4-14.3-0.4-43-0.3c-35,0.3-43.2,0.1-44.1-0.4C252.9,172.5,252.4,172.5,252.1,172.9 M345.6,180.3v8l18.7-0.1l18.7-0.1l0.2-7.1
		l0.2-7.1h-17c-10.6,0-17.5-0.3-18.3-0.7C345.8,171.8,345.6,172.1,345.6,180.3 M398.6,173.2c0,0.6,0.6,1,1.3,1.1
		c0.6,0.1,1.3,0.7,1.3,1.4c0,1.4,4.7,5.7,6.3,5.7c0.8,0,1.3,0.4,1.3,1.1s0.5,1.1,1.3,1.1c0.6,0,1.3,0.6,1.6,1.1
		c0.3,0.9,0.8,1.1,2.5,1.1c1.4,0,2.4,0.4,2.8,1.1c0.6,1,1.4,1.1,5,1.1c3.8,0,4.4,0.1,4.7,1.1c0.3,1.1,0.8,1.1,13.5,1.1
		c12.4,0,13.2,0,14.3-1.1c0.9-0.9,1.9-1.1,5.2-1.1c3.5,0,4.1-0.1,4.4-1.1c0.3-0.9,0.8-1.1,2.8-1.1c2,0,2.5-0.1,2.5-1.1
		c0-1,0.5-1.1,2.2-1.1s2.4-0.3,2.5-1.1c0.2-0.6,0.8-1.1,1.6-1.1s1.3-0.4,1.3-1.1s0.5-1.1,1.3-1.1c0.8,0,1.3-0.4,1.3-1.1
		c0-0.6,0.6-1.1,1.3-1.4c0.8-0.1,1.3-0.7,1.3-1.6c0-1-0.2-1.1-1.1-0.7c-0.8,0.4-1.4,0.3-1.9-0.1c-0.9-0.9-71.3-1-75.1-0.1
		c-1.9,0.4-2.5,0.3-3.6-0.7C398.9,172.6,398.6,172.5,398.6,173.2 M68,179.3c0,0.6-0.5,1-1.1,1s-0.9,0.7-0.9,2.6s0.3,2.6,0.9,2.6
		c1.1,0,1.9-3,1.4-5.4C68.1,179,68,178.8,68,179.3 M69.7,184.9c-1.4,1.6-3.8,2.6-3.8,1.6c0-1-1.9-0.6-2.5,0.6
		c-0.6,1-0.5,1.1,0.9,1.1c1.3,0,1.6,0.3,1.7,1.6c0.3,2.4,1.9,2.8,4.4,1.3c2.8-1.7,3.8-3,3.2-3.6c-0.3-0.3-0.5-1.1-0.2-2
		C73.8,183.2,71.6,182.9,69.7,184.9 M47,189.4c0,1,0.5,1.1,2.7,1.1c1.4,0,2.4-0.1,1.9-0.3c-0.5-0.1-0.8-0.7-0.8-1.1
		c0-0.6-0.6-0.9-1.9-0.9C47.5,188.3,47,188.6,47,189.4 M56.8,188.8c-0.2,0.3-0.2,0.6,0.2,0.6s-0.2,0.3-1.1,0.6
		c-1.3,0.4-0.8,0.4,1.6,0.4c2.4-0.1,3.2-0.3,3.3-1.1C61,188.1,57.6,187.9,56.8,188.8 M167.7,191.4c-0.6,0.4-1.6,0.6-2.2,0.4
		c-0.5-0.3-1.4-0.6-1.9-0.7s0.5-0.3,2.2-0.4C168.6,190.6,168.8,190.7,167.7,191.4 M177.7,191.4c-0.8,0.4-1.6,0.6-2.2,0.4
		c-0.5-0.3-1.4-0.6-1.9-0.7s0.5-0.3,2.2-0.4C178.7,190.6,178.8,190.7,177.7,191.4"/>
</g>
</svg>
