<?xml version="1.0" encoding="utf-8"?>
<!-- Generator: Adobe Illustrator 21.0.0, SVG Export Plug-In . SVG Version: 6.00 Build 0)  -->
<svg version="1.1" id="svg" xmlns="http://www.w3.org/2000/svg" xmlns:xlink="http://www.w3.org/1999/xlink" x="0px" y="0px"
	 viewBox="0 0 400 400" style="enable-background:new 0 0 400 400;" xml:space="preserve">
<style type="text/css">
	.st0{fill:#37DCAA;}
	.st1{fill:#1EAD84;}
	.st2{fill:#0C7B54;}
	.st3{fill:#23AA7B;}
	.st4{fill:#0A5239;}
</style>
<g id="svgg">
	<path id="path0" class="st0" d="M50.8,34.8c0,1,0.7,1.3,1.5,0.6c0.6-0.6,0.2-1.6-0.7-1.6C51,33.8,50.8,34.1,50.8,34.8 M25.9,34.8
		c-0.2,0.4,0,0.6,0.8,0.6c0.6,0,1-0.2,1-0.6c0-0.3-0.3-0.6-0.8-0.6C26.4,34.2,26,34.5,25.9,34.8 M38,34.7c0,0.8,0.3,1,1.2,0.8
		c1.1-0.3,1-1.3-0.2-1.3C38.4,34.2,38,34.4,38,34.7 M44.8,34.8c0,0.3,0.4,0.6,0.8,0.6s0.8-0.3,0.8-0.6c0-0.3-0.4-0.6-0.8-0.6
		S44.8,34.5,44.8,34.8 M18.7,40.8c-0.2,0.2-0.3,0.9-0.3,1.7c0,1.2,0.1,1.3,0.4,0.7C19.3,42.5,19.2,40.3,18.7,40.8 M6.8,58.8
		c-0.3,0.8-0.7,1-1.6,1H4v28.8v28.8h3.8c7.4,0,8.3-1.2,7.8-10c-0.1-2.4,0-4.4,0.3-5.3c0.2-0.6,0.2-1.2-0.2-1.7
		c-0.4-0.6-0.4-1.4-0.2-3.1c0.2-1.4,0.2-2.7,0-3.3c-0.2-0.6-0.2-1.7,0.1-3c0.2-1.1,0.3-2.5,0.1-3.1c-0.4-1.4-0.4-7.7,0-10.2
		c0.2-1.1,0.1-2.2-0.1-2.7c-0.7-1.3,0-3.8,1.1-4c1.1-0.2,1.2-1.3,0.1-1.3c-1.1,0-1.6-1.9-1.2-4c0.4-2.2,0.1-4.4-0.7-4.4
		c-0.3,0-0.6-0.4-0.6-1c0-1-0.1-1-1.8-0.8c-1.7,0.3-1.8,0.2-1.8-0.8C10.8,57.3,7.4,57.3,6.8,58.8 M19.2,61c0,0.2,0.4,0.4,0.8,0.4
		c0.4,0,0.8-0.2,0.8-0.4s-0.4-0.4-0.8-0.4C19.6,60.6,19.2,60.8,19.2,61"/>
	<path id="path1" class="st1" d="M25.3,34.3c-0.3,0.3-0.5,0.8-0.5,1.2c0,0.4-0.7,1.3-1.6,2c-0.9,0.7-1.6,1.6-1.6,2.1
		c0,0.6-0.2,0.7-1.2,0.6c-1.2-0.2-1.2-0.1-1.2,1.4c0,2,1.8,2.3,2.5,0.3c0.3-0.8,0.9-1.4,2-1.8c0.8-0.3,1.5-0.8,1.5-1
		c0-0.2,0.6-1,1.3-1.7c1.5-1.5,2.1-2.9,1.2-3.3C26.8,33.7,25.8,33.8,25.3,34.3 M31.8,35.1c-0.3,1.6-0.7,2-2.8,2.6
		c-1.1,0.3-1.5,0.7-1.3,1.1c0.1,0.3,0.2,0.7,0.2,0.8c0,0.1,0.6,0.2,1.3,0.2c2.9,0,6.2-5.5,3.6-5.9C32.3,33.8,32,34,31.8,35.1
		 M37.8,34.3c-0.1,0.3-0.2,1-0.3,1.7c-0.1,1-0.4,1.3-1.7,1.6c-2.2,0.6-2.3,1.9-0.1,2.1c1.3,0.1,1.6,0,2-0.9c0.3-0.6,1-1.3,1.6-1.6
		c1.3-0.7,1.9-2.5,1.1-3C39.5,33.6,38,33.7,37.8,34.3 M44.5,34c-0.3,0.1-0.4,0.6-0.2,1c0.3,1-0.9,2.3-2.5,2.7
		c-1.8,0.5-1.7,1.8,0.1,2c1.9,0.2,4.9-2.7,4.8-4.5C46.6,34,45.7,33.5,44.5,34 M27.6,34.8c0,0.4-0.4,0.6-1,0.6
		c-0.7,0-0.9-0.2-0.8-0.6c0.1-0.3,0.6-0.6,1-0.6C27.3,34.2,27.6,34.5,27.6,34.8 M40,34.8c0,0.6-1.4,1.1-1.8,0.7
		c-0.6-0.6-0.1-1.3,0.8-1.3C39.6,34.2,40,34.4,40,34.8 M46.4,34.8c0,0.3-0.4,0.6-0.8,0.6s-0.8-0.3-0.8-0.6c0-0.3,0.4-0.6,0.8-0.6
		S46.4,34.5,46.4,34.8 M50.3,35.7c-0.3,1.6-0.4,1.7-1.8,2c-2,0.4-2.2,0.5-1.7,1.4c0.6,1.1,3,1.1,3.4,0c0.1-0.4,0.5-0.8,0.8-0.8
		c0.3,0,0.8-0.6,1.2-1.4c0.6-1.4,1.2-1.8,1.6-1c0.2,0.4-0.4,2.2-1.4,4.1c-0.6,1.1-0.5,2.2,0.3,2.5c0.7,0.3,0.5,2.8-0.3,3.6
		c-0.6,0.6-0.4,2.2,0.3,2.9c0.6,0.6,0.5,2.7-0.3,3.5c-0.5,0.5-0.5,2.6,0,2.6c0.8,0,0.9,1.6,0.2,3c-0.6,1.4-0.6,1.5,0.1,3.1
		c0.7,1.6,0.7,1.6-0.2,3.2l-0.9,1.6l0.8,1.4c0.8,1.3,0.8,4.2,0,4.2c-0.7,0-0.7,1.2,0,2.1c0.9,1.2,1,1.9,0.1,3.7
		c-0.6,1.3-0.6,1.4,0.1,2.3c0.8,0.9,0.6,3.5-0.3,3.5c-0.6,0-0.5,2,0.2,2.7c0.8,0.8,0.8,2.2,0,3.2c-0.8,1.1-0.8,2.7,0.2,3.3
		c0.8,0.5,0.6,2.5-0.4,3.5c-0.6,0.6-0.5,2.5,0.2,2.8c0.8,0.3,0.8,2.3,0,3.3c-0.8,1-0.8,2.7,0,3.4c0.6,0.5,0.5,2.6-0.3,3.4
		c-0.6,0.6-0.4,2.1,0.2,2.6c0.8,0.7,0.8,1.4-0.2,2.4c-0.8,0.8-1.3,0.8-13.8,0.8h-13l-1.2-1c-0.7-0.6-1.5-1-1.8-1
		c-1,0-0.8-1.4,0.4-2.2c1.3-0.9,1.3-3.5-0.1-3.7c-0.7-0.1-0.9,0.1-1.1,1.5c-0.2,1.4-0.4,1.7-1.5,1.9c-1.7,0.3-1.8,2.4-0.1,2.6
		c0.8,0.1,1.2,0.5,1.5,1.4c0.7,2.1,0.7,2.1,16.7,2.1l15.1,0l1-1.2c0.6-0.7,1-1.4,1-1.6c0-0.2,0.3-0.4,0.6-0.4c0.3,0,0.7-0.2,0.9-0.5
		c0.2-0.3,0.1-0.4-0.1-0.2c-0.7,0.5-2.1-0.9-2.1-2.1c0-2.1,0.8-3.6,1.8-3.6c0.5,0,1-0.2,1-0.4s-0.5-0.4-1.2-0.4
		c-1.7,0-2.2-1.9-1.1-4.6c0.5-1.2,0.5-1.4,0-1.8c-1.3-1.1-0.3-5.6,1.3-5.6c1.4,0,1.2-0.7-0.3-0.9c-1.9-0.2-1.8-5.5,0.2-5.5
		c0.3,0,0.1-0.2-0.5-0.5c-1.6-0.8-1.3-5.5,0.4-5.5c0.4,0,0.8-0.2,1-0.4c0.1-0.2-0.1-0.4-0.5-0.4c-2.4,0-2.8-3.6-0.6-4.5l1.1-0.4
		l-1-0.3c-1.4-0.4-2-2.6-1.1-4.7c0.5-1.4,0.5-1.7,0-2.3c-0.6-0.8-0.4-3.9,0.3-4.8c0.3-0.4,0.3-0.8-0.2-1.4c-1.1-1.6-0.5-5.1,0.9-5.2
		c0.4,0,0.4-0.2-0.3-0.5c-1.1-0.5-1.5-2.5-0.9-4.7c0.3-1.2,0.3-1.9,0-2.4c-1-1.8-0.1-5.2,1.3-5.3c0.7,0,0.7-0.1-0.3-0.5
		c-1.4-0.6-1.8-2-0.9-3.7c0.9-1.8,0.8-1.8-0.4-3.1c-0.6-0.6-1.1-1.3-1.1-1.5c0-0.2-0.3-0.5-0.7-0.5c-0.4-0.1-0.6,0-0.5,0.1
		c0.3,0.3-0.6,1.3-1.2,1.3c-0.3,0-0.6-0.4-0.7-0.9C50.6,34.3,50.5,34.5,50.3,35.7 M22,44.3c0,2-0.4,2.7-1.7,2.7
		c-1.9,0-1.5,2.5,0.4,2.7c1.1,0.1,1.3,0.3,1.3,1.1c0,1.4-0.7,3-1.3,3c-1.2-0.2-1.5,0.1-1.5,1c0,0.9,0.2,1,1.4,1
		c1.3,0,1.4,0.1,1.4,1.2c0,1.8-0.7,2.8-1.8,2.8c-0.5,0-1,0.2-1,0.4s0.4,0.4,0.8,0.4c0.4,0,0.8,0.2,0.8,0.4s-0.4,0.4-0.8,0.4
		c-0.9,0-1.1,0.6-0.3,0.9c1.1,0.4,2.3-0.2,2.3-1c0-0.5,0.4-1,0.9-1.3c1.4-0.6,1.5-3.2,0.1-3.9c-1.3-0.6-1.3-1.6-0.1-2.1
		c1.5-0.6,1.6-4.2,0.1-4.2c-1.3,0-1.5-1.9-0.2-2.3c1.6-0.4,1.6-3.8,0.1-4C22.2,43.4,22,43.5,22,44.3 M5.7,58.1
		c-0.5,0.1-0.8,0.4-0.7,0.7c0.1,0.3-0.1,0.6-0.5,0.7c-0.4,0.1-0.1,0.2,0.6,0.1c1-0.1,1.4-0.3,1.7-1c0.2-0.5,0.2-0.9,0-0.8
		C6.7,57.9,6.2,58,5.7,58.1 M10.8,58.9c0,0.9,0.5,1.1,2.3,0.6c0.9-0.2,0.9-0.3,0.3-0.8c-0.6-0.5-0.8-0.5-1.2,0.1
		c-0.6,0.9-0.9,0.9-1.1,0C10.9,58.2,10.9,58.2,10.8,58.9 M14.4,60.4c0,0.6,0.2,1,0.6,1c0.6,0,1.2,2.3,0.8,3.4
		c-0.1,0.4-0.1,0.6,0.1,0.3c0.2-0.2,0.7-0.5,1-0.7c0.9-0.3,0.9-0.9-0.1-1.2c-0.6-0.2-0.8-0.5-0.8-1.5c0-1.1-0.7-2.4-1.4-2.4
		C14.5,59.4,14.4,59.9,14.4,60.4 M22,63.6c0,1.6-0.7,2.6-1.8,2.6c-0.8,0-1,0.2-1,1c0,1,0.7,1.4,2,1.4c0.6,0,0.8,0.3,0.8,1.2
		c0,1.3-0.9,2.4-2,2.4c-0.6,0-0.8,0.3-0.8,1.4c0,1.2,0.1,1.4,0.6,1.2c0.3-0.1,1-0.2,1.4-0.2c0.5,0,0.8-0.3,0.8-0.8
		c0-0.4,0.3-0.9,0.7-1.1c1.6-0.6,1.9-4,0.4-4.2c-1.1-0.2-1.4-1.4-0.4-1.7c1.6-0.5,1.8-4.2,0.3-4.2C22.2,62.6,22,62.8,22,63.6
		 M15.9,68.9c0.1,0.3,0.1,0.6,0.1,0.7c0,0.1,0.3,0.2,0.6,0.2s0.6-0.2,0.6-0.4S16.9,69,16.6,69c-0.3,0-0.6-0.1-0.7-0.3
		C15.8,68.5,15.8,68.6,15.9,68.9 M15.5,74.2c0.1,0.6,0.3,1.7,0.3,2.5c0,1.1,0.1,1.3,0.4,0.9c0.2-0.3,0.5-0.5,0.7-0.4
		c0.2,0.1,0.4-0.2,0.4-0.8c0-0.6-0.2-1-0.6-1c-0.3,0-0.8-0.5-1-1.1C15.3,73.4,15.2,73.4,15.5,74.2 M22,76.1c0,1.4-0.7,2.4-1.8,2.5
		c-1.5,0.3-1.1,2.1,0.5,2.3c0.8,0.1,1.3-0.1,1.3-0.4c0-0.3,0.5-0.9,1-1.4c0.7-0.7,1-1.3,1-2.5c0-1.5-0.1-1.6-1-1.6
		C22.2,75,22,75.2,22,76.1 M15.5,82c0.1,1.3,0.3,2.5,0.4,2.6c0.3,0.3,0.1-3.4-0.2-4.2C15.4,79.9,15.4,80.6,15.5,82 M22,82.1
		c0,1.5-0.4,2-1.6,2.2c-1.8,0.3-1.7,2.7,0.2,2.7c0.9,0,1.4-0.2,1.4-0.5c0-0.3,0.5-1,1-1.6c1.3-1.4,1.3-3.5-0.1-3.7
		C22.1,81,22,81.1,22,82.1 M22,87.9c0,2-0.4,2.7-1.6,2.7c-1,0-1.2,0.1-1.2,1.3c0,1.9,2.5,2,2.7,0.2c0.1-0.8,0.4-1.1,0.9-1.1
		c1.5,0,1.6-3.7,0.1-3.9C22.2,87,22,87.1,22,87.9 M15.9,88.6c0.2,1.3,1.3,2,1.3,0.8c0-0.4,0-0.9,0-1.1c0-0.2-0.3-0.4-0.7-0.6
		C15.9,87.5,15.8,87.6,15.9,88.6 M21.8,95.2c-0.2,1.6-0.4,1.8-1.3,1.9c-1.6,0.2-1.6,2.5,0,2.7c0.9,0.1,1.2-0.1,1.5-1.1
		c0.2-0.7,0.7-1.2,1-1.2c1.3,0,1.3-3.7-0.1-3.9C22.2,93.4,22.1,93.6,21.8,95.2 M15.6,94.1c0,0.5,0.6,1.1,1.1,1.2
		c0.8,0.2,0.6-1-0.3-1.2C16,94,15.6,94,15.6,94.1 M15.2,99c0,0.3,0.2,1,0.5,1.4c0.3,0.4,0.5,1,0.4,1.2c-0.1,0.3,0.1,0.6,0.4,0.7
		c0.5,0.2,0.6,0,0.5-0.8c0-0.6-0.3-1.1-0.6-1.2c-0.3-0.1-0.7-0.6-0.9-1.1C15.4,98.7,15.2,98.6,15.2,99 M22,100.3
		c0,1.8-0.5,2.6-1.5,2.8c-0.9,0.1-1.1,0.3-1.2,1.5c-0.1,1.4-0.1,1.4,1.3,1.3c1.2-0.1,1.4-0.3,1.4-1.1c0-0.6,0.4-1.1,1-1.4
		c1.4-0.6,1.3-3.2-0.1-3.7C22.1,99.5,22,99.6,22,100.3 M15.2,105.3c-0.1,0.8,0.8,2.5,1.4,2.7c0.3,0.1,0.5,0,0.5-0.4
		c0-0.3-0.3-0.6-0.6-0.6c-0.3,0-0.7-0.5-1-1.1C15.4,105.3,15.2,105,15.2,105.3 M15.6,113.3c0.2,1.4,0.2,1.4,0.4,0.4
		c0.1-0.6,0-1.3-0.2-1.5C15.5,111.9,15.4,112.4,15.6,113.3 M15.2,115.3c-0.1,1.2-3.3,2.1-7.3,2.1c-3.3,0-3.9,0.1-3.9,0.6
		c0,0.5,0.6,0.6,4.6,0.5c4.6-0.1,5.6,0.1,4.7,1c-0.3,0.3-0.5,1-0.5,1.6c0,1-2.8,4.3-3.7,4.3c-0.5,0-1.6,2.9-1.3,3.6
		c0.2,0.5,0.3,0.5,0.6-0.2c0.2-0.5,0.8-1,1.6-1.1c3.2-0.7,6.1-5.3,4.9-7.9c-0.7-1.5-0.6-2.2,0.2-3.2c0.3-0.4,0.5-0.9,0.4-1.2
		C15.3,114.9,15.3,114.9,15.2,115.3 M4,125.4c0,1.6,0.8,2.2,1.4,1.2c0.1-0.2,0.7-0.6,1.3-0.8c1.6-0.6,1.1-1.8-1-1.9L4,123.8V125.4"
		/>
	<path id="path2" class="st2" d="M64.3,5.8c-0.3,0.4-0.7,0.8-1,0.8c-1.7,0-2.3,1.8-2.3,6.6c0,4-0.1,4.7-0.7,5
		c-0.4,0.2-0.7,0.6-0.7,1s0.3,0.7,0.7,1c0.9,0.5,1.1,10.9,0.2,11.2c-0.6,0.2-0.7,2.1-0.1,2.1c0.2,0,0.4,0.2,0.4,0.4
		s-0.3,0.4-0.6,0.4c-0.4,0-0.6,0.4-0.6,1c0,0.5-0.1,1.2-0.2,1.6c-0.2,0.4,0.1,0.8,0.8,1c1.4,0.5,1.4,3.6,0,3.6c-1,0-1.1,2-0.2,3.5
		c1,1.6,1,2.1,0.2,2.1c-0.3,0-0.6,0.3-0.6,0.7c0,0.4-0.1,1.1-0.2,1.6c-0.2,0.7,0,1,0.8,1.3c1.3,0.5,1.5,2.4,0.3,3.3
		c-1.2,0.9-1.5,2.6-0.5,3.4c1,0.8,1.1,2.5,0.2,2.5c-0.3,0-0.6,0.3-0.6,0.7c0,0.4-0.1,1.1-0.2,1.6c-0.2,0.7,0,0.9,0.7,1
		c1.4,0.2,1.5,2.1,0.2,3.3c-1.3,1.2-1.2,4.8,0.2,4c0.2-0.1,0.4,0.2,0.4,0.8c0,0.6-0.2,1-0.6,1c-1,0-0.8,3.8,0.2,4.1
		c1.1,0.3,1,1.8-0.2,2.9c-1.2,1.1-1.3,2.7-0.1,3.5c0.9,0.6,0.8,0.7-0.3,2.6c-0.9,1.5-0.8,3.2,0.2,3.2c0.4,0,0.9,0.3,1,0.6
		c0.4,0.9-0.2,2.6-0.9,2.6c-0.3,0-0.7,0.5-0.8,1c-0.3,1.1,0.4,3,1,3c0.6,0,0.5,1.1-0.2,1.3c-0.9,0.4-0.8,3.1,0.2,4
		c1.1,0.9,1,2.4-0.2,3.4c-0.6,0.5-1,1.3-1,1.9c0,0.6,0.4,1.2,1,1.6c1.3,0.8,1.3,1.4,0,2.8c-0.6,0.6-0.9,1.4-0.8,1.7
		c0.1,0.3,0.2,0.8,0.2,1s0.2,0.4,0.4,0.4c0.2,0,1.2,0.6,2.1,1.3c2.9,2.3,2.4,2.3,17.1,2.3c14.4,0,15-0.1,16.1-1.9
		c0.2-0.3,0.7-0.7,1.2-0.9c0.9-0.3,0.9-0.5,0.8-5.5c-0.1-6,0.1-7.3,0.8-7.3c0.3,0,0.6-0.4,0.6-1c0-0.6-0.2-1-0.6-1
		c-0.3,0-0.7-0.4-0.8-1c-0.3-1.4,0.1-3.4,0.8-3.4c0.3,0,0.6-0.3,0.6-0.6s-0.2-0.6-0.6-0.6c-0.8,0-1.1-1.7-0.8-3.8
		c0.2-1.1,0.5-1.8,0.8-1.8c0.3,0,0.6-0.3,0.6-0.6s-0.3-0.6-0.6-0.6c-0.9,0-1.4-10.6-0.5-11.4c0.1-0.1,0.1-0.8-0.2-1.5
		c-0.5-1.7,0-4.7,0.7-4.7c0.3,0,0.6-0.3,0.6-0.6s-0.2-0.6-0.6-0.6c-0.7,0-0.9-1.1-0.8-5.4c0.1-5.4,0.1-5.4,0.8-5.4
		c0.4,0,0.6-0.4,0.6-1c0-0.6-0.2-1-0.6-1c-0.3,0-0.7-0.4-0.8-1c-0.3-1.4,0.1-3.4,0.8-3.4c0.3,0,0.6-0.4,0.6-0.8
		c0-0.4-0.3-0.8-0.6-0.8c-0.7,0-0.7,0.1-0.8-5.2c-0.1-4.4,0.1-5.6,0.8-5.6c0.3,0,0.6-0.4,0.6-1c0-0.6-0.2-1-0.6-1
		c-0.9,0-0.9-0.6-0.8-14.4c0.1-15.8,0.1-15.5-1.6-15.8C95,6.6,94.4,6.3,94.4,6C94.4,4.6,65.2,4.4,64.3,5.8 M24,34.6
		c-0.2,0.4-0.8,0.8-1.3,0.8c-0.8,0-3.5,2.5-3.5,3.3c0,0.8,1.6,0.3,2-0.7c0.2-0.6,0.7-1,1-1c0.3,0,0.5-0.2,0.4-0.4s0.1-0.5,0.6-0.6
		c0.9-0.2,2.4-2.1,1.7-2.1C24.6,33.8,24.2,34.2,24,34.6 M28.8,34.7c0.5,1.3,2.1,1.4,2.7,0.1c0.3-0.6,0.3-1,0.1-1
		c-0.2,0-0.5,0.4-0.6,0.8c-0.1,0.4-0.3,0.8-0.5,0.8c-0.2,0-0.4-0.4-0.5-0.8c-0.1-0.4-0.5-0.8-0.8-0.8C28.6,33.8,28.5,34,28.8,34.7
		 M34.4,34.7c0.5,1.3,2.4,1.3,2.9,0c0.4-1-1.1-0.9-1.7,0c-0.1,0.2-0.4,0.1-0.5-0.3c-0.1-0.3-0.4-0.6-0.6-0.6
		C34.2,33.8,34.2,34.1,34.4,34.7 M41.1,34.8c0.2,0.8,0.4,1,1.4,1c1.2,0,1.8-0.7,1.4-1.7c-0.1-0.3-0.3-0.2-0.5,0.3
		c-0.3,0.8-0.3,0.9-1,0.1C41.3,33.5,40.9,33.6,41.1,34.8 M47.1,34.7c0.6,1.8,3.4,1.2,2.8-0.5c-0.1-0.3-0.5-0.1-1,0.5
		c-0.5,0.5-0.9,0.8-0.9,0.7c0-0.2-0.1-0.5-0.1-0.7c0-0.3-0.3-0.5-0.5-0.6C46.9,33.8,46.9,34,47.1,34.7 M55.1,36.1
		c0.8,0.8,1.1,0.8,0.8-0.1c-0.1-0.3-0.5-0.6-0.8-0.6C54.5,35.4,54.5,35.5,55.1,36.1 M55.8,39.4c-0.3,2.2-0.2,2.6,1,2.9
		c0.7,0.2,0.8,0,0.8-1.3C57.4,37,56.3,35.9,55.8,39.4 M19.2,45.1c0,0.8,0.2,1,0.8,0.8c1-0.3,0.9-1.4-0.1-1.6
		C19.4,44.2,19.2,44.4,19.2,45.1 M57.1,44.9c-0.2,0.3-0.5,0.4-0.7,0.3c-0.4-0.3-0.8,0.7-0.8,2c0,0.9,1.4,2.1,1.9,1.7
		c0.1-0.1,0.1-1.2,0.1-2.3C57.4,45.2,57.3,44.6,57.1,44.9 M57.2,51c0,0.2-0.3,0.4-0.6,0.4c-1.3,0-1.4,2.5-0.1,3.3l1,0.6V53
		c0-1.3-0.1-2.4-0.2-2.4S57.2,50.8,57.2,51 M19.2,51.6c0,0.3,0.4,0.6,0.8,0.6s0.8-0.3,0.8-0.6c0-0.3-0.4-0.6-0.8-0.6
		S19.2,51.3,19.2,51.6 M113.1,55.7c-0.6,0.6-1.1,1.3-1.1,1.5c0,0.3-0.6,1.1-1.3,1.8c-0.7,0.8-1.5,1.8-1.7,2.4
		c-0.2,0.6-0.6,1.3-1,1.7c-0.4,0.4-0.9,1-1.3,1.4c-0.4,0.4-0.8,1.1-0.9,1.7c-0.2,0.6-0.6,1.3-1,1.7c-0.4,0.4-1,1-1.3,1.4
		c-0.4,0.4-0.8,1.2-0.9,1.8s-0.5,1.2-0.8,1.4c-2.1,1.3-3.7,27.7-1.7,27.7c0.3,0,0.3,0.1-0.1,0.4c-0.8,0.5,0.5,2,1.6,2
		c0.5,0,0.7,0.3,0.7,1c0,1,0.6,2.6,1.2,3c0.2,0.1,0.4,0.8,0.5,1.6c0.1,0.8,0.5,1.6,0.8,1.8c0.3,0.2,0.6,0.9,0.6,1.5
		c0,0.6,0.3,1.1,0.6,1.2c0.3,0.1,0.8,1,1,2c0.3,1.1,0.7,1.8,1,1.8c0.3,0,0.6,0.4,0.6,1c0,1,1.6,1.5,2.2,0.6
		c0.2-0.3,4.5-0.4,11.6-0.4c7.6,0,11.4-0.1,11.6-0.4c0.2-0.3,0.5-0.3,0.9,0.1c0.5,0.4,5.8,0.5,27.9,0.3l27.2-0.2v-17
		c0-15.7-0.1-17.1-0.7-17.7c-0.4-0.4-0.7-0.9-0.7-1.1c0-0.7-5.8-6.3-6.6-6.3c-0.4,0-0.6-0.2-0.6-0.3c0-0.5-1.9-1.3-3.4-1.3
		c-0.8,0-1.4-0.2-1.4-0.4c0-0.7-1.5-1-6.4-1.3c-2.8-0.2-5.6-0.4-6.4-0.5s-1.5,0-1.6,0.2c-0.1,0.2-2.4,0.4-5.1,0.4s-4.9,0.2-4.9,0.4
		c0,0.2-0.3,0.3-0.6,0.3c-0.3,0-0.6,0.2-0.7,0.4c-0.1,0.2-0.9,0.4-1.8,0.4c-1,0-2,0.3-2.6,0.8c-0.5,0.4-1.1,0.8-1.4,0.8
		c-0.3,0-0.8,0.3-1.1,0.8c-0.3,0.4-1,1-1.6,1.3c-0.6,0.3-1.1,0.6-1.1,0.8s-0.4,0.4-0.8,0.6c-0.5,0.1-1,0.8-1.2,1.4s-0.7,1.4-1.2,1.6
		c-0.4,0.2-0.8,0.7-0.8,1c0,0.3-0.4,0.9-0.8,1.4c-0.6,0.6-0.8,1.3-0.8,2.6c0,1-0.2,1.7-0.3,1.6c-0.5-0.3-0.3,1.7,0.2,2.2
		c0.6,0.6,1.4,0.7,5.4,0.7c2.5,0,3.6,0.2,4.1,0.6c0.3,0.3,1,0.6,1.5,0.6c2.2,0,3.8,0.2,3.7,0.5c-0.1,0.2-0.4,0.3-0.8,0.3
		s-0.6,0.2-0.6,0.5c0,0.4-0.7,0.6-1.9,0.8c-1.1,0.2-2.2,0.6-2.6,1c-0.4,0.4-0.9,0.7-1.2,0.6c-0.3-0.1-0.6,0.2-0.7,0.6
		c-0.1,0.5-0.5,0.8-1.1,0.8c-1,0-5.6,4.6-5.6,5.6c0,0.4-0.4,1-0.8,1.4c-0.6,0.6-0.8,1.2-0.8,3.1c0,1.3-0.1,2.3-0.3,2.3
		c-0.2,0-0.3,0.5-0.4,1.2c0,0.7,0.1,1.2,0.3,1.2s0.3,0.4,0.3,0.9c-0.1,1-1.4,0.7-1.5-0.3c-0.1-1.3-0.4-2-0.9-2.4
		c-0.6-0.4-0.9-1.4-1-2.9c0-0.3-0.3-0.5-0.6-0.5s-0.8-0.7-1-1.6c-0.3-0.9-0.7-1.6-0.9-1.6s-0.4-0.5-0.4-1.2c0-0.7-0.3-1.5-0.8-1.9
		c-0.4-0.4-0.8-1.2-0.8-1.8c0-0.7-0.3-1.3-0.8-1.5c-0.5-0.3-0.8-0.8-0.8-1.6c0-0.6-0.4-1.4-0.8-1.8c-0.4-0.4-0.8-1.2-0.8-1.7
		c0-0.6-0.3-1-0.8-1.2c-0.6-0.1-0.8-0.5-0.8-1.3c0-0.6-0.4-1.4-0.8-1.8c-0.4-0.4-0.8-1.2-0.8-1.7c0-0.5-0.4-1.3-0.8-1.6
		c-1.1-0.9-1.3-4.9-0.2-4.9c0.3,0,0.6-0.2,0.6-0.4s0.4-0.8,0.8-1.2c0.4-0.4,0.8-1,0.9-1.3s0.5-0.9,1-1.4c0.5-0.5,0.9-1.2,0.9-1.5
		c0-0.3,0.2-0.7,0.5-0.9c0.6-0.4,2.7-3.4,2.7-3.9c0-0.2,0.4-0.6,0.8-0.9c0.4-0.3,0.8-0.7,0.8-1.1c0-0.3,0.3-0.7,0.6-0.8
		c0.3-0.1,0.7-0.8,0.8-1.4c0.2-0.7,0.6-1.3,1.1-1.4c0.5-0.1,0.7-0.4,0.5-0.7c-0.2-0.2,0.2-0.9,0.8-1.4c0.6-0.5,1-1.3,1-1.7
		c0-0.4,0.3-0.9,0.7-1c1.1-0.3,1.5-3,0.6-4c-0.6-0.7-1.5-0.7-10.3-0.7h-9.7L113.1,55.7 M282.6,55.5c-0.8,0.9-0.8,1.4-0.7,25.7
		c0,17.5-0.1,24.2-0.3,22.7c-0.2-1.2-0.7-2.2-1-2.3c-0.3-0.1-0.6-0.4-0.6-0.7c0-0.8-5.1-6.3-5.6-6c-0.2,0.1-0.7-0.3-1.2-0.8
		c-0.6-0.7-1.3-1-2.3-1c-0.8,0-1.4-0.2-1.4-0.4c0-0.5-2.3-1.4-2.8-1.1c-0.2,0.1-0.4,0.1-0.4-0.2c0-0.4,0.6-0.6,1.3-0.5
		c0.2,0,0.6-0.2,0.8-0.5c0.3-0.4,1.3-0.6,3.5-0.7c1.6,0,3.2-0.2,3.4-0.3c0.2-0.1,0.9-0.3,1.4-0.3c1.4-0.1,1.3-0.1,2.4-1
		c1-0.9,0.9-2.7-0.2-3.3c-0.3-0.2-0.6-0.7-0.6-1.1s-0.4-1.1-0.8-1.5c-0.4-0.4-0.8-0.9-0.8-1.1c0-0.6-3-3.8-3.5-3.8
		c-0.3,0-0.9-0.4-1.3-1c-0.5-0.5-1-1-1.2-1c-0.2,0-0.8-0.4-1.4-0.8c-0.6-0.4-1.6-0.8-2.2-0.8c-0.7,0-1.4-0.3-1.7-0.7
		c-0.4-0.6-1.3-0.7-4.8-0.8c-2.4-0.1-4.8-0.2-5.3-0.4c-1.6-0.4-2.8-0.4-2.8-0.1c0,0.2-1.8,0.4-3.9,0.4c-3.1,0-6.9,0.6-5.1,0.8
		c1,0.1-1,0.8-2.2,0.8c-0.9,0-1.7,0.3-2.2,0.8c-0.4,0.4-1.1,0.8-1.5,0.8c-0.4,0-1.2,0.5-1.7,1c-0.5,0.6-1.1,1-1.4,1S234,77.6,234,78
		c0,0.3-0.4,0.7-0.8,0.8c-0.5,0.1-0.9,0.6-1,1c-0.1,0.5-0.4,0.8-0.6,0.8c-0.2,0-0.5,0.4-0.7,0.9c-0.2,0.6-0.4-0.5-0.4-3.7
		c0-3-0.2-4.8-0.5-5.1c-0.8-0.8-9.7-0.6-10.4,0.2c-0.3,0.4-1,1-1.6,1.3c-0.6,0.3-1.1,0.7-1.1,0.9c0,0.2-0.2,0.3-0.5,0.3
		c-0.3,0-0.8,0.3-1.2,0.7c-0.7,0.6-0.7,0.6-0.7-0.2c0-1.5-0.9-2.8-2.1-3.3c-1.7-0.6-16-0.6-16.6,0.1c-0.3,0.3-0.5,0.3-0.5,0.2
		c0-0.2-0.3,0-0.6,0.3c-0.5,0.5-0.6,3.6-0.7,22.2l-0.1,21.6l1.3,0.5c1,0.4,18.6,0.7,21.9,0.5c0.3,0,0.4-3.2,0.4-8.7
		c-0.1-11.1,0.1-12.8,1.1-13c0.4-0.1,0.8-0.5,0.8-0.8c0-0.3,0.3-0.7,0.8-0.9s0.9-0.5,1-0.8c0.2-0.5,1.1-0.6,4-0.6h3.8v1.8
		c0,1.8,0.7,3.8,1.3,3.8c0.2,0,0.3,0.4,0.3,1c0,0.6,0.3,1.1,0.7,1.2c0.4,0.1,0.9,0.8,1.1,1.5c0.3,0.9,0.7,1.3,1.3,1.4
		c0.5,0.1,1.2,0.6,1.6,1.1s0.9,0.9,1.2,0.8s0.8,0,1,0.3c0.9,0.9,2.2,1.4,3.6,1.5c1.1,0,1.2,0.1,0.3,0.2c-0.6,0.1-1.3,0.4-1.6,0.7
		c-0.4,0.3-2.3,0.6-5.2,0.7c-2.5,0.1-4.9,0.3-5.2,0.4c-1.2,0.3-3.2,1.5-3.3,2c-0.2,1.4,0.1,2.9,0.7,3.3c0.3,0.2,0.6,0.8,0.6,1.3
		c0,1.6,1.5,2.6,3.1,2.2c2.4-0.6,47.1-0.4,47.7,0.1c0.6,0.6,2,0,2-1c0-0.4,0.3-1,0.6-1.3c0.3-0.4,0.8-1.5,1-2.4
		c0.3-1.7,0.3-1.6,0.4,1.2l0,3l10.4-0.1c5.7,0,11.1-0.2,11.8-0.3l1.4-0.3v-12.8V91.8l1.3-1.2c0.9-0.9,1.6-1.2,2.7-1.2
		c2.6,0,2.5-0.6,2.5,13.6c0,7.1,0.1,13.1,0.3,13.4c1,1.4,6.3,1.7,23.2,1.4c1,0,0.7-35.2-0.3-36.3c-0.4-0.5-0.8-1.1-0.8-1.5
		c0-0.3-0.3-0.8-0.7-1.1c-0.4-0.3-0.9-1-1.2-1.6c-0.3-0.6-1-1.3-1.6-1.6c-0.6-0.3-1.3-0.9-1.6-1.2c-0.3-0.4-0.9-0.7-1.3-0.7
		c-0.4,0-0.8-0.2-0.8-0.4c0-0.6-2.3-1.1-5.7-1.3c-1-0.1-1.9-0.2-1.9-0.4c0-0.1-0.5-0.3-1.2-0.3s-1.2,0.1-1.2,0.3
		c0,0.3,0,0.3-3.4,0.4c-1.7,0.1-2.5,0.3-3,0.8c-0.4,0.4-1,0.7-1.5,0.7c-0.5,0-1.5,0.6-2.2,1.2l-1.4,1.2L305.6,66
		c-0.1-7.6-0.3-10.3-0.7-10.7C303.8,54.3,283.6,54.5,282.6,55.5 M19.2,58c0,0.9,0.1,1,0.8,0.6c0.9-0.5,0.8-1.3-0.2-1.5
		C19.4,57,19.2,57.2,19.2,58 M57.2,57.4c0,0.2-0.3,0.4-0.6,0.4c-1.4,0-1.2,2.8,0.2,3.6c0.8,0.4,0.8,0.3,0.8-2c0-1.3-0.1-2.4-0.2-2.4
		C57.3,57,57.2,57.2,57.2,57.4 M16,62c0,0.3,0.1,0.6,0.2,0.6s0.5,0.1,0.8,0.3c0.6,0.2,0.6,0.1,0.2-0.6C16.7,61.3,16,61.1,16,62
		 M19.2,64.2c0,1,0.1,1.1,0.8,1c0.4-0.1,0.8-0.4,0.8-0.7c0-0.3-0.4-0.7-0.8-1C19.3,63,19.2,63.1,19.2,64.2 M56.5,64.1
		c-1.1,0.9-1,2.3,0.2,3.1c0.8,0.5,0.8,0.5,0.9-1.7c0-1.2,0-2.2,0-2.2C57.4,63.4,57,63.7,56.5,64.1 M16,68c0,0.3,0.3,0.5,0.8,0.5
		c1-0.1,1-0.5,0.2-0.8C16.1,67.3,16,67.3,16,68 M19.2,70.4c0,0.7,0.2,0.9,0.8,0.7c0.4-0.1,0.8-0.4,0.8-0.7c0-0.3-0.4-0.6-0.8-0.7
		C19.4,69.5,19.2,69.7,19.2,70.4 M57,70.2c-0.1,0.2-0.4,0.3-0.6,0.2c-0.4-0.2-0.8,0.7-0.8,1.8c0,0.4,0.5,1,1,1.4l1,0.7V72
		C57.6,69.8,57.5,69.4,57,70.2 M16.7,71.7c-0.9,0.2-1,2.9-0.1,2.9c0.3,0,0.6-0.3,0.5-0.7c0-0.4,0.1-1.1,0.3-1.6
		c0.2-0.5,0.2-0.9,0.2-0.9C17.5,71.5,17.1,71.6,16.7,71.7 M366,71.8c-0.3,0.2-2.8,0.4-5.4,0.4c-4.3,0-4.9,0.1-5.8,0.8
		c-0.5,0.5-1.5,0.8-2.3,0.8c-0.8,0-1.6,0.3-2,0.8c-0.4,0.4-1,0.8-1.4,0.8s-1,0.4-1.4,0.8s-0.9,0.8-1.1,0.8c-0.4,0-2.2,1.2-3.5,2.5
		c-0.4,0.4-0.7,1-0.7,1.5c0,0.4-0.4,0.9-0.8,1c-0.4,0.1-0.8,0.6-0.8,1c0,0.4-0.4,1.2-0.8,1.6s-0.8,1.3-0.8,1.9
		c0,0.6-0.3,1.5-0.6,2.1c-1,2,0.4,2.6,5.8,2.8c1.8,0,3.2,0.3,3.2,0.5c0,0.2,0.3,0.3,0.6,0.2c0.3-0.1,0.6-0.1,0.6,0.2
		c0,0.2,0.2,0.4,0.4,0.4s0.3-0.2,0.1-0.5c-0.2-0.4-0.2-0.4,0.3,0c0.3,0.3,1.4,0.5,2.5,0.6c1,0.1,1.9,0.1,1.9,0.2
		c0,0.7-1.8,1.8-2.9,1.8c-1,0-1.7,0.3-2.2,0.8c-0.4,0.5-1.2,0.9-1.8,0.9c-0.6,0-1.1,0.3-1.3,0.8c-0.1,0.4-0.4,0.8-0.6,0.8
		c-0.2,0-0.6,0.1-0.8,0.1s-0.6,0.1-1,0.1c-0.3,0-0.6,0.4-0.8,0.9c-0.1,0.4-0.5,0.8-0.8,0.8c-0.4,0-0.6,0.3-0.6,0.6
		c0,0.3-0.3,0.8-0.7,1c-0.4,0.2-1,1.1-1.2,2c-0.3,0.9-0.7,1.7-1,1.9c-0.8,0.3-0.8,12.8,0,13.6c0.6,0.6,1.2,0.7,0.8,0.2
		c-0.7-1.1,2.9-1.3,28.4-1.2l26,0l0.1-17c0.1-16.5,0.1-17-0.7-17.8c-0.4-0.5-0.8-1.1-0.8-1.5c0-0.3-0.4-0.8-0.8-1.1
		c-0.4-0.3-0.8-0.7-0.8-0.9c0-0.4-2.1-2.4-2.5-2.4c-0.2,0-0.6-0.4-0.9-0.9c-0.3-0.5-0.8-0.9-1.1-0.9s-0.8-0.3-1.1-0.6
		c-0.4-0.3-1.6-0.7-2.6-0.9c-1.1-0.1-2-0.4-2.2-0.5c-0.6-0.8-2.2-1.1-6.4-1.2c-2.5,0-4.9-0.2-5.3-0.4
		C367.5,71.3,366.8,71.3,366,71.8 M19.2,77c0,0.6,0.2,0.7,0.8,0.6c0.4-0.1,0.8-0.5,0.8-0.8c0-0.3-0.4-0.6-0.8-0.6
		C19.5,76.2,19.2,76.5,19.2,77 M56.5,76.6c-1.3,0.5-1.1,2.5,0.2,2.7c0.8,0.1,0.9,0,0.9-1.5c0-0.9,0-1.6-0.1-1.6
		C57.4,76.2,57,76.4,56.5,76.6 M16,80.7c0,0.3,0.4,0.5,0.8,0.5c1,0,1.1-0.4,0.2-0.8C16.1,80.1,16,80.1,16,80.7 M56.8,82.1
		c-1.9,0.7-1.6,3.7,0.4,3.7c0.2,0,0.3-0.9,0.3-2c0-1.1,0-2-0.1-2C57.4,81.8,57.1,82,56.8,82.1 M17.2,82.9c0,0.3-0.3,0.5-0.6,0.5
		c-0.5,0-0.6,0.5-0.6,2c0,1.7,0.1,2,0.8,1.9c0.6,0,0.7-0.3,0.6-0.9c-0.3-1.1-0.3-1.1,0-1.9c0.2-0.4,0.2-1,0.1-1.4
		C17.4,82.7,17.3,82.6,17.2,82.9 M164,87.3c0.2,0.4,0.4,0.6,0.4,0.4c0.1-1.2,3.4,0.9,3.5,2.2l0.1,1.5l-3.9,0c-2.2,0-4.7,0.1-5.6,0.2
		c-1.9,0.2-2.1-0.2-0.9-1.5c0.4-0.5,0.8-1.1,0.8-1.3c0-0.3,0.8-0.6,1.8-0.8c1-0.1,2-0.5,2.3-0.8C163.2,86.4,163.5,86.5,164,87.3
		 M256.6,87.2c0.2,0.3,0.9,0.6,1.4,0.7c0.8,0.1,2.8,1.6,2.8,2.1c0,0.1-1,0.1-2.3,0s-3.3-0.1-4.6-0.1c-1.5,0-2.5-0.2-2.9-0.6
		c-0.3-0.3-0.8-0.6-1.1-0.6c-0.3,0-0.8-0.2-1.1-0.4c-0.5-0.4-0.5-0.4,0-0.2c0.4,0.1,0.9-0.1,1.3-0.6C251,86.4,255.8,86.2,256.6,87.2
		 M367.2,87c0,0.2,0.2,0.3,0.4,0.2s0.4-0.1,0.4,0.2c0,0.2,0.7,0.5,1.6,0.7c1.5,0.2,1.6,0.3,1.6,1.8v1.5l-4.1,0
		c-2.3,0-4.8,0.1-5.6,0.2c-1.7,0.2-2.2-1-0.7-1.8c0.4-0.2,0.8-0.7,0.8-1c0-0.3,0.7-0.6,1.6-0.8c0.9-0.1,1.9-0.5,2.2-0.9
		C366.2,86.5,367.2,86.4,367.2,87 M19.2,88.6c0,1,0.1,1.1,0.8,0.9c0.4-0.1,0.8-0.4,0.8-0.6c0-0.2,0-0.5,0-0.6c0-0.2-0.3-0.4-0.8-0.6
		C19.3,87.5,19.2,87.6,19.2,88.6 M56.5,88.6c-1.2,0.5-1.3,2.6-0.1,3.2c1.1,0.6,1.1,0.6,1.1-1.6c0-1.1,0-2-0.1-2
		C57.4,88.2,57,88.4,56.5,88.6 M16,90.6c0,0.2,0.3,0.4,0.6,0.4c0.3,0,0.7-0.2,0.8-0.4s-0.1-0.4-0.6-0.4C16.4,90.2,16,90.4,16,90.6
		 M16,93.3c0,0.2,0.4,0.5,0.8,0.6c0.5,0.1,0.8,0,0.7-0.3C17.3,93.1,16,92.8,16,93.3 M19.2,95.2c0,0.9,0.1,1,0.8,0.5
		c0.9-0.6,0.9-1.2-0.1-1.4C19.4,94.2,19.2,94.4,19.2,95.2 M57.2,94.6c0,0.2-0.4,0.4-0.8,0.6c-1.1,0.3-1.1,2.5,0,3.1
		c1.1,0.6,1.1,0.6,1.1-1.8c0-1.2-0.1-2.2-0.1-2.2C57.3,94.2,57.2,94.4,57.2,94.6 M16.7,96.2c-1,0.6-1,3.4,0,3.7
		c0.6,0.2,0.7,0,0.6-0.8c-0.1-0.5-0.4-0.9-0.6-0.9c-0.2,0-0.1-0.3,0.3-0.8C17.9,96.4,17.7,95.7,16.7,96.2 M19.2,101.5
		c0,0.7,0.1,1.1,0.3,0.8c0.2-0.2,0.6-0.6,1-0.7c0.9-0.3,0.6-0.9-0.5-1.2C19.3,100.3,19.2,100.5,19.2,101.5 M57.2,101
		c0,0.2-0.4,0.4-0.8,0.6c-1.4,0.4-0.8,3.1,0.6,3.1c0.3,0,0.5-0.7,0.5-2c0-1.1-0.1-2-0.2-2S57.2,100.8,57.2,101 M16.7,102.9
		c-1.1,0.2-1,3.1,0.1,3.4c0.8,0.2,1-0.9,0.3-1.6c-0.1-0.1-0.1-0.5,0.2-0.8C17.8,103.2,17.6,102.7,16.7,102.9 M371.2,107.2
		c0,2.5-0.1,3-0.8,3.4c-0.4,0.2-0.8,0.7-0.8,1c0,0.3-0.2,0.6-0.5,0.6c-0.3,0-1,0.4-1.6,0.8c-2.1,1.7-5.7,0.7-5.9-1.7
		c-0.2-2.3,0-3.9,0.5-3.9c0.3,0,0.9-0.3,1.2-0.8c0.4-0.4,1.2-0.9,1.8-1c0.6-0.1,1.2-0.5,1.3-0.8c0.2-0.5,3.1-1,4.2-0.7
		C371,104.2,371.2,105.2,371.2,107.2 M168,106.8c0,1.8-0.2,2.6-0.6,2.8c-0.3,0.1-0.7,0.8-0.8,1.4c-0.1,0.7-0.4,1.2-0.5,1.3
		c-1.2,0.1-1.9,0.4-2.3,0.9c-0.6,0.9-4.2,0.9-4.2,0c0-0.3-0.3-0.6-0.6-0.6c-0.4,0-0.6-0.6-0.7-1.7c-0.2-2.4,0-3.5,0.7-3.5
		c0.3,0,0.7-0.3,1-0.8c0.3-0.5,1-0.9,2.2-1c1-0.2,1.9-0.5,2.1-0.8c0.1-0.4,0.8-0.6,2-0.6h1.8V106.8 M19.2,108c0,1,0,1,0.8,0.3
		c0.4-0.4,0.8-0.8,0.8-1c0-0.2-0.4-0.3-0.8-0.3C19.4,107,19.2,107.3,19.2,108 M56.7,107.3c-1.4,0.4-1.4,3.5,0.1,3.8
		c0.6,0.2,0.7-0.1,0.7-2c0-1.2,0-2.1,0-2.1C57.4,107.1,57.1,107.2,56.7,107.3 M16.7,108.9c-0.6,0.1-0.7,0.6-0.7,2.2
		c0,1.8,0.1,2,0.6,1.5c0.5-0.4,0.6-0.3,0.6,0.6c0,0.6-0.2,1-0.6,1c-0.8,0-1,1.5-1,6.2c0,3.8,0,4.1-1,5.1c-0.6,0.6-0.9,1.3-0.8,1.5
		s0,0.6-0.3,0.7c-0.4,0.2-0.4,0.4-0.1,0.4c0.3,0,0.7-0.4,0.9-0.8c0.2-0.4,0.7-0.8,1-0.8c0.4,0,0.6-0.5,0.6-2c0-1.4,0.2-2,0.6-2
		c0.5,0,1-1.2,1-2.5c0-0.4-0.4-0.8-0.8-0.9c-0.6-0.2-0.8-0.6-0.8-2c0-1.3,0.2-1.9,0.8-2.2c0.9-0.5,1.1-3.1,0.3-3.9
		c-0.4-0.4-0.3-0.6,0-1.1C17.8,109.3,17.6,108.7,16.7,108.9 M250.4,109.8c1,0.5,2.9,0.7,6.9,0.8c1.4,0,1.9,0.2,1.9,0.6
		c0,0.3,0.4,0.6,0.8,0.6c0.4,0,0.8,0.2,0.8,0.4s-0.4,0.4-0.8,0.4c-0.4,0-0.8,0.3-0.8,0.6c0,0.9-8.1,0.9-8.9,0
		c-0.3-0.3-1.3-0.7-2.2-0.9c-0.9-0.1-1.6-0.4-1.6-0.6c0-0.2-0.5-0.8-1.1-1.4l-1.1-1.1l1-0.2C246.5,108.7,249.1,109.1,250.4,109.8
		 M19.2,118.9c0,5.4,0.1,5.8,0.8,6c0.5,0.1,0.8,0.6,0.8,1.2c0.1,2.2-0.2,2,3.4,2.1c1.2,0,2.1,0.2,2,0.4c-0.3,0.4,0.7,0.8,2,0.8
		c0.6,0,1-0.2,1-0.6c0-0.3,0.3-0.7,0.8-0.8c1.1-0.3,2.8,0.2,2.8,0.8c0,0.3,0.3,0.6,0.8,0.6c1.1,0,2.1-0.4,1.8-0.8
		c-0.3-0.5,1.6-0.9,2.8-0.6c0.6,0.2,0.9,0.4,0.8,0.8c-0.1,0.4,0,0.5,0.5,0.5c0.9,0,2.9-0.7,2.3-0.7c-0.7-0.1,0.8-0.8,1.6-0.8
		c0.5,0,1.3,0.4,1.8,0.8c0.5,0.4,1.2,0.7,1.5,0.6c0.3-0.1,0.8-0.2,1.1-0.2s0.5-0.2,0.4-0.4c-0.4-0.7,1.9-0.9,2.4-0.3
		c0.4,0.6,1.9,0.7,2.4,0.1c0.2-0.2,0.6-0.3,1-0.3c1.1,0,3.2-2.9,3.2-4.4c0-0.8-0.2-1.2-0.6-1.2c-0.3,0-0.7-0.2-0.8-0.4
		c-0.3-0.5,0.2-1.6,0.8-1.6c0.6,0,1-1.7,0.7-2.8c-0.1-0.4-0.4-0.8-0.8-0.8c-0.9,0-0.7-1.9,0.2-2.1c0.5-0.1,0.8-0.5,0.8-1.1
		c0-1.1-0.4-0.8-3.1,1.9l-1.7,1.7H38.5H24.2l-1.5-1c-0.8-0.5-1.5-1.4-1.6-1.9c-0.1-0.5-0.5-1-1-1.2l-0.9-0.3L19.2,118.9 M5.1,128.1
		c0.7,0.1,1.3,0.4,1.3,0.7c0,0.6,1.2,1.2,1.5,0.8c0.1-0.1,0-0.2-0.2-0.2s-0.5-0.4-0.6-0.8c-0.2-0.6-0.5-0.8-1.7-0.7
		C3.9,127.9,3.9,127.9,5.1,128.1 M10,128.1c-1.1,0.3-1.7,1.6-0.6,1.4c0.5-0.1,0.9-0.4,0.9-0.6s0.5-0.6,1.3-0.7
		c1.3-0.2,1.3-0.3,0.2-0.3C11.1,127.9,10.3,128,10,128.1"/>
	<path id="path3" class="st3" d="M24.6,34.8c-0.3,0.5-1,1.1-1.4,1.2c-0.5,0.1-0.7,0.4-0.6,0.6s0,0.4-0.4,0.4c-0.3,0-0.8,0.4-1,1
		c-0.2,0.6-0.7,1-1.2,1c-1.2,0-0.7,1,0.6,1.1c0.8,0.1,1.1,0,1.1-0.6c0-0.4,0.7-1.3,1.6-2c0.9-0.7,1.6-1.6,1.6-2
		c0-0.4,0.2-0.9,0.5-1.2c0.3-0.3,0.4-0.5,0.2-0.5S24.9,34.2,24.6,34.8 M27.9,34.1c0.8,0.3,0.1,1.9-1.3,3.2c-0.7,0.7-1.3,1.5-1.3,1.7
		c0,0.2-0.7,0.7-1.5,1c-1,0.4-1.7,1-2,1.8C21.4,42.7,21,43,20.2,43c-1.2,0-1.4,1-0.2,1.3c0.9,0.2,1.1,1.5,0.2,1.5
		c-0.3,0-0.8,0.4-1.2,1c-0.7,1.1-0.9,2.4-0.2,2c0.2-0.1,0.4-0.6,0.4-1c0-0.6,0.3-0.8,1.2-0.8c1.2,0,1.6-0.7,1.6-2.7
		c0-0.7,0.2-0.9,0.9-0.8c1.5,0.2,1.5,3.6-0.1,4c-0.6,0.1-0.8,0.5-0.8,1.3c0,1-0.1,1.1-1.4,0.9c-1.1-0.1-1.4,0-1.4,0.6
		c0,0.5,0.3,0.7,0.8,0.7c0.4,0,0.8,0.3,0.8,0.6c0,0.3-0.4,0.6-0.8,0.6c-0.5,0-0.8,0.3-0.8,0.8c0,0.5,0.3,0.8,1,0.8
		c1.1,0,1.8-1.1,1.8-2.9c0-0.8,0.2-1,1-1c1.4,0,1.3,3.6-0.1,4.2c-1.2,0.5-1.1,1.6,0.1,2.1c1.4,0.6,1.3,3.2-0.1,3.9
		c-0.6,0.2-0.9,0.7-0.9,1.3c0,0.9-0.7,1.1-2.3,0.9c-0.8-0.1-0.6,0.7,0.3,1.3c1,0.6,1,1.4,0,1.6c-1.1,0.3-1,1.1,0.2,1.1
		c1.1,0,1.8-1,1.8-2.6c0-0.8,0.2-1,1-1c1.5,0,1.3,3.7-0.3,4.2c-1,0.3-0.8,1.5,0.4,1.7c1.5,0.2,1.2,3.6-0.4,4.2
		c-0.4,0.1-0.7,0.6-0.7,1.1c0,0.5-0.3,0.8-0.8,0.8c-1.2,0-2,0.4-2,1c0,0.3,0.4,0.6,0.8,0.6c0.4,0,0.8,0.2,0.8,0.6
		c0,0.3-0.4,0.6-0.8,0.8c-1.2,0.3-1.1,1.5,0.1,1.2c1.2-0.3,1.9-1.2,1.9-2.6c0-0.9,0.2-1.1,1-1.1c0.9,0,1,0.2,1,1.6
		c0,1.2-0.3,1.9-1,2.5c-0.5,0.5-1,1.2-1,1.4c0,0.3-0.5,0.4-1.4,0.3l-1.4-0.2l0.1,1.8c0.1,2.8,2.6,2.3,2.7-0.5c0-0.9,0.2-1.1,0.9-1
		c1.4,0.2,1.4,2.3,0.1,3.7c-0.6,0.6-1,1.3-1,1.6c0,0.3-0.6,0.6-1.5,0.7L19,87.2l1.1,0.5c1.2,0.5,1.2,1.5-0.1,1.8
		c-1.2,0.3-0.9,1.1,0.4,1.1c1.2,0,1.6-0.7,1.6-2.7c0-0.7,0.2-0.9,0.9-0.8c1.5,0.2,1.5,3.9-0.1,3.9c-0.5,0-0.8,0.3-0.9,1.1
		c-0.1,0.9-0.3,1.1-1.3,1.1c-0.6,0-1.2,0.2-1.3,0.5c-0.1,0.3,0.1,0.5,0.4,0.5c1,0,1.2,0.8,0.3,1.5c-1.3,0.9-1.1,1.6,0.3,1.4
		c1.1-0.2,1.2-0.4,1.4-2c0.2-1.5,0.4-1.8,1.1-1.7c1.3,0.2,1.4,3.9,0.1,3.9c-0.3,0-0.7,0.6-1,1.2c-0.4,1.1-0.6,1.2-1.6,1.1
		c-1.5-0.2-1.6,0.4-0.2,0.9c1,0.4,1,1.2,0,1.2c-0.4,0-1,0.8-1,1.4c0,1.1,2.4-0.5,2.6-1.7c0.1-0.8,0.3-1.6,0.3-1.7
		c0-0.1,0.5-0.1,1,0.1c1.4,0.5,1.3,3-0.1,3.6c-0.6,0.3-1,0.8-1,1.4c0,0.7-0.3,0.9-1.3,1c-1.4,0.1-2.1,1.1-0.8,1.1c1,0,1.1,0.4,0,1.3
		c-0.9,0.8-1,1.5-0.2,1.5c1.3,0,1.8-0.6,2.1-2.1c0.2-1.3,0.4-1.6,1.1-1.5c1.4,0.2,1.4,2.9,0.1,3.7c-1.1,0.7-1.4,2.2-0.4,2.2
		c0.4,0,1.2,0.4,1.8,1l1.2,1h13c12.4,0,13,0,13.8-0.8c1-1,1-1.7,0.2-2.4c-0.7-0.6-0.8-2-0.2-2.6c0.7-0.8,0.9-2.8,0.3-3.4
		c-0.8-0.6-0.8-2.4,0-3.4c0.8-1,0.8-3,0-3.3c-0.7-0.3-0.8-2.2-0.2-2.8c1-1,1.2-3,0.4-3.5c-0.9-0.6-1-2.2-0.2-3.3
		c0.8-1,0.8-2.4,0-3.2C51.9,85,51.8,83,52.4,83c0.9,0,1.1-2.6,0.3-3.5c-0.8-0.8-0.8-1-0.1-2.3c0.8-1.8,0.8-2.5-0.1-3.7
		c-0.7-0.9-0.7-2.1,0-2.1c0.8,0,0.8-2.9,0-4.2l-0.8-1.4l0.9-1.6c0.9-1.6,0.9-1.6,0.2-3.2c-0.7-1.5-0.7-1.7-0.1-3.1
		c0.7-1.4,0.6-3-0.2-3c-0.5,0-0.5-2.1,0-2.6c0.7-0.8,0.9-2.9,0.3-3.5c-0.7-0.7-0.8-2.3-0.3-2.9c0.8-0.8,1-3.4,0.3-3.6
		c-0.7-0.3-0.8-1.4-0.3-2.5c1.1-2,1.7-3.7,1.4-4.2c-0.4-0.6,1,0.4,1.7,1.3c0.3,0.3,0.5,0.5,0.5,0.3c0.1-2.2-3.2-2.5-3.9-0.3
		c-0.2,0.7-0.7,1.2-1,1.2c-0.3,0-0.7,0.4-0.8,0.8c-0.4,1.1-2.8,1.1-3.4,0c-0.5-0.9-0.3-1,1.7-1.4c0.8-0.1,1.5-0.4,1.5-0.6
		c0-0.2,0.2-1,0.4-1.8c0.2-0.8,0.2-1.5,0-1.5c-0.2,0-0.4,0.4-0.5,0.9c-0.2,1.4-2.2,1.5-2.7,0.1c-0.5-1.4-0.7-1.3-0.5,0.3
		c0.2,1.9-2.8,4.8-4.8,4.6c-1.8-0.2-1.9-1.5-0.2-2c1.5-0.4,2.7-1.5,2.6-2.5c0-0.8,0-0.8-0.4-0.1c-0.6,1.1-2.7,0.9-2.8-0.2
		c-0.1-0.5-0.4-0.9-0.7-1c-0.5-0.1-0.5-0.1,0,0.2c0.8,0.6,0.2,2.4-1,3c-0.6,0.3-1.3,1-1.6,1.6c-0.5,1-0.8,1.1-2.1,1
		c-2.1-0.2-2.1-1.5,0.1-2.1c1.5-0.4,1.6-0.6,1.8-2.1c0.3-1.9,0.1-2.1-0.4-0.7c-0.3,0.7-0.7,1-1.4,1c-0.7,0-1.1-0.3-1.4-1
		c-0.5-1.3-0.7-1.3-0.5,0.2c0.4,2.7-5.2,6.5-6.1,4.2c-0.3-0.8-0.3-0.8,1.6-1.5c1.6-0.5,2.8-2.2,2.4-3.2c-0.1-0.3-0.3-0.1-0.5,0.4
		c-0.4,1.3-2.1,1.2-2.6-0.1c-0.2-0.6-0.6-1-0.9-1C27.6,33.9,27.5,33.9,27.9,34.1 M55.2,39.8c-0.7,1.6-0.3,3,1.1,3.5
		c0.9,0.4,1,0.4,0.3,0.5c-1.5,0.1-2.3,3.4-1.3,5.3c0.3,0.5,0.3,1.3,0,2.4c-0.6,2.2-0.2,4.1,0.9,4.7c0.6,0.3,0.7,0.4,0.3,0.5
		c-1.4,0.1-2,3.6-0.9,5.2c0.5,0.7,0.5,1,0.2,1.4c-0.8,0.9-1,4-0.3,4.8c0.5,0.7,0.5,1,0,2.3c-0.8,2.1-0.3,4.4,1.1,4.7l1,0.3l-1.1,0.4
		c-2.3,0.9-1.8,4.5,0.6,4.5c1,0,0.9-0.7-0.2-0.9c-1.4-0.2-1.5-2.2-0.1-2.7c1.4-0.5,1.4-2.2,0-3c-1-0.7-1.3-1.9-0.6-3
		c0.2-0.3,0.4-0.4,0.4-0.3c0,0.2,0.3,0.1,0.6-0.1c0.9-0.8,0.7-2.2-0.4-3c-0.6-0.4-1-1-1-1.6c0-0.6,0.4-1.2,1-1.6c0.6-0.4,1-1,1-1.4
		c0-0.4-0.4-1-1-1.4c-1.3-0.9-1.3-3.4,0-3.4c1.1,0,1.2-2.1,0-3c-0.6-0.5-1.1-1.1-1.1-1.5c0-1.1,0.4-1.9,1-1.9c0.5,0,1-0.8,1-1.8
		c0-0.3-0.4-0.7-1-1c-0.7-0.3-1-0.8-1-1.6c0-1,0.8-2.9,0.8-2c0,0.2,0.3,0.1,0.6-0.1c1-0.8,0.7-2.4-0.5-2.8c-1-0.4-1-0.6-0.8-2
		C56,38.3,55.9,38.2,55.2,39.8 M19.2,56.4c0,0.3,0.4,0.6,0.8,0.8c0.4,0.1,0.8,0.4,0.8,0.6c0,0.2-0.4,0.6-0.8,0.9
		c-1.1,0.6-1,1.2,0.2,1.2c1.1,0,1.8-1,1.8-2.8c0-1.1-0.1-1.2-1.4-1.2C19.7,55.8,19.2,56,19.2,56.4 M4,58.6c0,0.5,0.3,0.8,0.6,0.8
		c0.4,0,0.6-0.2,0.4-0.6c-0.1-0.4,0.1-0.6,0.7-0.7c0.6-0.1,0.5-0.2-0.4-0.2C4.2,57.8,4,58,4,58.6 M11.1,58.6c0.3,1,0.5,1,1.1,0.1
		c0.5-0.7,0.6-0.6,1.4,0.1l0.9,0.8l-0.8-0.9C12.8,57.5,10.8,57.4,11.1,58.6 M15.7,66.8c0,0.9,0.1,1.2,0.2,0.7c0.1-0.5,0.1-1.2,0-1.6
		C15.8,65.5,15.7,65.9,15.7,66.8 M18.4,68c0,1.6,0,1.6,0.4,0.4c0.2-0.7,0.2-1.3,0-1.6C18.5,66.6,18.4,67,18.4,68 M16.4,68.6
		c-0.5,0.3-0.5,0.4,0.1,0.4c0.4,0,0.8,0.2,0.9,0.5c0.1,0.3,0.2,0.2,0.2-0.2C17.6,68.4,17.1,68.2,16.4,68.6 M19.2,68.8
		c0,0.4,0.4,0.8,0.8,0.9c0.4,0.1,0.8,0.4,0.8,0.7c0,0.3-0.4,0.6-0.8,0.7c-1,0.3-1,1.1,0,1.1c1.1,0,2-1.1,2-2.4
		c0-0.9-0.2-1.2-0.8-1.2c-0.4,0-1.1-0.1-1.4-0.2C19.4,68.2,19.2,68.3,19.2,68.8 M15.7,73.1c-0.1,1.4,0.3,2.3,1,2.3
		c0.3,0,0.6,0.4,0.6,1c0,0.6-0.2,0.9-0.4,0.8c-0.2-0.1-0.5,0-0.6,0.2c-0.2,0.3,0,0.4,0.5,0.3c1.1-0.2,1.3-3.1,0.2-3.1
		c-0.6,0-0.8-0.3-1-1.3C15.8,72.2,15.7,72.2,15.7,73.1 M18.7,74.5c-0.1,0.1-0.3,0.6-0.2,1.1c0,0.8,0.1,0.8,0.4-0.1
		C19.2,74.5,19.1,74,18.7,74.5 M15.7,79.6c0,0.9,0.1,1.2,0.2,0.7c0.1-0.5,0.1-1.2,0-1.6C15.8,78.3,15.7,78.7,15.7,79.6 M56.5,80.9
		c-1.8,0.4-2.3,4.7-0.5,5.6c0.5,0.3,0.8,0.5,0.5,0.5c-2,0-2.1,5.4-0.1,5.5l1.4,0.1L56.7,92c-1.5-0.8-1.6-2.8-0.1-3.4
		c0.8-0.3,1-0.7,1-1.5c0-0.9-0.2-1.2-1-1.4c-1.6-0.4-1.4-2.9,0.3-3.6c0.4-0.1,0.7-0.5,0.7-0.9c0-0.3,0-0.6-0.1-0.6
		C57.4,80.7,57,80.8,56.5,80.9 M16.3,81.3c-0.6,0.6-0.3,2.1,0.4,2.1c0.4,0,0.6-0.2,0.4-0.6c-0.1-0.4-0.1-0.5,0.2-0.4
		c0.3,0.2,0.4,0,0.3-0.4C17.4,81.2,16.7,80.8,16.3,81.3 M15.8,86c0,1.2,0.2,1.6,1,1.9c0.7,0.3,0.9,0.2,0.8-0.2
		c-0.1-0.3-0.5-0.4-0.8-0.4c-0.5,0.1-0.7-0.3-0.8-1.4l-0.2-1.5L15.8,86 M15.7,92.3c-0.1,1.2,0.1,1.6,0.7,1.7
		c0.8,0.2,1.1,1.4,0.3,1.2c-0.3-0.1-0.5,0.2-0.6,0.6c-0.1,0.6,0,0.7,0.7,0.3c1.1-0.6,1.1-2,0.1-2.3c-0.5-0.1-0.8-0.6-0.9-1.7
		l-0.2-1.5L15.7,92.3 M18.7,92c-0.2,0.2-0.3,0.7-0.3,1.1c0,0.6,0.1,0.7,0.4,0.4c0.2-0.2,0.4-0.7,0.3-1.1C19.1,92,18.9,91.9,18.7,92
		 M55.2,94.7c-0.6,1.7-0.5,3.8,0.1,4.3c0.5,0.4,0.5,0.7,0,1.8c-1.1,2.6-0.7,4.6,1.1,4.6c1.4,0,1.5-0.5,0.3-1
		c-1.2-0.5-1.5-2.5-0.4-2.9c1.6-0.6,1.8-2.6,0.3-3.3c-1.2-0.6-1.4-2.7-0.3-3.2c1.5-0.5,1.7-1.7,0.3-1.7
		C55.9,93.4,55.6,93.7,55.2,94.7 M15.7,98.5c0,0.9,0.2,1.4,0.9,1.9c0.6,0.4,1,0.5,1,0.2c0-0.2-0.4-0.5-0.8-0.7
		c-0.5-0.1-0.8-0.6-0.9-1.5l-0.2-1.3L15.7,98.5 M17.2,101.9c0,0.4-0.2,0.6-0.6,0.4c-0.3-0.1-0.6,0-0.6,0.2c0,0.7,1.2,0.5,1.5-0.2
		c0.1-0.3,0.1-0.7,0-0.9C17.3,101.4,17.2,101.6,17.2,101.9 M15.7,104.7c-0.1,1.4,0.3,2.3,1,2.3c0.3,0,0.6,0.3,0.6,0.6
		c0,0.4-0.2,0.5-0.6,0.4c-0.4-0.1-0.6,0-0.6,0.4c0,1.2,1.4,0.5,1.5-0.7c0.1-0.9-0.1-1.2-0.7-1.3c-0.5-0.1-0.9-0.6-1-1.5
		C15.7,103.7,15.7,103.7,15.7,104.7 M18.7,104.8c-0.2,0.2-0.3,0.7-0.3,1.1c0,0.6,0.1,0.7,0.4,0.4c0.2-0.2,0.4-0.7,0.3-1.1
		C19.1,104.8,18.9,104.7,18.7,104.8 M55.2,107.5c-0.9,2.5,0.2,5.4,1.7,4.5c0.2-0.1,0.3,0,0.1,0.2c-0.2,0.3-0.5,0.5-0.9,0.5
		c-0.3,0-0.6,0.2-0.6,0.4c0,0.2-0.5,0.9-1,1.6l-1,1.2l-15.1,0c-16,0-16,0-16.7-2.1c-0.3-1-0.7-1.4-1.5-1.4c-1.3-0.2-1.4,0.6-0.1,1.1
		c0.6,0.2,1,0.7,1,1.2c0,0.5,0.6,1.2,1.5,1.8l1.5,1h14.3h14.3l2.4-2.3c2.5-2.4,3-3.6,1.6-3.9c-1.5-0.4-1.6-3.4,0-3.8
		c1.1-0.3,1-1.1-0.2-1.1C55.9,106.2,55.6,106.5,55.2,107.5 M15.7,111c0,0.8,0.1,1.1,0.2,0.7c0.1-0.4,0.1-1,0-1.4
		C15.8,109.9,15.7,110.2,15.7,111 M16.5,112.7c-0.7,0.7-0.6,1.5,0.1,1.5c0.4,0,0.6-0.4,0.6-1C17.2,112.1,17.1,112,16.5,112.7
		 M14.9,116.6c-0.7,0.9-0.7,1.6-0.1,3.1c1.2,2.6-1.7,7.2-4.9,7.9c-0.7,0.2-1.4,0.6-1.6,1.1c-0.3,0.7-0.4,0.7-0.6,0.2
		c-0.3-0.7,0.8-3.6,1.3-3.6c0.9,0,3.7-3.3,3.7-4.3c0-0.6,0.2-1.3,0.5-1.6c0.7-0.7,0-1.1-1.6-1c-0.6,0-2.6,0.1-4.4,0.1L4,118.6v2.6
		v2.6l1.7,0.1c2.8,0.2,2.3,1.8-1,3c-1.2,0.4-0.8,1,0.7,1c1.1,0,1.5,0.2,1.6,0.8c0.3,1.2,1.2,1.3,1.9,0.3c0.5-0.7,1.1-0.9,2.5-1
		c1-0.1,2.1-0.1,2.2-0.1c0.2,0,0.2-0.3,0.1-0.6c-0.1-0.3,0.2-1,0.7-1.6c1.1-1.1,1.5-4.1,1.1-7.4C15.5,116.5,15.3,116.2,14.9,116.6"
		/>
	<path id="path4" class="st4" d="M97.1,4.5c-0.2,0.2-0.3,0.7-0.3,1.2c0,1.1-0.6,1.2-0.9,0.1C95.7,5.2,95.4,5,94.5,5
		c-0.6,0-0.9,0.1-0.6,0.2s0.5,0.4,0.5,0.7c0,0.3,0.6,0.6,1.4,0.8c1.8,0.3,1.7,0,1.6,15.8C97.3,36.4,97.3,37,98.2,37
		c0.3,0,0.6,0.4,0.6,1c0,0.6-0.2,1-0.6,1c-0.8,0-0.9,1.2-0.8,5.6c0.1,5.3,0.1,5.2,0.8,5.2c0.3,0,0.6,0.4,0.6,0.8
		c0,0.4-0.2,0.8-0.6,0.8c-0.7,0-1.1,2.1-0.8,3.4c0.1,0.5,0.5,1,0.8,1c0.3,0,0.6,0.4,0.6,1c0,0.6-0.2,1-0.6,1c-0.6,0-0.6,0-0.8,5.4
		c-0.1,4.3,0.1,5.4,0.8,5.4c0.3,0,0.6,0.3,0.6,0.6s-0.2,0.6-0.6,0.6c-0.7,0-1.2,3-0.7,4.7c0.2,0.7,0.3,1.4,0.2,1.5
		c-0.8,0.8-0.3,11.4,0.5,11.4c0.3,0,0.6,0.3,0.6,0.6s-0.2,0.6-0.6,0.6c-0.3,0-0.7,0.7-0.8,1.8c-0.3,2.1,0.1,3.8,0.8,3.8
		c0.3,0,0.6,0.3,0.6,0.6s-0.2,0.6-0.6,0.6c-0.7,0-1.1,2.1-0.8,3.4c0.1,0.5,0.5,1,0.8,1c0.3,0,0.6,0.4,0.6,1c0,0.6-0.2,1-0.6,1
		c-0.8,0-0.9,1.4-0.8,7.3c0.1,5,0,5.1-0.8,5.5c-0.5,0.2-1.1,0.6-1.2,0.9c-1.2,1.8-1.8,1.9-16.1,1.9c-14.6,0-14.2,0.1-17.1-2.3
		c-0.9-0.7-1.8-1.3-2.1-1.3s-0.5-0.3-0.6-0.7c-0.1-0.4-0.2,1.9-0.2,5.1c0,5.6-0.3,6.8-1.3,6.8c-0.2,0-0.3-1.4-0.4-3.1
		c0-1.7-0.1-2.7-0.2-2.2c-0.1,0.5-0.4,0.9-0.7,0.9c-0.6,0-1.1,1.1-0.8,1.6c0.1,0.2,0.5,0.4,0.8,0.4c0.4,0,0.6,0.4,0.6,1.2
		c0,1.5-2.1,4.4-3.2,4.4c-0.4,0-0.8,0.1-1,0.3c-0.6,0.6-2,0.5-2.4-0.1c-0.5-0.7-2.8-0.4-2.4,0.3c0.1,0.2,0,0.4-0.4,0.4
		s-0.8,0.1-1.1,0.2c-0.3,0.1-1-0.2-1.5-0.6c-0.5-0.4-1.3-0.8-1.8-0.8c-0.9,0-2.3,0.7-1.6,0.8c0.6,0.1-1.4,0.7-2.3,0.7
		c-0.5,0-0.7-0.2-0.5-0.5c0.1-0.4-0.1-0.7-0.8-0.8c-1.1-0.3-3.1,0.1-2.8,0.6c0.2,0.4-0.7,0.8-1.8,0.8c-0.4,0-0.8-0.2-0.8-0.6
		c0-0.7-1.8-1.2-2.8-0.8c-0.4,0.1-0.8,0.5-0.8,0.8c0,0.3-0.4,0.6-1,0.6c-1.3,0-2.3-0.4-2-0.8c0.1-0.2-0.7-0.4-1.8-0.4
		c-1.7,0-2,0.1-1.9,0.7c0.1,0.7,1.2,0.7,15.3,0.8c12.9,0.1,15.2,0.2,15.5,0.7c0.5,0.9,3.3,0.8,3.9-0.2c0.6-0.9,2.3-1.5,2.3-0.9
		c0,0.2,0.3,0.7,0.6,1c0.9,0.9,2.2,0.1,2.2-1.2c0-1.2,1.4-1.4,1.7-0.2c0.2,0.7,0.6,0.8,3.1,0.8c2.2,0,2.8,0.1,2.2,0.4
		c-1.9,1.1-0.1,3.1,2.1,2.3c1.6-0.6,1.6-1.7,0.1-2.3c-0.9-0.3-0.8-0.4,1.3-0.4c1.3,0,2.1,0.1,1.7,0.2c-0.5,0.1-0.7,0.6-0.7,1.3
		c0,1.5,2,2,4.4,1.1c1.3-0.5,1.6-0.5,2.2,0c0.9,0.7,2.7,0.7,4.3,0c1.1-0.5,1.4-0.5,2.1,0c1,0.7,2.8,0.7,4.2-0.1
		c1.5-0.8,1.5-1.2,0.1-2l-1.1-0.6l1.9,0c1.6,0,2-0.2,2.1-0.8c0.1-0.5,0.5-0.8,1.1-0.8c0.7,0,0.7,0.1,0.2,0.2
		c-0.4,0.1-0.7,0.4-0.7,0.7c0,0.3-0.5,0.7-1,1c-0.6,0.3-1,0.8-1,1.2c0,1.6,3,2.2,4.3,0.9c0.4-0.4,1.2-1,1.7-1.4
		c1.9-1.2,1.6-3.9-0.5-3.9c-1,0-1-1.6,0-2.3c0.8-0.5,0.8-0.9,0.8-11.5v-11l0.9,0.2c0.9,0.2,0.9,0.2,0.1-0.7
		c-0.7-0.8-0.7-0.9-0.2-1.3c0.4-0.3,0.4-0.4,0.1-0.4c-0.8,0-0.7-24,0.1-25c0.8-1.1,0.8-1.5-0.2-1.3c-0.8,0.2-0.8,0-0.8-31.8
		c0-31.5,0-32,0.8-31.6c1.1,0.6,2.1-0.4,1.7-1.9c-0.2-0.8-0.6-1.2-1.7-1.4c-1.2-0.3-1.5-0.5-1.6-1.6C98.2,4.5,97.6,3.9,97.1,4.5
		 M62.4,5.8c0,0.5-0.3,0.8-0.8,0.8c-0.5,0-0.8,0.3-0.8,0.8c0,0.4-0.4,0.8-0.8,1c-0.8,0.2-0.8,0.6-0.8,11.9c0,8.4-0.1,11.4-0.4,10.6
		c-0.5-1.5-1.6-1.4-2.4,0.2c-0.5,1.1-0.7,1.2-0.7,0.4c0-1.2-1.1-2.2-1.9-1.9c-4.8,1.6-5.6,3.5-1.6,3.5c2.2,0,2.3,0.1,2.2,0.9
		c-0.1,0.5,0,0.9,0.2,0.9c0.2,0,0.7,0.4,1.2,0.9l0.9,0.9l0.6-0.9c0.3-0.5,0.8-0.9,1.1-0.9c0.3,0,0.6-0.3,0.6-0.7
		c0-0.4,0.2,0,0.3,0.9c0.3,1.5,0.3,1.6,0.3,0.3c0-0.9,0.3-1.3,0.7-1.3c0.3,0,0.6-0.2,0.6-0.4s-0.2-0.4-0.4-0.4
		c-0.6,0-0.5-1.9,0.1-2.1c0.9-0.3,0.7-10.7-0.2-11.2c-0.4-0.2-0.7-0.6-0.7-1s0.3-0.7,0.7-1c0.6-0.3,0.7-1,0.7-5
		c0-4.8,0.7-6.6,2.3-6.6c0.3,0,0.7-0.4,1-0.8C64.8,5.1,64.7,5,63.6,5C62.7,5,62.4,5.2,62.4,5.8 M100.2,14.3
		c-0.6,1.7-0.3,2.7,0.5,2.7c0.9,0,1.2-0.7,0.9-2C101.3,13.9,100.5,13.5,100.2,14.3 M100.2,20.7c-0.6,1.7-0.3,2.7,0.5,2.7
		c0.9,0,1.2-0.7,0.9-2C101.3,20.3,100.5,19.9,100.2,20.7 M56.8,24.1c-0.6,1.1-0.5,1.9,0.2,2.5c1,0.8,2.1-0.5,1.6-1.9
		C58.1,23.4,57.4,23.1,56.8,24.1 M100.2,27.1c-0.6,1.7-0.3,2.7,0.5,2.7c0.9,0,1.2-0.7,0.9-2C101.3,26.7,100.5,26.3,100.2,27.1
		 M24.4,31.6c-1,1.2,1,2.3,3,1.6c0.3-0.1,0.6-0.6,0.6-1C28,31,25.3,30.5,24.4,31.6 M100.1,33.6c-0.3,0.9,0.5,1.7,1.1,1.1
		c0.5-0.5,0.2-1.7-0.5-1.7C100.6,33,100.3,33.3,100.1,33.6 M22.7,34.1c-0.1,0.1-0.3,0.5-0.3,0.8c0,0.8,1.1,0.6,1.6-0.3
		C24.4,33.8,23.4,33.4,22.7,34.1 M29.9,34.6c0.1,0.4,0.3,0.8,0.5,0.8c0.2,0,0.4-0.4,0.5-0.8c0.2-0.6,0-0.8-0.5-0.8
		S29.7,34,29.9,34.6 M35.1,34.4c0.1,0.3,0.4,0.5,0.5,0.3c0.1-0.2,0.5-0.5,0.8-0.6c0.4-0.1,0.2-0.2-0.5-0.3
		C35.1,33.8,34.9,33.9,35.1,34.4 M41.9,34.2c0.3,0.2,0.7,0.6,0.8,0.8c0.2,0.3,0.4,0.2,0.5-0.4c0.2-0.7,0-0.8-0.8-0.8
		C41.7,33.8,41.6,33.9,41.9,34.2 M47.8,34.5c0.1,0.8,0.4,0.8,1.3-0.1c0.6-0.6,0.5-0.6-0.4-0.6C47.9,33.8,47.7,34,47.8,34.5
		 M56.5,37.2c0.4,0.1,0.8,0.5,0.9,0.9c0.1,0.5,0.2,0.5,0.1-0.1c0-0.5-0.4-0.8-0.9-0.9C56,37.1,56,37.1,56.5,37.2 M59.2,40.1
		c0,1.5,0.1,2.4,0.2,2c0.1-0.4,0.4-0.7,0.7-0.7c1.3,0,1.2-3.1-0.1-3.6C59.2,37.4,59.2,37.5,59.2,40.1 M18.1,43.8
		c0,1,0.1,2.2,0.2,2.7c0.4,1.5,0.9,0.6,0.9-1.6c0-1.4-0.1-1.9-0.4-1.5c-0.3,0.4-0.4,0.3-0.5-0.4C18.2,42.4,18.1,42.8,18.1,43.8
		 M59.3,46.4c0,1.5,0.1,2.3,0.2,1.7c0.1-0.6,0.4-1.1,0.7-1.1c0.8,0,0.7-0.5-0.2-2.1l-0.8-1.3L59.3,46.4 M18.9,49.6
		c-0.1,1.1-0.2,1.1-0.5,0.4c-0.3-0.6-0.4-0.4-0.4,0.9c0,1.8-0.1,1.9-1.2,1.3c-0.6-0.3-1.1-0.1-2.7,1.6c-2.5,2.6-2.5,2.6-0.2,4.5
		c1,0.9,3.7-1.3,3.7-3c0-0.4,0.2-0.8,0.5-0.8c0.6,0,0.1,3.2-0.7,4c-0.7,0.8-0.7,1.4,0,2c0.4,0.3,0.6,1.3,0.6,3c0,1.7,0.2,2.7,0.6,3
		c0.5,0.4,0.6,0.1,0.6-2.3c0-1.9-0.1-2.5-0.4-1.9c-0.2,0.6-0.4,0.6-0.4,0.2c0-0.3,0.2-0.8,0.4-1c0.3-0.3,0.4-2.8,0.3-6.8
		C19,51.3,18.9,48.9,18.9,49.6 M59.2,52.9c0,1.9,0.1,2.4,0.4,1.8c0.2-0.5,0.6-1,1-1.1c1-0.4,0.7-2.7-0.5-3.1
		C59.2,50.2,59.2,50.3,59.2,52.9 M112.2,55.2c-0.4,1.2,0.1,1.4,1,0.4c0.9-1,0.9-1,0.1-1C112.8,54.6,112.3,54.9,112.2,55.2
		 M134.1,55.3c0.9,1,0.5,3.8-0.5,4c-0.4,0.1-0.7,0.5-0.7,1c0,0.4-0.5,1.2-1.1,1.8c-0.6,0.5-0.9,1.1-0.8,1.2c0.1,0.1,0.3,0.1,0.3-0.2
		c0-0.3,0.3-0.5,0.6-0.5c0.3,0,0.7-0.3,0.9-0.7c0.3-0.7,0.9-1.6,2.2-2.8c0.7-0.7,1-4.1,0.3-4.1c-0.2,0-0.7-0.1-1.1-0.3
		C133.4,54.5,133.4,54.5,134.1,55.3 M281.7,55.2c-0.3,0.9,0.1,1.2,0.8,0.5c0.8-0.8,0.8-1.1,0-1.1C282.3,54.6,281.9,54.9,281.7,55.2
		 M304,54.9c0.3,0.1,0.8,0.5,1.1,0.9c0.5,0.6,0.5,0.6,0.4-0.1c-0.1-0.5-0.5-0.8-1.1-0.9C303.8,54.7,303.7,54.7,304,54.9 M59.3,59.3
		c0,1.5,0.1,2.2,0.2,1.6c0.1-0.6,0.4-1.1,0.7-1.1c0.9,0,0.7-1.7-0.2-2.5C59.2,56.6,59.2,56.6,59.3,59.3 M110.4,58.4
		c0,0.5,0.1,0.6,0.6,0.2c0.3-0.3,0.6-0.6,0.6-0.6c0-0.1-0.3-0.2-0.6-0.2S110.4,58.1,110.4,58.4 M109.1,59.7
		c-0.1,0.1-0.3,0.6-0.2,1.1c0,0.6,0.1,0.6,0.2,0.2c0.1-0.3,0.5-0.8,0.8-1.1c0.6-0.4,0.6-0.5,0-0.5C109.6,59.4,109.2,59.5,109.1,59.7
		 M281.6,80.4v21l-0.9-0.2c-0.8-0.2-0.8-0.2-0.2,0.3c0.4,0.3,0.9,1.4,1.1,2.6c0.3,1.3,0.4-5.6,0.4-21.3c0-12.8,0-23.3-0.2-23.3
		C281.7,59.4,281.6,68.8,281.6,80.4 M16.3,61.4c0.3,0.2,0.7,0.6,0.9,0.9c0.3,0.4,0.3,0.3,0.4-0.4c0-0.7-0.2-0.9-0.9-0.9
		C16,61,15.9,61.1,16.3,61.4 M59.2,65.2v2.2l1-1c1.3-1.2,1.2-3.1-0.1-3.3C59.3,63,59.2,63.1,59.2,65.2 M105.9,64.5
		c-0.1,0.1-0.3,0.6-0.2,1.1c0,0.6,0.1,0.6,0.2,0.2c0.1-0.3,0.5-0.8,0.8-1.1c0.6-0.4,0.6-0.5,0-0.5C106.4,64.2,106,64.3,105.9,64.5
		 M16,66.4c0,0.6,0.1,1,0.2,1s0.5,0.1,0.8,0.2c0.5,0.2,0.6,0,0.6-1c0-1-0.2-1.2-0.8-1.2C16.2,65.4,16,65.7,16,66.4 M129.2,65.9
		c0,0.4-0.3,0.9-0.7,1.1c-0.7,0.4-0.7,0.4,0,0.4c0.8,0,1.3-0.9,1-1.7C129.3,65.4,129.3,65.4,129.2,65.9 M18.8,68.7
		c0,0.7-0.1,0.8-0.4,0.3c-0.3-0.4-0.4,0-0.4,1.6c0,1.4,0.1,2,0.3,1.7c0.3-0.5,0.4-0.5,0.6,0c0.1,0.3,0.2-0.6,0.2-2
		c0-1.4-0.1-2.5-0.2-2.5S18.8,68.2,18.8,68.7 M102.7,69.3c-0.1,0.1-0.3,0.6-0.2,1.1c0,0.6,0.1,0.6,0.2,0.2c0.1-0.3,0.5-0.8,0.8-1.1
		c0.6-0.4,0.6-0.5,0-0.5C103.2,69,102.8,69.1,102.7,69.3 M59.2,74.7l0,5.5l1-0.9c1.2-1.1,1.3-2.6,0.2-2.9c-1-0.3-1.2-4.1-0.2-4.1
		c0.4,0,0.6-0.4,0.6-1c0-0.6-0.2-0.9-0.4-0.8c-0.2,0.1-0.6-0.1-0.8-0.5C59.3,69.4,59.2,70.7,59.2,74.7 M125.5,71.2
		c-0.6,0.8-0.6,1-0.1,1c0.7,0,1.2-0.9,0.9-1.6C126.3,70.4,125.9,70.7,125.5,71.2 M160.9,70.9c-2.3,0.3-2.6,1.3-0.4,1.3
		c1,0,1.8-0.2,1.8-0.4c0-0.3,0.4-0.3,4.5,0.2c1.9,0.2,2.6-0.3,1.2-0.8C167.2,70.9,162.5,70.6,160.9,70.9 M250.9,71
		c-2.3,0.6-2.5,1.2-0.3,1.2c1,0,1.9-0.2,1.9-0.4c0-0.2,0.6-0.3,1.3-0.2c4.3,0.6,5.3,0.6,4.7,0C257.7,70.9,252.8,70.5,250.9,71
		 M316.3,70.9c-1,0.3-0.9,1.3,0.1,1.2c0.4,0,0.8-0.2,0.8-0.3c0-0.1,0.5-0.2,1.2-0.2s1.2,0.1,1.2,0.2c0,0.1,0.4,0.3,0.8,0.3
		c1.1,0.1,1-0.9-0.1-1.2C319.3,70.6,317.4,70.6,316.3,70.9 M364.1,70.9c-2.5,0.4-2.6,1.5-0.1,1.2c2.7-0.3,3.6-0.3,6.4,0
		c2,0.2,2.1,0.2,1.6-0.4C371.3,71,366.6,70.5,364.1,70.9 M224.4,71.6c-0.5,0.5-0.2,0.6,1.8,0.6c1.6,0,2.2-0.1,2.1-0.5
		C228,70.9,225,70.8,224.4,71.6 M17.1,73c-0.1,0.4,0,1,0.1,1.3c0.2,0.4,0.3,0.1,0.4-0.8C17.6,72,17.4,71.8,17.1,73 M150.5,72.8
		c-0.1,0.3-0.1,0.7,0.1,0.9c0.2,0.2,0.4,0.1,0.5-0.2c0.1-0.3,0.4-0.5,0.7-0.5c0.3,0,0.6-0.2,0.6-0.4C152.4,72,150.8,72.1,150.5,72.8
		 M175.8,72.7c0.4,0.2,0.9,0.6,1.1,0.9c0.4,0.6,0.9,0,0.6-0.7c-0.1-0.4-0.7-0.6-1.3-0.6C175.1,72.2,175.1,72.3,175.8,72.7
		 M194.1,72.7c-0.3,0.3-0.5,0.9-0.4,1.5c0,0.8,0.1,0.9,0.2,0.2c0.2-0.9,1.1-1.9,1.4-1.6c0.1,0.1,0.3,0,0.5-0.2
		C196.1,72,194.7,72.1,194.1,72.7 M212.4,72.6c0.6,0.2,1.2,0.8,1.5,1.3c0.4,0.8,0.4,0.8,0.4-0.3c-0.1-1.1-0.2-1.2-1.5-1.3
		C211.5,72.2,211.4,72.2,212.4,72.6 M229.9,72.7c0.3,0.3,0.5,2.1,0.5,5.1c0,3.2,0.1,4.3,0.4,3.7c0.2-0.5,0.5-0.9,0.7-0.9
		c0.2,0,0.2-1.5,0.1-3.3c-0.2-3.1-0.9-5.1-1.8-5.1C229.6,72.2,229.7,72.4,229.9,72.7 M242,72.8c-0.3,0.3-0.4,0.7-0.3,0.8
		c0.3,0.3,1.9-0.3,1.7-0.6c-0.1-0.2,0.1-0.4,0.5-0.5c0.5-0.1,0.3-0.2-0.3-0.2C243,72.2,242.3,72.5,242,72.8 M264.7,72.6
		c0.5,0.2,0.9,0.5,0.9,0.8c0,0.2,0.2,0.4,0.4,0.4c0.2,0,0.2-0.3-0.1-0.8c-0.3-0.4-0.9-0.8-1.3-0.8C263.9,72.2,263.9,72.3,264.7,72.6
		 M325.8,72.6c0.6,0.2,1.3,0.6,1.5,0.9s0.4,0.4,0.6,0.2c0.5-0.5-0.8-1.5-2-1.5l-1.3,0L325.8,72.6 M353.7,72.8
		c-0.4,1,0.1,1.1,1.1,0.2l0.9-0.8h-0.9C354.4,72.2,353.9,72.5,353.7,72.8 M379,72.7c0.4,0.2,0.9,0.6,1.1,0.9c0.4,0.6,0.9,0,0.6-0.7
		c-0.1-0.4-0.7-0.6-1.3-0.6C378.3,72.2,378.3,72.3,379,72.7 M146,74.4c-0.8,0.9-0.2,1.1,0.8,0.2c0.7-0.6,0.8-0.8,0.3-0.8
		C146.8,73.8,146.3,74.1,146,74.4 M180.6,74.3c0.4,0.2,0.9,0.6,1.1,0.9c0.4,0.6,0.9,0,0.6-0.7c-0.1-0.4-0.7-0.6-1.3-0.6
		C179.9,73.8,179.9,73.9,180.6,74.3 M216.1,74.4c-0.4,1,0.1,1.1,1.1,0.2l0.9-0.8h-0.9C216.8,73.8,216.3,74.1,216.1,74.4 M269.3,74.6
		c1,0.8,1.4,0.8,1-0.1c-0.1-0.3-0.6-0.6-1.1-0.6C268.3,73.8,268.3,73.8,269.3,74.6 M349.3,74.3c-0.3,0.3-0.5,0.6-0.5,0.8
		c0,0.6,1,0.3,1.7-0.5C351.3,73.7,350.2,73.4,349.3,74.3 M383.6,74.1c0.3,0.1,0.9,0.5,1.3,0.9c0.7,0.6,0.7,0.6,0.6-0.2
		c-0.1-0.6-0.5-0.8-1.3-0.9C383.5,73.9,383.3,73.9,383.6,74.1 M18.1,81.4C18,88.6,18.3,92.3,18.8,92c0.2-0.1,0.4-3.9,0.3-8.7
		c0-4.7-0.2-8.1-0.3-7.7c-0.3,0.8-0.3,0.8-0.5,0C18.3,75.2,18.2,77.8,18.1,81.4 M122.1,76.1c-0.6,0.6-0.7,0.9-0.3,0.9
		c0.7,0,1.6-1,1.4-1.5C123.1,75.3,122.6,75.5,122.1,76.1 M235.3,76.2c-0.1,0.4-0.5,0.8-1,0.8c-0.5,0-0.7,0.3-0.7,0.9
		c0,0.7,0.1,0.7,0.2,0.2c0.1-0.4,0.4-0.7,0.6-0.7c0.2,0,0.8-0.4,1.4-1c0.7-0.8,0.8-1,0.3-1C235.8,75.4,235.4,75.8,235.3,76.2
		 M331.7,76.4c0.5,0.5,1,0.8,1.1,0.6c0.3-0.8-0.3-1.6-1.2-1.6C330.7,75.4,330.7,75.4,331.7,76.4 M193.8,95c0,10.4,0.1,14.7,0.1,9.5
		c0.1-5.2,0.1-13.8,0-19C193.8,80.3,193.8,84.6,193.8,95 M140.9,77.8c-0.1,0.4-0.5,0.9-1,1c-0.4,0.1-0.8,0.5-0.8,1
		c0,0.5-0.2,0.8-0.6,0.8c-0.3,0-0.6,0.4-0.8,0.8c-0.3,1.3,1.2,0.2,1.7-1.2c0.2-0.7,0.6-1.2,0.8-1.2c0.2,0,0.6-0.2,0.9-0.5
		c0.3-0.3,0.9-0.7,1.3-1c0.7-0.4,0.7-0.5-0.3-0.5C141.5,77,141.1,77.2,140.9,77.8 M273.2,77.3c0.3,0.1,1.3,1,2.1,1.9
		c0.8,0.9,1.5,1.4,1.5,1.2c0-0.8-2.6-3.4-3.4-3.3C272.8,77.1,272.8,77.1,273.2,77.3 M344.3,77.7c-0.3,0.4-0.8,0.8-1.2,1
		c-0.4,0.1-0.7,0.5-0.7,0.9c0,0.5,0.1,0.5,0.7-0.1c0.4-0.4,1.3-1.1,1.9-1.6c0.8-0.6,1-0.9,0.5-0.9C345.1,77,344.6,77.3,344.3,77.7
		 M388.7,77.7c0.4,1,1.7,1.5,1.4,0.6c-0.1-0.4-0.5-0.8-0.9-0.9C388.7,77.1,388.5,77.3,388.7,77.7 M16,79.2c0,0.6,0.1,1,0.2,1
		s0.5,0.1,0.8,0.2c0.5,0.2,0.6,0,0.6-1c0-1-0.2-1.2-0.8-1.2C16.2,78.2,16,78.5,16,79.2 M119.6,79.7c0,0.3-0.3,0.5-0.6,0.5
		s-0.6,0.3-0.6,0.7c0,0.6,0.1,0.6,0.9-0.2c0.5-0.5,0.8-1,0.6-1.2C119.7,79.4,119.6,79.5,119.6,79.7 M334.4,80.4
		c0,0.1,0.4,0.6,0.8,1.1l0.8,0.9l-0.1-1C335.8,80.6,334.4,79.6,334.4,80.4 M341.2,81.5c-0.4,0.7-0.4,0.8,0.2,0.6
		c0.4-0.1,0.8-0.3,0.8-0.3s0.2-0.3,0.2-0.6C342.4,80.3,341.7,80.5,341.2,81.5 M189.1,82.4c0.1,0.3,0.4,0.6,0.6,0.6
		c0.2,0,0.4,0.5,0.5,1.1c0.2,1.1,0.2,1.1,0.2-0.1c0.1-1.1-0.5-2.2-1.2-2.2C189,81.8,188.9,82.1,189.1,82.4 M392,82
		c0,0.1,0.4,0.6,0.8,1.1l0.8,0.9l-0.1-1C393.4,82.2,392,81.2,392,82 M59.2,84.3c0,1.6,0.1,1.9,0.4,1.2c0.2-0.5,0.5-1,0.8-1.1
		c0.7-0.4,0.5-1.2-0.4-1.7C59.2,82.2,59.2,82.3,59.2,84.3 M118.3,83.8c0.2,0.9,1.2,1.8,1.6,1.5c0.4-0.4-0.2-1.4-1-1.8
		C118.2,83.1,118.1,83.1,118.3,83.8 M136.1,84c-0.3,0.9,0,1,0.8,0.1c0.6-0.6,0.6-0.7,0.1-0.7C136.7,83.4,136.3,83.7,136.1,84
		 M278.4,84c0,0.3,0.2,0.8,0.5,0.9c0.3,0.2,0.7,0.6,0.8,0.9s0.2,0,0.2-0.8C279.8,83.6,278.4,82.6,278.4,84 M339.5,83.7
		c-0.1,0.1-0.3,0.6-0.3,1.1c0,0.8,0,0.8,0.8-0.1C341,83.6,340.5,82.6,339.5,83.7 M18.7,86.3c-0.1,0.5-0.2,0.2-0.2-0.7
		c0-0.9,0.1-1.3,0.2-0.9C18.8,85.1,18.8,85.8,18.7,86.3 M17.1,84.9c-0.1,0.2,0,0.7,0.1,1.1c0.3,0.7,0.3,0.7,0.3-0.3
		C17.6,84.6,17.4,84.3,17.1,84.9 M135.1,87.2c-1.4,1.4-0.7,4.2,1.1,4.2c0.8,0,0.8,0,0-0.6c-0.8-0.6-0.9-1-0.4-2.3
		C136.3,87.2,135.9,86.3,135.1,87.2 M162.8,87c0,0.2-0.6,0.6-1.3,0.8c-1.1,0.3-0.8,0.4,1.7,0.4c1.9,0,2.7-0.1,2.2-0.3
		c-0.4-0.2-0.9-0.3-1.1-0.2c-0.1,0.1-0.4-0.1-0.5-0.4C163.6,86.5,162.8,86.4,162.8,87 M250.1,87.4c-0.4,0.4-0.9,0.7-1.3,0.6
		c-0.6-0.2-0.6-0.1,0,0.2c0.3,0.2,0.8,0.4,1.1,0.4c0.3,0,0.8,0.3,1.1,0.6c0.8,0.8,1.3,0.8,1.3,0c0-0.3-0.3-0.6-0.8-0.8
		c-0.6-0.1-0.7-0.4-0.6-1C251.3,86.4,251,86.4,250.1,87.4 M256.1,87.2c0.1,0.6,0.5,0.8,1.3,0.9c0.7,0,0.9,0,0.4-0.1
		c-0.4-0.1-1-0.5-1.3-0.9C256,86.5,255.9,86.5,256.1,87.2 M365.5,87.2c-0.3,0.3-0.9,0.6-1.3,0.8c-0.4,0.1,0.6,0.2,2.2,0.2
		s2.7-0.1,2.3-0.2c-0.4-0.1-0.7-0.4-0.7-0.6s-0.2-0.3-0.4-0.1s-0.4,0.1-0.4-0.2C367.2,86.4,366.2,86.5,365.5,87.2 M120,87.3
		c0,0.2,0.4,0.7,0.9,1.1c0.8,0.7,0.9,0.7,0.6,0c-0.1-0.4-0.3-0.9-0.3-1.1c0-0.2-0.3-0.4-0.6-0.4S120,87.2,120,87.3 M337.8,88.5
		c-0.3,1.7,0.2,2.7,1.5,2.9c0.9,0.1,0.9,0.1-0.2-0.7c-0.7-0.6-1-1-0.7-1.3c0.8-1,0.9-2.3,0.3-2.3C338.3,87,337.9,87.5,337.8,88.5
		 M279.6,87.6c0,0.6-2.1,1.7-3.1,1.6c-0.5,0-1,0.1-1.1,0.3c-0.2,0.4,2,0.4,3.3,0.1c0.8-0.2,1.6-1.7,1.1-2.1
		C279.7,87.4,279.6,87.4,279.6,87.6 M166.8,88.8c0,0.3,0.3,0.6,0.6,0.6c0.3,0,0.6-0.2,0.5-0.5C167.7,88.2,166.8,88.1,166.8,88.8
		 M370.1,88.7c0.2,0.7,1.1,0.9,1.1,0.2c0-0.3-0.3-0.6-0.6-0.6C370.2,88.2,370,88.4,370.1,88.7 M59.2,90.7c0,1.2,0.1,1.9,0.2,1.6
		c0.1-0.3,0.5-0.5,0.8-0.5c0.6,0,1.2-1.7,0.8-2.6C60.4,87.6,59.2,88.6,59.2,90.7 M259.2,88.9c0,0.5,0.6,1.1,1.1,1.2
		c0.4,0.1,0.4-0.1,0.1-0.7C260,88.6,259.2,88.3,259.2,88.9 M157.5,90.2c-0.9,1.1-0.9,1.6,0.2,1.6c0.5,0,0.7-0.1,0.4-0.2
		c-0.4-0.2-0.4-0.3-0.1-0.8c0.2-0.3,0.4-0.7,0.3-1C158.3,89.6,157.9,89.7,157.5,90.2 M308.7,89.7c0.5,0.1,1.3,0.1,1.8,0
		c0.5-0.1,0.1-0.2-0.9-0.2C308.6,89.5,308.2,89.6,308.7,89.7 M360.7,89.8c-1.1,0.6-0.9,2,0.2,1.9c0.5,0,0.7-0.1,0.4-0.2
		c-0.4-0.2-0.4-0.3-0.1-0.8C361.9,90,361.5,89.4,360.7,89.8 M121.6,90.6c0,0.4,0.4,0.8,0.8,1c1,0.3,1-0.2,0.2-1.1
		C121.8,89.6,121.6,89.6,121.6,90.6 M268.5,90.4c-0.1,0.3-0.4,0.6-0.7,0.6c-0.9-0.1-1.5,0-1.5,0.4c0,0.2,0.3,0.3,0.6,0.2
		c0.6-0.2,2.3,0.5,2.7,1.2c0.4,0.6,0.9,0,0.6-0.7c-0.1-0.3-0.6-0.6-1.1-0.6c-0.9,0-0.9,0-0.2-0.8c0.4-0.5,0.5-0.8,0.2-0.8
		C269,89.8,268.7,90.1,268.5,90.4 M16.7,90.9c-1,0.3-0.9,2,0.1,2.2c0.7,0.2,0.8,0,0.8-1.2c0-0.8,0-1.3-0.1-1.3
		C17.4,90.7,17.1,90.8,16.7,90.9 M336,98.6c0,5.3,0.1,8,0.4,7.8c0.2-0.2,0.4-3.2,0.4-7.8c0-4.6-0.2-7.6-0.4-7.8
		C336.1,90.6,336,93.3,336,98.6 M142.8,91.8c0,0.2,0.3,0.6,0.8,0.8c0.9,0.5,5.3,0.6,4.5,0.1c-0.3-0.2-0.9-0.3-1.3-0.2
		c-0.4,0.1-1-0.1-1.4-0.4C144.7,91.3,142.8,91.2,142.8,91.8 M346,92c0,0.7,1.3,1,4.1,1c2.1,0,2.2,0.1,2.1,0.8c-0.3,1,0.2,1,1.1-0.1
		c0.4-0.5,0.7-0.9,0.7-0.9c0,0-0.8-0.1-1.9-0.2c-1-0.1-2.2-0.3-2.5-0.6c-0.5-0.4-0.5-0.4-0.3,0c0.2,0.3,0.1,0.5-0.1,0.5
		s-0.4-0.2-0.4-0.4c0-0.2-0.3-0.3-0.6-0.2c-0.3,0.1-0.6,0.1-0.6-0.1c0-0.2-0.4-0.4-0.8-0.4C346.4,91.5,346,91.7,346,92 M148.9,93.7
		c0,0.6,0,0.7,0.1,0.4c0.1-0.4,0.4-0.7,0.7-0.7c0.9,0,1-0.6,0-0.7C149.2,92.7,149,92.9,148.9,93.7 M123.2,93.3
		c0,0.2,0.4,0.7,0.8,1.1c0.9,0.9,1.1,0.2,0.2-0.8C123.5,92.9,123.2,92.8,123.2,93.3 M220.7,93.8c-0.7,0.8-0.7,0.8,0.4,0.7
		c0.7-0.1,1.2-0.4,1.2-0.8C222.5,92.7,221.5,92.8,220.7,93.8 M18.5,93.9c-0.5,0.6-0.6,8-0.1,10.1c0.5,2.3,0.8,0.1,0.7-5.3
		C19,94.4,18.9,93.5,18.5,93.9 M59.2,100v5.4l1-0.9c1.2-1,1.3-2.5,0.2-3.4c-1-0.8-1.1-3.6-0.2-4c0.8-0.3,0.8-0.8-0.2-1.7l-0.8-0.8
		V100 M144.1,95.3c-0.1,0.4-0.3,0.9-0.5,1.1c-0.1,0.2,0.2,0,0.8-0.5c0.5-0.5,1.3-0.9,1.8-1.1c0.5-0.1,0.3-0.2-0.5-0.2
		C144.8,94.6,144.3,94.8,144.1,95.3 M276.3,96.3c0.9,0.9,2.1,2.2,2.6,2.9c0.9,1.1,1,1.1,1,0.3c0-0.5-0.4-1.1-0.8-1.4
		c-0.4-0.3-0.8-0.7-0.8-1s-0.3-0.6-0.7-0.8c-0.4-0.1-0.9-0.6-1.2-1c-0.3-0.4-0.8-0.7-1.1-0.7C274.9,94.6,275.3,95.2,276.3,96.3
		 M347.3,95.3c-0.1,0.4-0.3,0.8-0.4,1c-0.3,0.5,1.3-0.2,2-1c0.7-0.7,0.7-0.7-0.3-0.7C348,94.6,347.5,94.9,347.3,95.3 M124.8,96.8
		c0,0.3,0.4,0.8,0.8,1c0.9,0.5,1.1-0.3,0.3-1.1C125.3,96,124.8,96.1,124.8,96.8 M141.9,96.6c-0.4,0.2-0.7,0.6-0.7,0.8
		c0,0.6,1.2,0.4,1.5-0.2C143,96.4,142.7,96.2,141.9,96.6 M345,97c-0.4,0.4-0.6,0.9-0.5,1c0.3,0.3,1.5-0.9,1.5-1.4
		C346,96,345.8,96.1,345,97 M16.8,97.6c-0.3,0.4-0.3,0.6-0.1,0.6c0.2,0,0.5,0.4,0.6,0.9c0.1,0.6,0.2,0.3,0.2-0.6
		C17.6,96.8,17.5,96.7,16.8,97.6 M18.7,99.1c-0.1,0.5-0.2,0.2-0.2-0.7c0-0.9,0.1-1.3,0.2-0.9C18.8,97.9,18.8,98.6,18.7,99.1
		 M228.8,97.9c0,0.6,0.2,1.2,0.6,1.3c0.7,0.3,1.3-0.2,0.7-0.6c-0.2-0.2-0.6-0.6-0.9-1.1C228.9,96.9,228.8,96.9,228.8,97.9
		 M139.3,98.6c-0.1,0.4-0.5,0.8-0.8,0.8c-0.3,0-0.7,0.3-0.8,0.8c-0.1,0.4-0.5,0.9-1,1c-0.4,0.1-0.8,0.5-0.8,0.9
		c0,0.6,0.3,0.5,1.2-0.6c0.7-0.8,1.8-1.9,2.4-2.5c0.9-0.8,1-1.1,0.5-1.1C139.8,97.8,139.4,98.2,139.3,98.6 M342.5,98.6
		c-0.1,0.4-0.5,0.8-0.8,0.8c-0.3,0-0.7,0.3-0.8,0.8c-0.1,0.4-0.5,0.9-1,1c-0.5,0.1-0.8,0.5-0.7,1.1c0,0.9,0,0.9,0.4,0.1
		c0.2-0.5,0.6-1,1-1.1c0.3-0.1,0.6-0.5,0.6-0.9c0-0.3,0.3-0.6,0.6-0.6c0.4,0,0.7-0.4,0.8-0.8c0.1-0.4,0.5-0.9,0.9-1
		c0.5-0.1,0.5-0.2-0.1-0.2C343,97.8,342.6,98.1,342.5,98.6 M126.4,99.9c0,0.3,0.4,0.8,0.8,1.2c0.9,0.8,1.2-0.3,0.3-1.2
		C126.9,99.3,126.4,99.3,126.4,99.9 M217.4,109c0,4.7,0.1,6.7,0.1,4.3c0.1-2.4,0.1-6.2,0-8.6C217.4,102.3,217.4,104.3,217.4,109
		 M230.8,101.4c0.2,0.4,0.6,0.8,0.8,0.8c0.6,0,0.4-1.1-0.2-1.4C230.4,100.5,230.3,100.5,230.8,101.4 M101.3,103.1
		c0.2,0.7,1.1,0.9,1.1,0.2c0-0.3-0.3-0.6-0.6-0.6C101.4,102.6,101.2,102.8,101.3,103.1 M232.1,103.2c0.1,0.5,0.5,0.9,1,0.9
		c0.5,0.1,0.9,0.4,0.9,0.7s0.4,0.6,0.8,0.7c0.8,0.2,0.8,0.2,0.3-0.7c-0.3-0.5-0.9-0.9-1.3-1c-0.4-0.1-1-0.4-1.3-0.8
		C232,102.5,231.9,102.5,232.1,103.2 M128,103.5c0,0.4,0.2,0.7,0.4,0.7s0.6,0.7,0.9,1.6c0.3,0.9,0.7,1.6,1,1.6
		c0.3,0,0.6,0.3,0.7,0.7c0.2,0.7,0.2,0.7,0.2,0c0-0.4-0.3-1.1-0.8-1.5c-0.4-0.4-0.8-1.1-0.8-1.5c0-0.4-0.4-1.1-0.8-1.5
		C128.1,102.9,128,102.9,128,103.5 M164.3,104.8c-0.1,0.3-0.6,0.7-1.2,0.8c-0.8,0.2-0.8,0.2,0.2,0.2c1,0,1.9-0.8,1.4-1.4
		C164.6,104.3,164.4,104.4,164.3,104.8 M337.8,104.6c-0.1,0.2-0.2,0.5-0.1,0.6c0.3,0.3,1.1-0.2,1.1-0.7
		C338.8,104.1,338.1,104.1,337.8,104.6 M366.5,104.7c-0.2,0.3-0.6,0.7-0.9,0.8c-0.3,0.1,0,0.2,0.8,0.2c1-0.1,1.4-0.3,1.5-0.8
		C368.1,104.1,367,103.9,366.5,104.7 M102.4,105.9c0,0.6,0.2,1.2,0.6,1.3c0.7,0.3,1.3-0.2,0.7-0.6c-0.2-0.2-0.6-0.6-0.9-1.1
		C102.5,104.9,102.4,104.9,102.4,105.9 M236.8,106.3c0.2,0.6,0.7,0.9,1.5,1c1.1,0.1,1.1,0.1,0.3-0.4c-0.5-0.2-0.9-0.6-0.9-0.7
		c0-0.2-0.3-0.4-0.6-0.5C236.6,105.5,236.5,105.6,236.8,106.3 M160,106.6c-0.3,0.6-0.3,0.8,0.1,0.8c0.6,0,1.5-0.8,1.5-1.3
		C161.6,105.5,160.4,105.8,160,106.6 M363.4,106.6c-0.4,0.4-1,0.8-1.3,0.8s-0.5,0.3-0.5,0.6c0,0.7,2.6-0.8,3-1.7
		C364.9,105.5,364.2,105.7,363.4,106.6 M18.4,106.7c-0.5,0.6-0.5,1.9,0.2,5.1c0.2,0.7,0.1,0.8-0.2,0.4c-0.5-0.7-0.4,9.9,0.1,10.8
		c0.6,1,0.8-1.9,0.6-9.8C19,107.1,18.9,106.2,18.4,106.7 M59.2,109.6v2.2l1-1.1c0.5-0.6,1-1.3,1-1.6c0-0.3-0.5-0.8-1-1.2l-1-0.7
		V109.6 M239,108c-0.9,0.9-0.4,1.3,0.5,0.5c0.4-0.3,1.2-0.7,1.7-0.8c0.9-0.2,0.8-0.2-0.3-0.2C240.2,107.4,239.4,107.7,239,108
		 M133.4,109.2c-0.4,0.7-0.8,1.3-0.9,1.4c-0.1,0.1-0.3-0.1-0.5-0.4s-0.5-0.4-0.6-0.3s0,0.5,0.4,0.8c0.4,0.3,0.8,0.9,0.9,1.5
		c0.3,1.6,1.6,2.7,1.7,1.4c0-0.5-0.1-1-0.3-1c-0.4,0-0.3-2.1,0.2-2.4c0.2-0.1,0.3-0.7,0.2-1.2C134.2,108,134.2,108,133.4,109.2
		 M104,109.6c0,0.3,0.3,0.7,0.6,0.8c0.9,0.3,1,0,0.1-0.8C104.1,109.1,104,109.1,104,109.6 M166.7,109.3c-0.1,0.1-0.3,0.6-0.2,1.1
		c0,0.6,0.1,0.6,0.2,0.2c0.1-0.3,0.5-0.8,0.8-1.1c0.6-0.4,0.6-0.5,0-0.5C167.2,109,166.8,109.1,166.7,109.3 M226.2,109.6
		c-0.3,0.3-0.6,1-0.6,1.5c0,0.5,0.1,0.6,0.2,0.4c0.3-0.7,2.5-1.8,3.9-2c2-0.3,1.7-0.5-0.7-0.5C227.6,109,226.6,109.2,226.2,109.6
		 M244.4,109.2c0,0.1,0.4,0.7,1,1.2c0.5,0.6,1.1,1.3,1.1,1.5c0.1,0.3,0.3,0.3,0.5,0.1c0.2-0.2,0.1-0.4-0.1-0.5
		c-0.3-0.1-0.5-0.5-0.5-0.9c0-0.8-0.7-1.6-1.5-1.6C244.6,109,244.4,109.1,244.4,109.2 M248.4,109.6c0,0.6,1.2,1,2.8,1
		c0.8,0,0.7-0.1-0.7-0.8C248.4,108.8,248.4,108.9,248.4,109.6 M369.9,109.3c-0.7,0.7-0.3,1.8,0.5,1.3c0.9-0.5,1.1-1.6,0.3-1.6
		C370.4,109,370,109.1,369.9,109.3 M336.7,109.7c-0.5,0.5-0.3,3.6,0.3,4.4c0.5,0.7,0.6,0.5,0.6-1.9
		C337.6,109.6,337.4,109,336.7,109.7 M17,110.2c-0.1,0.2-0.1,0.6,0.2,0.9c0.3,0.3,0.4,0.2,0.4-0.4C17.6,109.7,17.4,109.6,17,110.2
		 M257.9,111.2c0.1,0.3,0.4,0.6,0.7,0.6c0.2,0,0.1,0.3-0.2,0.7c-0.9,1-0.8,1.3,0.1,1.3c0.4,0,0.8-0.3,0.8-0.6c0-0.3,0.4-0.6,0.8-0.6
		c0.4,0,0.8-0.2,0.8-0.4s-0.4-0.4-0.8-0.4c-0.4,0-0.8-0.3-0.8-0.6c0-0.3-0.4-0.6-0.8-0.6C257.9,110.6,257.7,110.8,257.9,111.2
		 M158.9,112.5c0.4,0.1,0.8,0.5,0.9,0.9c0.1,0.5,0.2,0.4,0.2-0.2c0-0.7-0.2-0.9-0.9-0.9C158.5,112.3,158.4,112.3,158.9,112.5
		 M163.3,112.8c-0.3,0.9,0,1,0.8,0.1c0.6-0.6,0.6-0.7,0.1-0.7C163.9,112.2,163.5,112.5,163.3,112.8 M249,112.5
		c0.4,0.1,1,0.5,1.3,0.8c0.7,0.7,1.2,0.4,0.5-0.5c-0.3-0.3-1-0.6-1.6-0.6C248.5,112.3,248.4,112.3,249,112.5 M281.5,113.7
		c-0.1,1-0.6,2.1-1,2.6c-0.7,0.8-0.7,0.8,0.2,0.6l0.9-0.2v5.8v5.8h12h12v-5.4v-5.4l-1.3,0.3c-0.7,0.1-6,0.3-11.8,0.4L282,118l-0.1-3
		C281.8,112.3,281.8,112.2,281.5,113.7 M361.9,112.6c0.3,0.2,0.7,0.6,0.9,0.9c0.3,0.4,0.3,0.3,0.4-0.4c0-0.7-0.2-0.9-0.9-0.9
		C361.6,112.2,361.5,112.3,361.9,112.6 M366.5,112.8c-0.4,0.9,0,1,1,0.1c0.9-0.8,0.9-0.8,0.1-0.8
		C367.2,112.2,366.7,112.5,366.5,112.8 M105.7,113c0.1,0.3,0.4,0.6,0.7,0.7c0.3,0.1,0.4-0.1,0.3-0.4c-0.1-0.3-0.4-0.6-0.7-0.7
		C105.7,112.6,105.6,112.7,105.7,113 M225.7,114c0.1,0.9,0.3,1.2,0.9,1.3c0.7,0.1,0.7,0.1,0.1-0.4c-0.4-0.3-0.8-0.9-0.9-1.3
		C225.7,113.1,225.7,113.3,225.7,114 M16.7,115c-1,0.5-1,3.8,0,4.1c0.9,0.4,1,0.2,0.9-2.3C17.4,114.9,17.3,114.7,16.7,115
		 M56.7,114.9c-0.9,0.2-1,2.1-0.1,2.1c0.3,0,0.7,0.3,0.8,0.7c0.1,0.4,0.2-0.2,0.2-1.2c0-1,0-1.9-0.1-1.9
		C57.4,114.7,57.1,114.8,56.7,114.9 M107.2,116.1c0,0.7,0.2,0.9,0.9,0.9c0.6,0,0.7-0.1,0.2-0.2c-0.4-0.1-0.8-0.5-0.9-0.9
		C107.3,115.4,107.3,115.5,107.2,116.1 M312.1,122l0.1,6l12.1,0.1c14.4,0.1,13.3,0.5,13.3-4.7c0-3.3,0-3.5,0.8-3.3
		c0.6,0.1,0.8,0.5,0.8,1.3c0,0.6,0.3,1.4,0.7,1.7c0.4,0.3,0.8,0.8,1,1.2c0.1,0.4,0.5,0.7,0.8,0.7s0.7,0.4,0.8,0.8
		c0.2,0.6,0.5,0.8,1.6,0.8c1.2,0,1.4,0.1,1.4,0.8c0,0.7,0.3,0.8,1.7,0.8c1.2,0,1.9,0.2,2.5,0.8c0.7,0.7,1.2,0.8,6.9,0.8
		c5.8,0,6.2,0,6.4-0.8c0.2-0.7,0.5-0.8,2.4-0.8s2.2-0.1,2.4-0.8c0.2-0.6,0.5-0.8,1.6-0.8c1,0,1.4-0.2,1.6-0.8c0.3-1,1.7,0.3,1.7,1.6
		c0,0.8,0.3,0.8,11.2,0.8h11.2V123c0-5.2-0.6-7.3-1.6-5.7c-0.2,0.4-5.7,0.5-26.3,0.5c-25.5,0-29,0.1-28.3,1.2
		c0.4,0.6-0.2,0.4-0.9-0.2c-0.3-0.3-0.5-0.8-0.4-1.1c0.2-0.6-1.4-0.8-1.7-0.2c-0.2,0.2-4.3,0.4-10.9,0.4c-10.6,0-11.8-0.1-12.8-1.4
		C312.1,116.2,312,118.7,312.1,122 M134.2,117.4c-0.2,0.3-4,0.4-11.6,0.4c-7.1,0-11.4,0.1-11.6,0.4c-0.1,0.2-0.7,0.4-1.2,0.4
		c-1.3,0-1.5,2.7-0.2,3.1c0.6,0.2,0.8,0.5,0.8,1.6c0,1,0.2,1.4,0.8,1.6c0.6,0.1,0.8,0.6,0.9,1.7l0.1,1.5l13.4,0.1
		c13,0.1,13.4,0.1,13.9-0.7c0.8-1.1,2.9-1.1,2.9,0c0,0.7,0.3,0.8,1.6,0.8c1.1,0,1.9,0.3,2.4,0.8c0.7,0.7,1.3,0.8,6.9,0.8
		c5.6,0,6.2-0.1,7-0.8c0.6-0.5,1.4-0.8,2.5-0.8c1.3,0,1.7-0.2,1.9-0.8c0.2-0.6,0.5-0.8,1.6-0.8c1,0,1.4-0.2,1.6-0.8
		c0.5-1.7,1.7-1.3,1.7,0.6v1.8h11c12.8,0,14.3-0.4,12-3.4c-0.4-0.5-0.6-1.7-0.6-3.1c0-1.9-0.2-2.4-0.8-2.8c-0.4-0.3-0.8-0.7-0.8-0.9
		c0-0.3-9.1-0.3-27.3-0.2c-22.2,0.2-27.4,0.1-28-0.3C134.7,117.1,134.4,117.1,134.2,117.4 M193.6,122.6v5.6l11.9-0.1l11.9-0.1l0.1-5
		l0.1-5l-10.8,0c-6.7,0-11.1-0.2-11.6-0.5C193.7,116.6,193.6,116.8,193.6,122.6 M227.2,117.6c0,0.4,0.4,0.7,0.8,0.8
		c0.4,0.1,0.8,0.5,0.8,1c0,1,3,4,4,4c0.5,0,0.8,0.3,0.8,0.8c0,0.5,0.3,0.8,0.8,0.8c0.4,0,0.8,0.4,1,0.8c0.2,0.6,0.5,0.8,1.6,0.8
		c0.9,0,1.5,0.3,1.8,0.8c0.4,0.7,0.9,0.8,3.2,0.8c2.4,0,2.8,0.1,3,0.8c0.2,0.8,0.5,0.8,8.6,0.8c7.9,0,8.4,0,9.1-0.8
		c0.6-0.6,1.2-0.8,3.3-0.8c2.2,0,2.6-0.1,2.8-0.8c0.2-0.6,0.5-0.8,1.8-0.8c1.3,0,1.6-0.1,1.6-0.8c0-0.7,0.3-0.8,1.4-0.8
		c1.1,0,1.5-0.2,1.6-0.8c0.1-0.4,0.5-0.8,1-0.8c0.5,0,0.8-0.3,0.8-0.8c0-0.5,0.3-0.8,0.8-0.8c0.5,0,0.8-0.3,0.8-0.8
		c0-0.4,0.4-0.8,0.8-1c0.5-0.1,0.8-0.5,0.8-1.1c0-0.7-0.1-0.8-0.7-0.5c-0.5,0.3-0.9,0.2-1.2-0.1c-0.6-0.6-45.3-0.7-47.7-0.1
		c-1.2,0.3-1.6,0.2-2.3-0.5C227.4,117.2,227.2,117.1,227.2,117.6 M17.3,121.9c0,0.4-0.3,0.7-0.7,0.7c-0.4,0-0.6,0.5-0.6,1.8
		c0,1.3,0.2,1.8,0.6,1.8c0.7,0,1.2-2.1,0.9-3.8C17.4,121.7,17.3,121.5,17.3,121.9 M18.4,125.8c-0.9,1.1-2.4,1.8-2.4,1.1
		c0-0.7-1.2-0.4-1.6,0.4c-0.4,0.7-0.3,0.8,0.6,0.8c0.8,0,1,0.2,1.1,1.1c0.2,1.7,1.2,2,2.8,0.9c1.8-1.2,2.4-2.1,2-2.5
		c-0.2-0.2-0.3-0.8-0.1-1.4C21,124.6,19.6,124.4,18.4,125.8 M4,129c0,0.7,0.3,0.8,1.7,0.8c0.9,0,1.5-0.1,1.2-0.2
		c-0.3-0.1-0.5-0.5-0.5-0.8c0-0.4-0.4-0.6-1.2-0.6C4.3,128.2,4,128.4,4,129 M10.2,128.6c-0.1,0.2-0.1,0.4,0.1,0.4
		c0.2,0-0.1,0.2-0.7,0.4c-0.8,0.3-0.5,0.3,1,0.3c1.5-0.1,2-0.2,2.1-0.8C12.9,128.1,10.7,127.9,10.2,128.6 M80.6,130.4
		c-0.4,0.3-1,0.4-1.4,0.3c-0.3-0.2-0.9-0.4-1.2-0.5c-0.3-0.1,0.3-0.2,1.4-0.3C81.2,129.8,81.3,129.9,80.6,130.4 M87,130.4
		c-0.5,0.3-1,0.4-1.4,0.3c-0.3-0.2-0.9-0.4-1.2-0.5c-0.3-0.1,0.3-0.2,1.4-0.3C87.6,129.8,87.7,129.9,87,130.4"/>
</g>
</svg>
